G04 #@! TF.GenerationSoftware,KiCad,Pcbnew,9.0.1*
G04 #@! TF.CreationDate,2025-07-21T13:44:48+02:00*
G04 #@! TF.ProjectId,ukmarsbot-wall-sensor-advanced,756b6d61-7273-4626-9f74-2d77616c6c2d,rev?*
G04 #@! TF.SameCoordinates,Original*
G04 #@! TF.FileFunction,Copper,L1,Top*
G04 #@! TF.FilePolarity,Positive*
%FSLAX46Y46*%
G04 Gerber Fmt 4.6, Leading zero omitted, Abs format (unit mm)*
G04 Created by KiCad (PCBNEW 9.0.1) date 2025-07-21 13:44:48*
%MOMM*%
%LPD*%
G01*
G04 APERTURE LIST*
G04 Aperture macros list*
%AMRotRect*
0 Rectangle, with rotation*
0 The origin of the aperture is its center*
0 $1 length*
0 $2 width*
0 $3 Rotation angle, in degrees counterclockwise*
0 Add horizontal line*
21,1,$1,$2,0,0,$3*%
G04 Aperture macros list end*
G04 #@! TA.AperFunction,Profile*
%ADD10C,0.050000*%
G04 #@! TD*
%ADD11C,0.350000*%
G04 #@! TA.AperFunction,SMDPad,CuDef*
%ADD12C,0.750000*%
G04 #@! TD*
G04 #@! TA.AperFunction,ComponentPad*
%ADD13C,6.400000*%
G04 #@! TD*
G04 #@! TA.AperFunction,ComponentPad*
%ADD14RotRect,1.800000X1.800000X150.000000*%
G04 #@! TD*
G04 #@! TA.AperFunction,ComponentPad*
%ADD15C,1.800000*%
G04 #@! TD*
G04 #@! TA.AperFunction,ComponentPad*
%ADD16RotRect,1.800000X1.800000X100.000000*%
G04 #@! TD*
G04 #@! TA.AperFunction,ComponentPad*
%ADD17R,1.800000X1.800000*%
G04 #@! TD*
G04 #@! TA.AperFunction,ComponentPad*
%ADD18O,2.400000X1.800000*%
G04 #@! TD*
G04 #@! TA.AperFunction,ComponentPad*
%ADD19R,1.600000X1.600000*%
G04 #@! TD*
G04 #@! TA.AperFunction,ComponentPad*
%ADD20C,1.600000*%
G04 #@! TD*
G04 #@! TA.AperFunction,ComponentPad*
%ADD21RotRect,1.800000X1.800000X30.000000*%
G04 #@! TD*
G04 #@! TA.AperFunction,ComponentPad*
%ADD22RotRect,1.800000X1.800000X80.000000*%
G04 #@! TD*
G04 #@! TA.AperFunction,ComponentPad*
%ADD23O,1.800000X2.400000*%
G04 #@! TD*
G04 #@! TA.AperFunction,ComponentPad*
%ADD24RotRect,1.800000X1.800000X260.000000*%
G04 #@! TD*
G04 #@! TA.AperFunction,ComponentPad*
%ADD25RotRect,1.800000X1.800000X330.000000*%
G04 #@! TD*
G04 #@! TA.AperFunction,ComponentPad*
%ADD26RotRect,1.800000X1.800000X280.000000*%
G04 #@! TD*
G04 #@! TA.AperFunction,ComponentPad*
%ADD27RotRect,1.800000X1.800000X210.000000*%
G04 #@! TD*
G04 #@! TA.AperFunction,ComponentPad*
%ADD28R,2.400000X1.800000*%
G04 #@! TD*
G04 #@! TA.AperFunction,ViaPad*
%ADD29C,0.800000*%
G04 #@! TD*
G04 #@! TA.AperFunction,Conductor*
%ADD30C,0.500000*%
G04 #@! TD*
G04 #@! TA.AperFunction,Conductor*
%ADD31C,0.800000*%
G04 #@! TD*
G04 APERTURE END LIST*
D10*
X139290000Y-145005000D02*
X139290000Y-64995000D01*
X166595000Y-132305000D02*
X166595000Y-132940000D01*
X166595000Y-132940000D02*
X154530000Y-145005000D01*
X154530000Y-145005000D02*
X139290000Y-145005000D01*
X166595000Y-77060000D02*
X166595000Y-132305000D01*
X154530000Y-64995000D02*
X166595000Y-77060000D01*
X139290000Y-64995000D02*
X154530000Y-64995000D01*
D11*
X144370000Y-129130000D03*
X159200000Y-93500000D03*
X157000295Y-92230000D03*
X144277127Y-74600000D03*
X143836061Y-72098588D03*
X162150000Y-106275000D03*
X162150000Y-103735000D03*
X146275000Y-92681000D03*
X153895000Y-92681000D03*
X163420000Y-112620000D03*
X160880000Y-112620000D03*
X158340000Y-112620000D03*
X157070000Y-80235000D03*
X154570000Y-80235000D03*
X157100000Y-117900000D03*
X159299705Y-116630000D03*
X146275000Y-89633000D03*
X153895000Y-89633000D03*
X143834325Y-137900000D03*
X144275391Y-135398588D03*
X146285000Y-95729000D03*
X153905000Y-95729000D03*
X146275000Y-107921000D03*
X153895000Y-107921000D03*
X146275000Y-101825000D03*
X153895000Y-101825000D03*
X146275000Y-110969000D03*
X153895000Y-110969000D03*
X146275000Y-123288000D03*
X153895000Y-123288000D03*
X146275000Y-104873000D03*
X153895000Y-104873000D03*
X163420000Y-97380000D03*
X160880000Y-97380000D03*
X158340000Y-97380000D03*
X144370000Y-80870000D03*
X153885000Y-86585000D03*
X146265000Y-86585000D03*
X146275000Y-98777000D03*
X153895000Y-98777000D03*
X158340000Y-101200000D03*
X158340000Y-108820000D03*
X146275000Y-120240000D03*
X153895000Y-120240000D03*
X146275000Y-114017000D03*
X153895000Y-114017000D03*
X146275000Y-117065000D03*
X153895000Y-117065000D03*
X157070000Y-129765000D03*
X154570000Y-129765000D03*
X147825391Y-136026588D03*
X147384325Y-138528000D03*
X158848000Y-88998000D03*
X161047705Y-90268000D03*
X147427127Y-71472000D03*
X147868193Y-73973412D03*
X161047705Y-119732000D03*
X158848000Y-121002000D03*
X141830000Y-121510000D03*
X141830000Y-118970000D03*
X141830000Y-116430000D03*
X141830000Y-113890000D03*
X141830000Y-111350000D03*
X141830000Y-108810000D03*
X141830000Y-106270000D03*
X141830000Y-103730000D03*
X141830000Y-101190000D03*
X141830000Y-98650000D03*
X141830000Y-96110000D03*
X141830000Y-93570000D03*
X141830000Y-91030000D03*
X141830000Y-88490000D03*
D12*
X155000000Y-67500000D03*
X140000000Y-68500000D03*
X141500000Y-143500000D03*
D13*
X144370000Y-129130000D03*
D14*
X159200000Y-93500000D03*
D15*
X157000295Y-92230000D03*
D16*
X144277127Y-74600000D03*
D15*
X143836061Y-72098588D03*
D17*
X162150000Y-106275000D03*
D15*
X162150000Y-103735000D03*
D18*
X146675000Y-92681000D03*
X153495000Y-92681000D03*
D17*
X163420000Y-112620000D03*
D15*
X160880000Y-112620000D03*
X158340000Y-112620000D03*
D19*
X157070000Y-80235000D03*
D20*
X154570000Y-80235000D03*
D21*
X157100000Y-117900000D03*
D15*
X159299705Y-116630000D03*
D18*
X146675000Y-89633000D03*
X153495000Y-89633000D03*
D22*
X143834325Y-137900000D03*
D15*
X144275391Y-135398588D03*
D18*
X146685000Y-95729000D03*
X153505000Y-95729000D03*
X146675000Y-107921000D03*
X153495000Y-107921000D03*
X146675000Y-101825000D03*
X153495000Y-101825000D03*
X146675000Y-110969000D03*
X153495000Y-110969000D03*
X146675000Y-123288000D03*
X153495000Y-123288000D03*
X146675000Y-104873000D03*
X153495000Y-104873000D03*
D17*
X163420000Y-97380000D03*
D15*
X160880000Y-97380000D03*
X158340000Y-97380000D03*
D13*
X144370000Y-80870000D03*
D18*
X153485000Y-86585000D03*
X146665000Y-86585000D03*
X146675000Y-98777000D03*
X153495000Y-98777000D03*
D23*
X158340000Y-101600000D03*
X158340000Y-108420000D03*
D18*
X146675000Y-120240000D03*
X153495000Y-120240000D03*
X146675000Y-114017000D03*
X153495000Y-114017000D03*
X146675000Y-117065000D03*
X153495000Y-117065000D03*
D19*
X157070000Y-129765000D03*
D20*
X154570000Y-129765000D03*
D24*
X147825391Y-136026588D03*
D15*
X147384325Y-138528000D03*
D25*
X158848000Y-88998000D03*
D15*
X161047705Y-90268000D03*
D26*
X147427127Y-71472000D03*
D15*
X147868193Y-73973412D03*
D27*
X161047705Y-119732000D03*
D15*
X158848000Y-121002000D03*
D28*
X141830000Y-121510000D03*
D18*
X141830000Y-118970000D03*
X141830000Y-116430000D03*
X141830000Y-113890000D03*
X141830000Y-111350000D03*
X141830000Y-108810000D03*
X141830000Y-106270000D03*
X141830000Y-103730000D03*
X141830000Y-101190000D03*
X141830000Y-98650000D03*
X141830000Y-96110000D03*
X141830000Y-93570000D03*
X141830000Y-91030000D03*
X141830000Y-88490000D03*
D29*
X164886262Y-95184886D03*
X152625000Y-91157000D03*
X150800000Y-118700000D03*
X154000000Y-118700000D03*
X151649500Y-104873000D03*
X149900000Y-107950000D03*
X144700000Y-115500000D03*
X151600000Y-115500000D03*
X151600000Y-112500000D03*
X148100000Y-112450000D03*
X150750000Y-121819010D03*
X148050500Y-121802626D03*
D30*
X164886262Y-95913738D02*
X163420000Y-97380000D01*
X164886262Y-95184886D02*
X164886262Y-95913738D01*
X148434000Y-87347000D02*
X146275000Y-89506000D01*
X146529000Y-76044000D02*
X148434000Y-77949000D01*
X145894000Y-72869000D02*
X146529000Y-76044000D01*
X148434000Y-77949000D02*
X148434000Y-87347000D01*
X143836061Y-72098588D02*
X145123588Y-72098588D01*
X145123588Y-72098588D02*
X145894000Y-72869000D01*
X146275000Y-92681000D02*
X151101000Y-92681000D01*
X151101000Y-92681000D02*
X152625000Y-91157000D01*
X154000000Y-118700000D02*
X154775000Y-118700000D01*
X155325000Y-116800000D02*
X156395000Y-115730000D01*
X156395000Y-115730000D02*
X158399705Y-115730000D01*
X155325000Y-118150000D02*
X155325000Y-116800000D01*
X150750000Y-118650000D02*
X150750000Y-100194000D01*
X150750000Y-100194000D02*
X146285000Y-95729000D01*
X154775000Y-118700000D02*
X155325000Y-118150000D01*
X158399705Y-115730000D02*
X159299705Y-116630000D01*
X150800000Y-118700000D02*
X150750000Y-118650000D01*
X149025000Y-130648979D02*
X144275391Y-135398588D01*
X149025000Y-101527000D02*
X149025000Y-130648979D01*
X146275000Y-98777000D02*
X149025000Y-101527000D01*
X158340000Y-101200000D02*
X159615000Y-101200000D01*
X159615000Y-101200000D02*
X162150000Y-103735000D01*
D31*
X153905000Y-95729000D02*
X153905000Y-98767000D01*
X153895000Y-89760000D02*
X153895000Y-92798000D01*
X157070000Y-80235000D02*
X157070000Y-83400000D01*
X157070000Y-83400000D02*
X153885000Y-86585000D01*
X153895000Y-86585000D02*
X153895000Y-89760000D01*
X153905000Y-92808000D02*
X153905000Y-95846000D01*
D30*
X143100000Y-98650000D02*
X146275000Y-101825000D01*
X141830000Y-98650000D02*
X143100000Y-98650000D01*
X141830000Y-101190000D02*
X145513000Y-104873000D01*
X151499501Y-100918499D02*
X151499501Y-104723001D01*
X156764000Y-95400000D02*
X156307000Y-95857000D01*
X161047705Y-94902295D02*
X160550000Y-95400000D01*
X151499501Y-104723001D02*
X151649500Y-104873000D01*
X161047705Y-90268000D02*
X161047705Y-94902295D01*
X152159000Y-100259000D02*
X151499501Y-100918499D01*
X156307000Y-98793000D02*
X154841000Y-100259000D01*
X160550000Y-95400000D02*
X156764000Y-95400000D01*
X145513000Y-104873000D02*
X146275000Y-104873000D01*
X154841000Y-100259000D02*
X152159000Y-100259000D01*
X156307000Y-95857000D02*
X156307000Y-98793000D01*
X155050000Y-124800000D02*
X158848000Y-121002000D01*
X149900000Y-107950000D02*
X149900000Y-122950000D01*
X149900000Y-122950000D02*
X151750000Y-124800000D01*
X141830000Y-103730000D02*
X146021000Y-107921000D01*
X151750000Y-124800000D02*
X155050000Y-124800000D01*
X141830000Y-106270000D02*
X140100000Y-108000000D01*
X145012325Y-140900000D02*
X147384325Y-138528000D01*
X140100000Y-108000000D02*
X140100000Y-138700000D01*
X140100000Y-138700000D02*
X142300000Y-140900000D01*
X142300000Y-140900000D02*
X145012325Y-140900000D01*
X141830000Y-106270000D02*
X146275000Y-110715000D01*
X156900000Y-113000000D02*
X156900000Y-110260000D01*
X151600000Y-115500000D02*
X154400000Y-115500000D01*
X141898624Y-113890000D02*
X143508624Y-115500000D01*
X154400000Y-115500000D02*
X156900000Y-113000000D01*
X143508624Y-115500000D02*
X144700000Y-115500000D01*
X156900000Y-110260000D02*
X158340000Y-108820000D01*
X146275000Y-113255000D02*
X146275000Y-114017000D01*
X141830000Y-108810000D02*
X146275000Y-113255000D01*
X141830000Y-111428625D02*
X146275000Y-115873625D01*
X146275000Y-115873625D02*
X146275000Y-117065000D01*
D31*
X162238412Y-136026588D02*
X165833000Y-132432000D01*
X162063705Y-118716000D02*
X165833000Y-118716000D01*
X165833000Y-87855000D02*
X165833000Y-77314000D01*
X165885762Y-118663238D02*
X165885762Y-87907762D01*
X141830000Y-88490000D02*
X144360000Y-88490000D01*
X157705000Y-69186000D02*
X147545000Y-69186000D01*
X158848000Y-88998000D02*
X159991000Y-87855000D01*
X147427127Y-71472000D02*
X147427127Y-69303873D01*
X141957000Y-69186000D02*
X140052000Y-71091000D01*
X161047705Y-119732000D02*
X162063705Y-118716000D01*
X165833000Y-129638000D02*
X165833000Y-118716000D01*
X165833000Y-118716000D02*
X165885762Y-118663238D01*
X159991000Y-87855000D02*
X165833000Y-87855000D01*
X147825391Y-136026588D02*
X162238412Y-136026588D01*
X147545000Y-69186000D02*
X141957000Y-69186000D01*
X157070000Y-129765000D02*
X165706000Y-129765000D01*
X165706000Y-129765000D02*
X165833000Y-129638000D01*
X165833000Y-132432000D02*
X165833000Y-129638000D01*
X140052000Y-71091000D02*
X140052000Y-86712000D01*
X165833000Y-77314000D02*
X157705000Y-69186000D01*
X140052000Y-86712000D02*
X141830000Y-88490000D01*
X165885762Y-87907762D02*
X165833000Y-87855000D01*
X147427127Y-69303873D02*
X147545000Y-69186000D01*
X144360000Y-88490000D02*
X146265000Y-86585000D01*
D30*
X157600000Y-99250000D02*
X155950000Y-100900000D01*
X148325000Y-118190000D02*
X146275000Y-120240000D01*
X159010000Y-99250000D02*
X157600000Y-99250000D01*
X148100000Y-112450000D02*
X148325000Y-112675000D01*
X160880000Y-97380000D02*
X159010000Y-99250000D01*
X155950000Y-100900000D02*
X155950000Y-111962000D01*
X151600000Y-112500000D02*
X152378000Y-112500000D01*
X152378000Y-112500000D02*
X153895000Y-114017000D01*
X148325000Y-112675000D02*
X148325000Y-118190000D01*
X155950000Y-111962000D02*
X153895000Y-114017000D01*
X163420000Y-115355000D02*
X163420000Y-112620000D01*
X161525000Y-117250000D02*
X163420000Y-115355000D01*
X158825000Y-118775000D02*
X161525000Y-117250000D01*
X157100000Y-117900000D02*
X157975000Y-118775000D01*
X157975000Y-118775000D02*
X158825000Y-118775000D01*
X148050500Y-122527126D02*
X148050500Y-121802626D01*
X150750000Y-120210000D02*
X153895000Y-117065000D01*
X160880000Y-112620000D02*
X158650000Y-114850000D01*
X147289626Y-123288000D02*
X148050500Y-122527126D01*
X158650000Y-114850000D02*
X156110000Y-114850000D01*
X156110000Y-114850000D02*
X153895000Y-117065000D01*
X150750000Y-121819010D02*
X150750000Y-120210000D01*
D11*
X164886262Y-95184886D03*
X152625000Y-91157000D03*
X150800000Y-118700000D03*
X154000000Y-118700000D03*
X151649500Y-104873000D03*
X149900000Y-107950000D03*
X144700000Y-115500000D03*
X151600000Y-115500000D03*
X151600000Y-112500000D03*
X148100000Y-112450000D03*
X150750000Y-121819010D03*
X148050500Y-121802626D03*
X144370000Y-129130000D03*
X159200000Y-93500000D03*
X157000295Y-92230000D03*
X144277127Y-74600000D03*
X143836061Y-72098588D03*
X162150000Y-106275000D03*
X162150000Y-103735000D03*
X146275000Y-92681000D03*
X153895000Y-92681000D03*
X163420000Y-112620000D03*
X160880000Y-112620000D03*
X158340000Y-112620000D03*
X157070000Y-80235000D03*
X154570000Y-80235000D03*
X157100000Y-117900000D03*
X159299705Y-116630000D03*
X146275000Y-89633000D03*
X153895000Y-89633000D03*
X143834325Y-137900000D03*
X144275391Y-135398588D03*
X146285000Y-95729000D03*
X153905000Y-95729000D03*
X146275000Y-107921000D03*
X153895000Y-107921000D03*
X146275000Y-101825000D03*
X153895000Y-101825000D03*
X146275000Y-110969000D03*
X153895000Y-110969000D03*
X146275000Y-123288000D03*
X153895000Y-123288000D03*
X146275000Y-104873000D03*
X153895000Y-104873000D03*
X163420000Y-97380000D03*
X160880000Y-97380000D03*
X158340000Y-97380000D03*
X144370000Y-80870000D03*
X153885000Y-86585000D03*
X146265000Y-86585000D03*
X146275000Y-98777000D03*
X153895000Y-98777000D03*
X158340000Y-101200000D03*
X158340000Y-108820000D03*
X146275000Y-120240000D03*
X153895000Y-120240000D03*
X146275000Y-114017000D03*
X153895000Y-114017000D03*
X146275000Y-117065000D03*
X153895000Y-117065000D03*
X157070000Y-129765000D03*
X154570000Y-129765000D03*
X147825391Y-136026588D03*
X147384325Y-138528000D03*
X158848000Y-88998000D03*
X161047705Y-90268000D03*
X147427127Y-71472000D03*
X147868193Y-73973412D03*
X161047705Y-119732000D03*
X158848000Y-121002000D03*
X141830000Y-121510000D03*
X141830000Y-118970000D03*
X141830000Y-116430000D03*
X141830000Y-113890000D03*
X141830000Y-111350000D03*
X141830000Y-108810000D03*
X141830000Y-106270000D03*
X141830000Y-103730000D03*
X141830000Y-101190000D03*
X141830000Y-98650000D03*
X141830000Y-96110000D03*
X141830000Y-93570000D03*
X141830000Y-91030000D03*
X141830000Y-88490000D03*
X144370000Y-129130000D03*
X159200000Y-93500000D03*
X157000295Y-92230000D03*
X144277127Y-74600000D03*
X143836061Y-72098588D03*
X162150000Y-106275000D03*
X162150000Y-103735000D03*
X146275000Y-92681000D03*
X153895000Y-92681000D03*
X163420000Y-112620000D03*
X160880000Y-112620000D03*
X158340000Y-112620000D03*
X157070000Y-80235000D03*
X154570000Y-80235000D03*
X157100000Y-117900000D03*
X159299705Y-116630000D03*
X146275000Y-89633000D03*
X153895000Y-89633000D03*
X143834325Y-137900000D03*
X144275391Y-135398588D03*
X146285000Y-95729000D03*
X153905000Y-95729000D03*
X146275000Y-107921000D03*
X153895000Y-107921000D03*
X146275000Y-101825000D03*
X153895000Y-101825000D03*
X146275000Y-110969000D03*
X153895000Y-110969000D03*
X146275000Y-123288000D03*
X153895000Y-123288000D03*
X146275000Y-104873000D03*
X153895000Y-104873000D03*
X163420000Y-97380000D03*
X160880000Y-97380000D03*
X158340000Y-97380000D03*
X144370000Y-80870000D03*
X153885000Y-86585000D03*
X146265000Y-86585000D03*
X146275000Y-98777000D03*
X153895000Y-98777000D03*
X158340000Y-101200000D03*
X158340000Y-108820000D03*
X146275000Y-120240000D03*
X153895000Y-120240000D03*
X146275000Y-114017000D03*
X153895000Y-114017000D03*
X146275000Y-117065000D03*
X153895000Y-117065000D03*
X157070000Y-129765000D03*
X154570000Y-129765000D03*
X147825391Y-136026588D03*
X147384325Y-138528000D03*
X158848000Y-88998000D03*
X161047705Y-90268000D03*
X147427127Y-71472000D03*
X147868193Y-73973412D03*
X161047705Y-119732000D03*
X158848000Y-121002000D03*
X141830000Y-121510000D03*
X141830000Y-118970000D03*
X141830000Y-116430000D03*
X141830000Y-113890000D03*
X141830000Y-111350000D03*
X141830000Y-108810000D03*
X141830000Y-106270000D03*
X141830000Y-103730000D03*
X141830000Y-101190000D03*
X141830000Y-98650000D03*
X141830000Y-96110000D03*
X141830000Y-93570000D03*
X141830000Y-91030000D03*
X141830000Y-88490000D03*
M02*
