G04 #@! TF.GenerationSoftware,KiCad,Pcbnew,9.0.1*
G04 #@! TF.CreationDate,2025-07-21T13:37:36+02:00*
G04 #@! TF.ProjectId,mainboard,6d61696e-626f-4617-9264-2e6b69636164,rev?*
G04 #@! TF.SameCoordinates,Original*
G04 #@! TF.FileFunction,Copper,L1,Top*
G04 #@! TF.FilePolarity,Positive*
%FSLAX46Y46*%
G04 Gerber Fmt 4.6, Leading zero omitted, Abs format (unit mm)*
G04 Created by KiCad (PCBNEW 9.0.1) date 2025-07-21 13:37:36*
%MOMM*%
%LPD*%
G01*
G04 APERTURE LIST*
G04 Aperture macros list*
%AMRoundRect*
0 Rectangle with rounded corners*
0 $1 Rounding radius*
0 $2 $3 $4 $5 $6 $7 $8 $9 X,Y pos of 4 corners*
0 Add a 4 corners polygon primitive as box body*
4,1,4,$2,$3,$4,$5,$6,$7,$8,$9,$2,$3,0*
0 Add four circle primitives for the rounded corners*
1,1,$1+$1,$2,$3*
1,1,$1+$1,$4,$5*
1,1,$1+$1,$6,$7*
1,1,$1+$1,$8,$9*
0 Add four rect primitives between the rounded corners*
20,1,$1+$1,$2,$3,$4,$5,0*
20,1,$1+$1,$4,$5,$6,$7,0*
20,1,$1+$1,$6,$7,$8,$9,0*
20,1,$1+$1,$8,$9,$2,$3,0*%
G04 Aperture macros list end*
G04 #@! TA.AperFunction,SMDPad,CuDef*
%ADD10C,0.750000*%
G04 #@! TD*
G04 #@! TA.AperFunction,ComponentPad*
%ADD11O,1.800000X2.400000*%
G04 #@! TD*
G04 #@! TA.AperFunction,ComponentPad*
%ADD12R,2.400000X1.800000*%
G04 #@! TD*
G04 #@! TA.AperFunction,ComponentPad*
%ADD13O,2.400000X1.800000*%
G04 #@! TD*
G04 #@! TA.AperFunction,ComponentPad*
%ADD14R,2.400000X1.600000*%
G04 #@! TD*
G04 #@! TA.AperFunction,ComponentPad*
%ADD15O,2.400000X1.600000*%
G04 #@! TD*
G04 #@! TA.AperFunction,ComponentPad*
%ADD16C,2.000000*%
G04 #@! TD*
G04 #@! TA.AperFunction,ComponentPad*
%ADD17R,1.600000X3.048000*%
G04 #@! TD*
G04 #@! TA.AperFunction,ComponentPad*
%ADD18O,1.600000X3.048000*%
G04 #@! TD*
G04 #@! TA.AperFunction,ComponentPad*
%ADD19C,1.800000*%
G04 #@! TD*
G04 #@! TA.AperFunction,ComponentPad*
%ADD20R,1.900000X1.900000*%
G04 #@! TD*
G04 #@! TA.AperFunction,ComponentPad*
%ADD21C,1.900000*%
G04 #@! TD*
G04 #@! TA.AperFunction,ComponentPad*
%ADD22R,3.048000X1.524000*%
G04 #@! TD*
G04 #@! TA.AperFunction,ComponentPad*
%ADD23O,3.048000X1.524000*%
G04 #@! TD*
G04 #@! TA.AperFunction,ComponentPad*
%ADD24R,3.200000X3.200000*%
G04 #@! TD*
G04 #@! TA.AperFunction,ComponentPad*
%ADD25O,3.200000X3.200000*%
G04 #@! TD*
G04 #@! TA.AperFunction,ComponentPad*
%ADD26R,1.900000X2.600000*%
G04 #@! TD*
G04 #@! TA.AperFunction,ComponentPad*
%ADD27RoundRect,0.500000X-0.500000X-0.800000X0.500000X-0.800000X0.500000X0.800000X-0.500000X0.800000X0*%
G04 #@! TD*
G04 #@! TA.AperFunction,ComponentPad*
%ADD28RoundRect,0.475000X-0.475000X-0.825000X0.475000X-0.825000X0.475000X0.825000X-0.475000X0.825000X0*%
G04 #@! TD*
G04 #@! TA.AperFunction,ComponentPad*
%ADD29RoundRect,0.272988X0.677012X1.127012X-0.677012X1.127012X-0.677012X-1.127012X0.677012X-1.127012X0*%
G04 #@! TD*
G04 #@! TA.AperFunction,ComponentPad*
%ADD30O,1.900000X2.800000*%
G04 #@! TD*
G04 #@! TA.AperFunction,ViaPad*
%ADD31C,0.800000*%
G04 #@! TD*
G04 #@! TA.AperFunction,Conductor*
%ADD32C,1.250000*%
G04 #@! TD*
G04 #@! TA.AperFunction,Conductor*
%ADD33C,0.254000*%
G04 #@! TD*
G04 #@! TA.AperFunction,Conductor*
%ADD34C,0.250000*%
G04 #@! TD*
%ADD35C,0.350000*%
%ADD36O,1.100000X2.100000*%
G04 APERTURE END LIST*
D10*
G04 #@! TO.P,FID3,*
G04 #@! TO.N,*
X152000000Y-72000000D03*
G04 #@! TD*
G04 #@! TO.P,FID2,*
G04 #@! TO.N,*
X73000000Y-71500000D03*
G04 #@! TD*
G04 #@! TO.P,FID1,*
G04 #@! TO.N,*
X70000000Y-141000000D03*
G04 #@! TD*
D11*
G04 #@! TO.P,R11,1*
G04 #@! TO.N,/TXD_BT*
X124200000Y-73400000D03*
G04 #@! TO.P,R11,2*
G04 #@! TO.N,/TXD*
X124200000Y-80220000D03*
G04 #@! TD*
D12*
G04 #@! TO.P,S3,1,1*
G04 #@! TO.N,/FUNCTION_SELECT*
X78150000Y-68450000D03*
D13*
G04 #@! TO.P,S3,2,1*
G04 #@! TO.N,Net-(R2-Pad1)*
X78150000Y-70990000D03*
G04 #@! TO.P,S3,3,1*
G04 #@! TO.N,Net-(R3-Pad1)*
X78150000Y-73530000D03*
G04 #@! TO.P,S3,4,1*
G04 #@! TO.N,Net-(R4-Pad1)*
X78150000Y-76070000D03*
G04 #@! TO.P,S3,5,2*
G04 #@! TO.N,Net-(R5-Pad2)*
X85770000Y-76070000D03*
G04 #@! TO.P,S3,6,2*
G04 #@! TO.N,Net-(R4-Pad1)*
X85770000Y-73530000D03*
G04 #@! TO.P,S3,7,2*
G04 #@! TO.N,Net-(R3-Pad1)*
X85770000Y-70990000D03*
G04 #@! TO.P,S3,8,2*
G04 #@! TO.N,Net-(R2-Pad1)*
X85770000Y-68450000D03*
G04 #@! TD*
D14*
G04 #@! TO.P,IC1,1*
G04 #@! TO.N,/LEFT_A*
X125175000Y-83400000D03*
D15*
G04 #@! TO.P,IC1,2*
G04 #@! TO.N,/LEFT_B*
X125175000Y-85940000D03*
G04 #@! TO.P,IC1,3*
G04 #@! TO.N,/LEFT_CLK_A*
X125175000Y-88480000D03*
G04 #@! TO.P,IC1,4*
G04 #@! TO.N,/RIGHT_A*
X125175000Y-91020000D03*
G04 #@! TO.P,IC1,5*
G04 #@! TO.N,/RIGHT_B*
X125175000Y-93560000D03*
G04 #@! TO.P,IC1,6*
G04 #@! TO.N,/RIGHT_CLK_A*
X125175000Y-96100000D03*
G04 #@! TO.P,IC1,7,GND*
G04 #@! TO.N,GND*
X125175000Y-98640000D03*
G04 #@! TO.P,IC1,8*
G04 #@! TO.N,/{slash}LEFT_DIR*
X132795000Y-98640000D03*
G04 #@! TO.P,IC1,9*
G04 #@! TO.N,5V*
X132795000Y-96100000D03*
G04 #@! TO.P,IC1,10*
G04 #@! TO.N,/LEFT_DIR*
X132795000Y-93560000D03*
G04 #@! TO.P,IC1,11*
G04 #@! TO.N,/{slash}RIGHT_DIR*
X132795000Y-91020000D03*
G04 #@! TO.P,IC1,12*
G04 #@! TO.N,5V*
X132795000Y-88480000D03*
G04 #@! TO.P,IC1,13*
G04 #@! TO.N,/RIGHT_DIR*
X132795000Y-85940000D03*
G04 #@! TO.P,IC1,14,VCC*
G04 #@! TO.N,5V*
X132795000Y-83400000D03*
G04 #@! TD*
D16*
G04 #@! TO.P,S2,1,1*
G04 #@! TO.N,/FUNCTION_SELECT*
X70628800Y-74502400D03*
G04 #@! TO.P,S2,2,2*
X70628800Y-68000000D03*
G04 #@! TO.P,S2,3,3*
G04 #@! TO.N,5V*
X75150000Y-74502400D03*
G04 #@! TO.P,S2,4,4*
X75150000Y-68000000D03*
G04 #@! TD*
D11*
G04 #@! TO.P,R4,1*
G04 #@! TO.N,Net-(R4-Pad1)*
X70600000Y-113150000D03*
G04 #@! TO.P,R4,2*
G04 #@! TO.N,Net-(R3-Pad1)*
X70600000Y-106330000D03*
G04 #@! TD*
G04 #@! TO.P,R2,1*
G04 #@! TO.N,Net-(R2-Pad1)*
X72400000Y-94150000D03*
G04 #@! TO.P,R2,2*
G04 #@! TO.N,/FUNCTION_SELECT*
X72400000Y-87330000D03*
G04 #@! TD*
G04 #@! TO.P,R1,1*
G04 #@! TO.N,/FUNCTION_SELECT*
X72400000Y-84600000D03*
G04 #@! TO.P,R1,2*
G04 #@! TO.N,5V*
X72400000Y-77780000D03*
G04 #@! TD*
D13*
G04 #@! TO.P,R8,1*
G04 #@! TO.N,GND*
X133600000Y-78000000D03*
G04 #@! TO.P,R8,2*
G04 #@! TO.N,/BATTERY_VOLTS*
X126780000Y-78000000D03*
G04 #@! TD*
D14*
G04 #@! TO.P,U1,1,D1/TX*
G04 #@! TO.N,/TXD*
X121630000Y-75780000D03*
D15*
G04 #@! TO.P,U1,2,D0/RX*
G04 #@! TO.N,/RXD*
X121630000Y-78320000D03*
G04 #@! TO.P,U1,3,~{RESET}*
G04 #@! TO.N,unconnected-(U1-Pad3)*
X121630000Y-80860000D03*
G04 #@! TO.P,U1,4,GND*
G04 #@! TO.N,GND*
X121630000Y-83400000D03*
G04 #@! TO.P,U1,5,D2*
G04 #@! TO.N,/LEFT_CLK_A*
X121630000Y-85940000D03*
G04 #@! TO.P,U1,6,~D3*
G04 #@! TO.N,/RIGHT_CLK_A*
X121630000Y-88480000D03*
G04 #@! TO.P,U1,7,D4*
G04 #@! TO.N,/LEFT_B*
X121630000Y-91020000D03*
G04 #@! TO.P,U1,8,~D5*
G04 #@! TO.N,/RIGHT_B*
X121630000Y-93560000D03*
G04 #@! TO.P,U1,9,~D6*
G04 #@! TO.N,/USER_IO*
X121630000Y-96100000D03*
G04 #@! TO.P,U1,10,D7*
G04 #@! TO.N,/LEFT_DIR*
X121630000Y-98640000D03*
G04 #@! TO.P,U1,11,D8*
G04 #@! TO.N,/RIGHT_DIR*
X121630000Y-101180000D03*
G04 #@! TO.P,U1,12,~D9*
G04 #@! TO.N,/LEFT_PWM*
X121630000Y-103720000D03*
G04 #@! TO.P,U1,13,~D10*
G04 #@! TO.N,/RIGHT_PWM*
X121630000Y-106260000D03*
G04 #@! TO.P,U1,14,~D11*
G04 #@! TO.N,/EMITTER_A*
X121630000Y-108800000D03*
G04 #@! TO.P,U1,15,D12*
G04 #@! TO.N,/EMITTER_B*
X121630000Y-111340000D03*
G04 #@! TO.P,U1,16,D13*
G04 #@! TO.N,/D13*
X136870000Y-111340000D03*
G04 #@! TO.P,U1,17,3V3*
G04 #@! TO.N,/3V3*
X136870000Y-108800000D03*
G04 #@! TO.P,U1,18,AREF*
G04 #@! TO.N,unconnected-(U1-Pad18)*
X136870000Y-106260000D03*
G04 #@! TO.P,U1,19,A0/D14*
G04 #@! TO.N,/SENSOR_0*
X136870000Y-103720000D03*
G04 #@! TO.P,U1,20,A1/D15*
G04 #@! TO.N,/SENSOR_1*
X136870000Y-101180000D03*
G04 #@! TO.P,U1,21,A2/D16*
G04 #@! TO.N,/SENSOR_2*
X136870000Y-98640000D03*
G04 #@! TO.P,U1,22,A3/D17*
G04 #@! TO.N,/SENSOR_3*
X136870000Y-96100000D03*
G04 #@! TO.P,U1,23,A4/D18*
G04 #@! TO.N,/SENSOR_4*
X136870000Y-93560000D03*
G04 #@! TO.P,U1,24,A5/D19*
G04 #@! TO.N,/SENSOR_5*
X136870000Y-91020000D03*
G04 #@! TO.P,U1,25,A6/D20*
G04 #@! TO.N,/FUNCTION_SELECT*
X136870000Y-88480000D03*
G04 #@! TO.P,U1,26,A7/D21*
G04 #@! TO.N,/BATTERY_VOLTS*
X136870000Y-85940000D03*
G04 #@! TO.P,U1,27,+5V*
G04 #@! TO.N,5V*
X136870000Y-83400000D03*
G04 #@! TO.P,U1,28,~{RESET}*
G04 #@! TO.N,unconnected-(U1-Pad28)*
X136870000Y-80860000D03*
G04 #@! TO.P,U1,29,GND*
G04 #@! TO.N,GND*
X136870000Y-78320000D03*
G04 #@! TO.P,U1,30,VIN*
G04 #@! TO.N,/V_BATT*
X136870000Y-75780000D03*
G04 #@! TD*
D17*
G04 #@! TO.P,J5,1,1*
G04 #@! TO.N,5V*
X134810000Y-69750000D03*
D18*
G04 #@! TO.P,J5,2,2*
G04 #@! TO.N,GND*
X132270000Y-69496000D03*
G04 #@! TO.P,J5,3,3*
G04 #@! TO.N,/RXD_BT*
X129730000Y-69750000D03*
G04 #@! TO.P,J5,4,4*
G04 #@! TO.N,/TXD_BT*
X127190000Y-69496000D03*
G04 #@! TD*
D19*
G04 #@! TO.P,C1,1*
G04 #@! TO.N,5V*
X131150000Y-80500000D03*
G04 #@! TO.P,C1,2*
G04 #@! TO.N,GND*
X133650000Y-80500000D03*
G04 #@! TD*
D20*
G04 #@! TO.P,D3,1,K*
G04 #@! TO.N,/RXD_BT*
X117000000Y-93010000D03*
D21*
G04 #@! TO.P,D3,2,A*
G04 #@! TO.N,/RXD*
X117000000Y-85390000D03*
G04 #@! TD*
D20*
G04 #@! TO.P,C2,1*
G04 #@! TO.N,/V_BATT*
X127227651Y-140725000D03*
D21*
G04 #@! TO.P,C2,2*
G04 #@! TO.N,GND*
X124727651Y-140725000D03*
G04 #@! TD*
D22*
G04 #@! TO.P,J3,1,1*
G04 #@! TO.N,GND*
X93877000Y-88500000D03*
D23*
G04 #@! TO.P,J3,2,2*
G04 #@! TO.N,/LEFT_A*
X93623000Y-91040000D03*
G04 #@! TO.P,J3,3,3*
G04 #@! TO.N,/LEFT_B*
X93877000Y-93580000D03*
G04 #@! TO.P,J3,4,4*
G04 #@! TO.N,5V*
X93623000Y-96120000D03*
G04 #@! TO.P,J3,5,5*
G04 #@! TO.N,/LEFT_MOTOR_1*
X93877000Y-98660000D03*
G04 #@! TO.P,J3,6,6*
G04 #@! TO.N,/LEFT_MOTOR_2*
X93623000Y-101200000D03*
G04 #@! TD*
D20*
G04 #@! TO.P,C3,1*
G04 #@! TO.N,5V*
X136027651Y-140725000D03*
D21*
G04 #@! TO.P,C3,2*
G04 #@! TO.N,GND*
X133527651Y-140725000D03*
G04 #@! TD*
D24*
G04 #@! TO.P,D1,1,K*
G04 #@! TO.N,/V_BATT*
X117000000Y-112620000D03*
D25*
G04 #@! TO.P,D1,2,A*
G04 #@! TO.N,/SW_PWR*
X117000000Y-97380000D03*
G04 #@! TD*
D22*
G04 #@! TO.P,J1,1,1*
G04 #@! TO.N,/3V3*
X141877000Y-121500000D03*
D23*
G04 #@! TO.P,J1,2,2*
G04 #@! TO.N,5V*
X142131000Y-118960000D03*
G04 #@! TO.P,J1,3,3*
G04 #@! TO.N,GND*
X141877000Y-116420000D03*
G04 #@! TO.P,J1,4,4*
G04 #@! TO.N,/USER_IO*
X142131000Y-113880000D03*
G04 #@! TO.P,J1,5,5*
G04 #@! TO.N,/EMITTER_B*
X141877000Y-111340000D03*
G04 #@! TO.P,J1,6,6*
G04 #@! TO.N,/EMITTER_A*
X142131000Y-108800000D03*
G04 #@! TO.P,J1,7,7*
G04 #@! TO.N,/SENSOR_0*
X141877000Y-106260000D03*
G04 #@! TO.P,J1,8,8*
G04 #@! TO.N,/SENSOR_1*
X142131000Y-103720000D03*
G04 #@! TO.P,J1,9,9*
G04 #@! TO.N,/SENSOR_2*
X141877000Y-101180000D03*
G04 #@! TO.P,J1,10,10*
G04 #@! TO.N,/SENSOR_3*
X142131000Y-98640000D03*
G04 #@! TO.P,J1,11,11*
G04 #@! TO.N,/SENSOR_4*
X141877000Y-96100000D03*
G04 #@! TO.P,J1,12,12*
G04 #@! TO.N,/SENSOR_5*
X142131000Y-93560000D03*
G04 #@! TO.P,J1,13,13*
G04 #@! TO.N,GND*
X141877000Y-91020000D03*
G04 #@! TO.P,J1,14,14*
G04 #@! TO.N,5V*
X142131000Y-88480000D03*
G04 #@! TD*
D11*
G04 #@! TO.P,R3,1*
G04 #@! TO.N,Net-(R3-Pad1)*
X70600000Y-103650000D03*
G04 #@! TO.P,R3,2*
G04 #@! TO.N,Net-(R2-Pad1)*
X70600000Y-96830000D03*
G04 #@! TD*
D13*
G04 #@! TO.P,R10,1*
G04 #@! TO.N,/TXD_BT*
X126800000Y-73000000D03*
G04 #@! TO.P,R10,2*
G04 #@! TO.N,GND*
X133620000Y-73000000D03*
G04 #@! TD*
D11*
G04 #@! TO.P,R6,1*
G04 #@! TO.N,GND*
X72400000Y-132150000D03*
G04 #@! TO.P,R6,2*
G04 #@! TO.N,Net-(R5-Pad2)*
X72400000Y-125330000D03*
G04 #@! TD*
D22*
G04 #@! TO.P,J2,1,1*
G04 #@! TO.N,GND*
X93750000Y-108750000D03*
D23*
G04 #@! TO.P,J2,2,2*
G04 #@! TO.N,/RIGHT_A*
X93496000Y-111290000D03*
G04 #@! TO.P,J2,3,3*
G04 #@! TO.N,/RIGHT_B*
X93750000Y-113830000D03*
G04 #@! TO.P,J2,4,4*
G04 #@! TO.N,5V*
X93496000Y-116370000D03*
G04 #@! TO.P,J2,5,5*
G04 #@! TO.N,/RIGHT_MOTOR_2*
X93750000Y-118910000D03*
G04 #@! TO.P,J2,6,6*
G04 #@! TO.N,/RIGHT_MOTOR_1*
X93496000Y-121450000D03*
G04 #@! TD*
D15*
G04 #@! TO.P,U2,1,VM*
G04 #@! TO.N,/V_BATT*
X121580000Y-116910000D03*
G04 #@! TO.P,U2,2,VCC*
G04 #@! TO.N,5V*
X121580000Y-119450000D03*
G04 #@! TO.P,U2,3,GND*
G04 #@! TO.N,GND*
X121580000Y-121990000D03*
G04 #@! TO.P,U2,4,A01*
G04 #@! TO.N,/LEFT_MOTOR_1*
X121580000Y-124530000D03*
G04 #@! TO.P,U2,5,A02*
G04 #@! TO.N,/LEFT_MOTOR_2*
X121580000Y-127070000D03*
G04 #@! TO.P,U2,6,B02*
G04 #@! TO.N,/RIGHT_MOTOR_2*
X121580000Y-129610000D03*
G04 #@! TO.P,U2,7,B01*
G04 #@! TO.N,/RIGHT_MOTOR_1*
X121580000Y-132150000D03*
G04 #@! TO.P,U2,8,GND*
G04 #@! TO.N,GND*
X121580000Y-134690000D03*
G04 #@! TO.P,U2,9,GND*
X136820000Y-134690000D03*
G04 #@! TO.P,U2,10,PWMB*
G04 #@! TO.N,/RIGHT_PWM*
X136820000Y-132150000D03*
G04 #@! TO.P,U2,11,BI2*
G04 #@! TO.N,/RIGHT_DIR*
X136820000Y-129610000D03*
G04 #@! TO.P,U2,12,BI1*
G04 #@! TO.N,/{slash}RIGHT_DIR*
X136820000Y-127070000D03*
G04 #@! TO.P,U2,13,STBY*
G04 #@! TO.N,5V*
X136820000Y-124530000D03*
G04 #@! TO.P,U2,14,AI1*
G04 #@! TO.N,/LEFT_DIR*
X136820000Y-121990000D03*
G04 #@! TO.P,U2,15,AI2*
G04 #@! TO.N,/{slash}LEFT_DIR*
X136820000Y-119450000D03*
G04 #@! TO.P,U2,16,PWMA*
G04 #@! TO.N,/LEFT_PWM*
X136820000Y-116910000D03*
G04 #@! TD*
D11*
G04 #@! TO.P,R5,1*
G04 #@! TO.N,Net-(R4-Pad1)*
X72400000Y-115800000D03*
G04 #@! TO.P,R5,2*
G04 #@! TO.N,Net-(R5-Pad2)*
X72400000Y-122620000D03*
G04 #@! TD*
D13*
G04 #@! TO.P,R7,1*
G04 #@! TO.N,/BATTERY_VOLTS*
X126800000Y-75500000D03*
G04 #@! TO.P,R7,2*
G04 #@! TO.N,/V_BATT*
X133620000Y-75500000D03*
G04 #@! TD*
D26*
G04 #@! TO.P,S1,1,O*
G04 #@! TO.N,unconnected-(S1-Pad1)*
X75700000Y-140944724D03*
D27*
X74200000Y-140944724D03*
D26*
G04 #@! TO.P,S1,2,P*
G04 #@! TO.N,/PWR_IN*
X78200000Y-140944724D03*
D28*
G04 #@! TO.P,S1,3,S*
G04 #@! TO.N,/SW_PWR*
X82200000Y-140944724D03*
D26*
X80700000Y-140944724D03*
G04 #@! TD*
D29*
G04 #@! TO.P,J4,1,Pin_1*
G04 #@! TO.N,GND*
X80800000Y-133850000D03*
D30*
G04 #@! TO.P,J4,2,Pin_2*
G04 #@! TO.N,/PWR_IN*
X78260000Y-133850000D03*
G04 #@! TD*
D31*
G04 #@! TO.N,5V*
X82500000Y-83500000D03*
X89500000Y-106750000D03*
X89500000Y-103750000D03*
X79250000Y-83500000D03*
G04 #@! TO.N,/V_BATT*
X127250000Y-121050000D03*
X127250000Y-116900000D03*
G04 #@! TO.N,/LEFT_A*
X119250000Y-82450000D03*
G04 #@! TO.N,/LEFT_DIR*
X132500000Y-104000000D03*
X128500000Y-104000000D03*
G04 #@! TO.N,/{slash}RIGHT_DIR*
X138500000Y-123200000D03*
G04 #@! TO.N,/RIGHT_DIR*
X126000000Y-129500000D03*
X127700000Y-85300000D03*
X130500000Y-129500000D03*
G04 #@! TO.N,/USER_IO*
X130726500Y-89700000D03*
X127250000Y-89700000D03*
G04 #@! TO.N,/EMITTER_B*
X128500000Y-110000000D03*
X132500000Y-110000000D03*
G04 #@! TO.N,/EMITTER_A*
X132500000Y-107000000D03*
X128500000Y-107000000D03*
G04 #@! TO.N,/LEFT_MOTOR_1*
X114000000Y-107750000D03*
X114000000Y-103750000D03*
G04 #@! TO.N,/LEFT_MOTOR_2*
X112400000Y-107750000D03*
X112400000Y-103750000D03*
G04 #@! TO.N,/RIGHT_MOTOR_2*
X111750000Y-120000000D03*
G04 #@! TO.N,/RIGHT_MOTOR_1*
X112450000Y-123850000D03*
G04 #@! TO.N,/FUNCTION_SELECT*
X130726500Y-87200000D03*
X127250000Y-87200000D03*
G04 #@! TO.N,Net-(R3-Pad1)*
X80950000Y-73550000D03*
G04 #@! TO.N,/BATTERY_VOLTS*
X127750000Y-83500000D03*
X130800000Y-83500000D03*
G04 #@! TO.N,/LEFT_PWM*
X128500000Y-113000000D03*
X132500000Y-113000000D03*
G04 #@! TO.N,/RIGHT_PWM*
X125250000Y-132000002D03*
X130500000Y-132000000D03*
G04 #@! TO.N,Net-(R4-Pad1)*
X82200000Y-74950000D03*
G04 #@! TD*
D32*
G04 #@! TO.N,5V*
X93623000Y-96120000D02*
X89630000Y-96120000D01*
X72400000Y-77380000D02*
X75120000Y-77380000D01*
D33*
X130000000Y-81650000D02*
X131150000Y-80500000D01*
D32*
X75150000Y-68000000D02*
X75150000Y-74502400D01*
X134810000Y-71021903D02*
X138900000Y-75111903D01*
X132795000Y-82145000D02*
X132795000Y-83400000D01*
X142131000Y-86631000D02*
X138900000Y-83400000D01*
X75150000Y-77350000D02*
X75150000Y-74502400D01*
X142783000Y-124530000D02*
X144226000Y-123087000D01*
X145201501Y-90300501D02*
X143381000Y-88480000D01*
D33*
X134400000Y-93000000D02*
X133800000Y-92400000D01*
D32*
X134810000Y-69750000D02*
X134810000Y-71021903D01*
X89500000Y-115000000D02*
X89500000Y-106750000D01*
D33*
X130120000Y-88480000D02*
X130000000Y-88600000D01*
D32*
X143381000Y-88480000D02*
X142131000Y-88480000D01*
D33*
X130000000Y-88600000D02*
X130000000Y-81650000D01*
D32*
X129050000Y-132500000D02*
X129050000Y-124800000D01*
D33*
X130000000Y-91600000D02*
X130000000Y-88600000D01*
D32*
X129050000Y-124800000D02*
X129050000Y-120500000D01*
X77750000Y-83500000D02*
X75120000Y-80870000D01*
X129320000Y-124530000D02*
X129050000Y-124800000D01*
X136027651Y-139477651D02*
X129050000Y-132500000D01*
X142131000Y-88480000D02*
X142131000Y-86631000D01*
D33*
X134400000Y-95000000D02*
X134400000Y-93000000D01*
D32*
X93496000Y-116370000D02*
X90870000Y-116370000D01*
X89630000Y-96120000D02*
X85370000Y-96120000D01*
X136870000Y-83400000D02*
X133520000Y-83400000D01*
X129050000Y-120500000D02*
X128000000Y-119450000D01*
X89500000Y-96250000D02*
X89630000Y-96120000D01*
X89500000Y-103750000D02*
X89500000Y-96250000D01*
D33*
X130800000Y-92400000D02*
X130000000Y-91600000D01*
D32*
X144226000Y-123087000D02*
X144226000Y-119805000D01*
X145201501Y-117139499D02*
X145201501Y-90300501D01*
X79250000Y-83500000D02*
X77750000Y-83500000D01*
X75120000Y-77380000D02*
X75150000Y-77350000D01*
X143381000Y-118960000D02*
X145201501Y-117139499D01*
X131150000Y-80500000D02*
X132795000Y-82145000D01*
X138900000Y-83400000D02*
X136870000Y-83400000D01*
X85370000Y-96120000D02*
X82500000Y-93250000D01*
X138900000Y-75111903D02*
X138900000Y-83400000D01*
X143381000Y-118960000D02*
X142131000Y-118960000D01*
X144226000Y-119805000D02*
X143381000Y-118960000D01*
X89500000Y-115000000D02*
X90870000Y-116370000D01*
X75120000Y-80870000D02*
X75120000Y-77380000D01*
D33*
X133800000Y-92400000D02*
X130800000Y-92400000D01*
D32*
X136820000Y-124530000D02*
X129320000Y-124530000D01*
D33*
X132795000Y-88480000D02*
X130120000Y-88480000D01*
D32*
X136027651Y-140725000D02*
X136027651Y-139477651D01*
X136820000Y-124530000D02*
X142783000Y-124530000D01*
D33*
X133300000Y-96100000D02*
X134400000Y-95000000D01*
D32*
X128000000Y-119450000D02*
X121580000Y-119450000D01*
X82500000Y-93250000D02*
X82500000Y-83500000D01*
G04 #@! TO.N,/V_BATT*
X127227651Y-140725000D02*
X127227651Y-121072349D01*
X127227651Y-121072349D02*
X127250000Y-121050000D01*
X127350000Y-116900000D02*
X127250000Y-116900000D01*
X131250000Y-75500000D02*
X134020000Y-75500000D01*
X129744997Y-114505003D02*
X129744997Y-101404003D01*
X129744997Y-101404003D02*
X129824500Y-101324500D01*
X129744997Y-114505003D02*
X127350000Y-116900000D01*
X129824500Y-101324500D02*
X129000000Y-100500000D01*
X136870000Y-75780000D02*
X134300000Y-75780000D01*
X129000000Y-82250000D02*
X129000000Y-77750000D01*
X117000000Y-112620000D02*
X117000000Y-115000000D01*
X118910000Y-116910000D02*
X121580000Y-116910000D01*
X117000000Y-115000000D02*
X118910000Y-116910000D01*
X127240000Y-116910000D02*
X127250000Y-116900000D01*
X134300000Y-75780000D02*
X134020000Y-75500000D01*
X129000000Y-100500000D02*
X129000000Y-82250000D01*
X121580000Y-116910000D02*
X127240000Y-116910000D01*
X129000000Y-77750000D02*
X131250000Y-75500000D01*
D33*
G04 #@! TO.N,/LEFT_A*
X96300000Y-92700000D02*
X96300000Y-97700000D01*
X96300000Y-97700000D02*
X98000000Y-99400000D01*
D34*
X101200000Y-99400000D02*
X111621948Y-99400000D01*
X116016449Y-95005499D02*
X118080191Y-95005499D01*
X118949501Y-82750499D02*
X119250000Y-82450000D01*
D33*
X94640000Y-91040000D02*
X96300000Y-92700000D01*
D34*
X118080191Y-95005499D02*
X118949501Y-94136189D01*
D33*
X98000000Y-99400000D02*
X101200000Y-99400000D01*
X93623000Y-91040000D02*
X94640000Y-91040000D01*
D34*
X111621948Y-99400000D02*
X116016449Y-95005499D01*
X118949501Y-94136189D02*
X118949501Y-82750499D01*
G04 #@! TO.N,/LEFT_B*
X97812983Y-99851501D02*
X111806137Y-99851501D01*
X116202638Y-95455000D02*
X118266380Y-95455000D01*
X120000000Y-89390000D02*
X120000000Y-85500000D01*
X123910000Y-84675000D02*
X125175000Y-85940000D01*
X120000000Y-85500000D02*
X120825000Y-84675000D01*
X95848499Y-97887017D02*
X97812983Y-99851501D01*
X120825000Y-84675000D02*
X123910000Y-84675000D01*
X121630000Y-91020000D02*
X120000000Y-89390000D01*
X119399002Y-94322378D02*
X119399002Y-92850998D01*
X118266380Y-95455000D02*
X119399002Y-94322378D01*
X94780000Y-93580000D02*
X95848499Y-94648499D01*
X95848499Y-94648499D02*
X95848499Y-97887017D01*
X111806137Y-99851501D02*
X116202638Y-95455000D01*
X93877000Y-93580000D02*
X94780000Y-93580000D01*
X119399002Y-92850998D02*
X121230000Y-91020000D01*
G04 #@! TO.N,/LEFT_CLK_A*
X122635000Y-85940000D02*
X125175000Y-88480000D01*
G04 #@! TO.N,/RIGHT_A*
X119848503Y-93037187D02*
X120635690Y-92250000D01*
X118925000Y-104803620D02*
X118925000Y-95432070D01*
X118925000Y-95432070D02*
X119848503Y-94508567D01*
X119848503Y-94508567D02*
X119848503Y-93037187D01*
D33*
X95300000Y-111300000D02*
X95900000Y-110700000D01*
X97348499Y-106151501D02*
X117577119Y-106151501D01*
X95900000Y-110700000D02*
X95900000Y-107600000D01*
X95290000Y-111290000D02*
X95300000Y-111300000D01*
X93496000Y-111290000D02*
X95290000Y-111290000D01*
D34*
X123945000Y-92250000D02*
X125175000Y-91020000D01*
X118014310Y-105714310D02*
X118925000Y-104803620D01*
D33*
X95900000Y-107600000D02*
X97348499Y-106151501D01*
D34*
X120635690Y-92250000D02*
X123945000Y-92250000D01*
D33*
X117577119Y-106151501D02*
X118014310Y-105714310D01*
D34*
G04 #@! TO.N,/RIGHT_B*
X117563811Y-106800499D02*
X117761308Y-106603002D01*
X96400000Y-107800000D02*
X97399501Y-106800499D01*
X118465811Y-105901327D02*
X118465811Y-105898499D01*
X93750000Y-113830000D02*
X94512000Y-113830000D01*
X119550499Y-104813811D02*
X119550499Y-95639501D01*
X117764136Y-106603002D02*
X118465811Y-105901327D01*
X96400000Y-111942000D02*
X96400000Y-107800000D01*
X117761308Y-106603002D02*
X117764136Y-106603002D01*
X119550499Y-95639501D02*
X121630000Y-93560000D01*
X94512000Y-113830000D02*
X96400000Y-111942000D01*
X97399501Y-106800499D02*
X117563811Y-106800499D01*
X118465811Y-105898499D02*
X119550499Y-104813811D01*
X121630000Y-93560000D02*
X125175000Y-93560000D01*
G04 #@! TO.N,/RIGHT_CLK_A*
X122900000Y-89750000D02*
X126000000Y-89750000D01*
X126000000Y-89750000D02*
X126700000Y-90450000D01*
X121630000Y-88480000D02*
X122900000Y-89750000D01*
X126700000Y-95350000D02*
X125950000Y-96100000D01*
X126700000Y-90450000D02*
X126700000Y-95350000D01*
D33*
G04 #@! TO.N,/{slash}LEFT_DIR*
X133226500Y-104488759D02*
X131150498Y-106564761D01*
X131150498Y-106564761D02*
X131150498Y-114180498D01*
X132110000Y-98640000D02*
X133226500Y-99756500D01*
X131150498Y-114180498D02*
X136420000Y-119450000D01*
X133226500Y-99756500D02*
X133226500Y-104488759D01*
G04 #@! TO.N,/LEFT_DIR*
X130696997Y-114899334D02*
X130696997Y-104753003D01*
X136420000Y-121990000D02*
X130696499Y-116266499D01*
X121630000Y-98640000D02*
X127490000Y-104500000D01*
X130696997Y-104753003D02*
X131450000Y-104000000D01*
X131000000Y-99000000D02*
X131000000Y-95049000D01*
X132500000Y-100500000D02*
X131000000Y-99000000D01*
X128000000Y-104500000D02*
X128500000Y-104000000D01*
X127490000Y-104500000D02*
X128000000Y-104500000D01*
X130696499Y-116266499D02*
X130696499Y-114899832D01*
X132500000Y-104000000D02*
X132500000Y-100500000D01*
X131000000Y-95049000D02*
X132489000Y-93560000D01*
X131450000Y-104000000D02*
X132500000Y-104000000D01*
X130696499Y-114899832D02*
X130696997Y-114899334D01*
G04 #@! TO.N,/{slash}RIGHT_DIR*
X132795000Y-91020000D02*
X134249000Y-91020000D01*
X131603999Y-110652090D02*
X134951909Y-114000000D01*
X138500000Y-115500000D02*
X138500000Y-123200000D01*
X134953501Y-91724501D02*
X134953501Y-103546499D01*
X134249000Y-91020000D02*
X134953501Y-91724501D01*
X134953501Y-103546499D02*
X132227000Y-106273000D01*
X132227000Y-106273000D02*
X132198867Y-106273000D01*
X137000000Y-114000000D02*
X138500000Y-115500000D01*
X134951909Y-114000000D02*
X137000000Y-114000000D01*
X131603999Y-106867868D02*
X131603999Y-110652090D01*
X132198867Y-106273000D02*
X131603999Y-106867868D01*
D34*
G04 #@! TO.N,/RIGHT_DIR*
X127700000Y-85300000D02*
X127700000Y-86100000D01*
X126096481Y-99765000D02*
X123915000Y-99765000D01*
X123500000Y-132150000D02*
X123500000Y-123750000D01*
X120000000Y-102410000D02*
X121230000Y-101180000D01*
X123915000Y-99765000D02*
X123400000Y-99250000D01*
X124074502Y-132724502D02*
X123500000Y-132150000D01*
X127700000Y-86100000D02*
X127974500Y-86374500D01*
X123400000Y-99250000D02*
X123400000Y-98150000D01*
X114500000Y-110502828D02*
X120000000Y-105002828D01*
X136820000Y-129610000D02*
X130610000Y-129610000D01*
X120000000Y-98000000D02*
X120000000Y-99550000D01*
X130610000Y-129610000D02*
X130500000Y-129500000D01*
X127974500Y-86374500D02*
X127974500Y-97886981D01*
X123400000Y-98150000D02*
X122600000Y-97350000D01*
X125550098Y-132724502D02*
X124074502Y-132724502D01*
X127974500Y-97886981D02*
X126096481Y-99765000D01*
X120750000Y-123250000D02*
X114500000Y-117000000D01*
X120000000Y-99550000D02*
X121630000Y-101180000D01*
X126000000Y-132274600D02*
X125550098Y-132724502D01*
X123500000Y-123750000D02*
X123000000Y-123250000D01*
X120650000Y-97350000D02*
X120000000Y-98000000D01*
X126000000Y-129500000D02*
X126000000Y-132274600D01*
X120000000Y-105002828D02*
X120000000Y-102410000D01*
X122600000Y-97350000D02*
X120650000Y-97350000D01*
X114500000Y-117000000D02*
X114500000Y-110502828D01*
X123000000Y-123250000D02*
X120750000Y-123250000D01*
D32*
G04 #@! TO.N,/3V3*
X141115000Y-121500000D02*
X139451501Y-119836501D01*
X139451501Y-110981501D02*
X137270000Y-108800000D01*
X139451501Y-119836501D02*
X139451501Y-110981501D01*
D33*
G04 #@! TO.N,/USER_IO*
X123330000Y-97400000D02*
X126400000Y-97400000D01*
X142131000Y-113880000D02*
X144250000Y-111761000D01*
X127250000Y-96550000D02*
X127250000Y-89700000D01*
X126400000Y-97400000D02*
X127250000Y-96550000D01*
X144250000Y-91000000D02*
X142950000Y-89700000D01*
X142950000Y-89700000D02*
X130726500Y-89700000D01*
X122030000Y-96100000D02*
X123330000Y-97400000D01*
X144250000Y-111761000D02*
X144250000Y-91000000D01*
G04 #@! TO.N,/EMITTER_B*
X141877000Y-111340000D02*
X138037000Y-107500000D01*
X138037000Y-107500000D02*
X135650000Y-107500000D01*
X121630000Y-111340000D02*
X127160000Y-111340000D01*
X133150000Y-110000000D02*
X132500000Y-110000000D01*
X127160000Y-111340000D02*
X128500000Y-110000000D01*
X135650000Y-107500000D02*
X133150000Y-110000000D01*
G04 #@! TO.N,/EMITTER_A*
X121630000Y-108800000D02*
X126700000Y-108800000D01*
X141600000Y-108800000D02*
X137700000Y-104900000D01*
X126700000Y-108800000D02*
X128500000Y-107000000D01*
X135600000Y-104900000D02*
X133500000Y-107000000D01*
X133500000Y-107000000D02*
X132500000Y-107000000D01*
X137700000Y-104900000D02*
X135600000Y-104900000D01*
D34*
G04 #@! TO.N,/SENSOR_0*
X137270000Y-103720000D02*
X138570000Y-103720000D01*
X138570000Y-103720000D02*
X141110000Y-106260000D01*
G04 #@! TO.N,/SENSOR_1*
X136870000Y-101180000D02*
X138630000Y-101180000D01*
X138630000Y-101180000D02*
X141170000Y-103720000D01*
G04 #@! TO.N,/SENSOR_2*
X136870000Y-98640000D02*
X138690000Y-98640000D01*
X138690000Y-98640000D02*
X141230000Y-101180000D01*
G04 #@! TO.N,/SENSOR_3*
X138650000Y-96100000D02*
X141190000Y-98640000D01*
X136870000Y-96100000D02*
X138650000Y-96100000D01*
G04 #@! TO.N,/SENSOR_4*
X136870000Y-93560000D02*
X138560000Y-93560000D01*
X138560000Y-93560000D02*
X141100000Y-96100000D01*
G04 #@! TO.N,/SENSOR_5*
X138570000Y-91020000D02*
X141110000Y-93560000D01*
X136870000Y-91020000D02*
X138570000Y-91020000D01*
D32*
G04 #@! TO.N,/LEFT_MOTOR_1*
X96780002Y-100801002D02*
X112801002Y-100801002D01*
X112801002Y-100801002D02*
X114000000Y-102000000D01*
X114000000Y-102000000D02*
X114000000Y-103750000D01*
X114000000Y-108250000D02*
X114000000Y-107750000D01*
X93877000Y-98660000D02*
X94639000Y-98660000D01*
X121180000Y-124530000D02*
X120551513Y-124530000D01*
X120551513Y-124530000D02*
X113000000Y-116978487D01*
X113000000Y-116978487D02*
X113000000Y-109250000D01*
X113000000Y-109250000D02*
X114000000Y-108250000D01*
X94639000Y-98660000D02*
X96780002Y-100801002D01*
G04 #@! TO.N,/LEFT_MOTOR_2*
X111550499Y-108599501D02*
X112400000Y-107750000D01*
X95785000Y-102600000D02*
X111250000Y-102600000D01*
X111550499Y-117578891D02*
X111550499Y-108599501D01*
X94385000Y-101200000D02*
X95785000Y-102600000D01*
X111250000Y-102600000D02*
X112400000Y-103750000D01*
X121041608Y-127070000D02*
X111550499Y-117578891D01*
G04 #@! TO.N,/RIGHT_MOTOR_2*
X111800000Y-120000000D02*
X111750000Y-120000000D01*
X121410000Y-129610000D02*
X111800000Y-120000000D01*
G04 #@! TO.N,/RIGHT_MOTOR_1*
X121350000Y-132150000D02*
X120750000Y-132150000D01*
X120750000Y-132150000D02*
X112450000Y-123850000D01*
D34*
G04 #@! TO.N,/FUNCTION_SELECT*
X118475500Y-93974500D02*
X118475500Y-82199902D01*
X87750000Y-68050000D02*
X87750000Y-84350000D01*
X86200000Y-66500000D02*
X87750000Y-68050000D01*
X78150000Y-68450000D02*
X80100000Y-66500000D01*
X70628800Y-68000000D02*
X70628800Y-74502400D01*
X119099902Y-81575500D02*
X120150098Y-81575500D01*
X95500000Y-86800000D02*
X96800000Y-88100000D01*
X96800000Y-88100000D02*
X96800000Y-97200000D01*
D33*
X136870000Y-88480000D02*
X135590000Y-87200000D01*
D34*
X87750000Y-84350000D02*
X90200000Y-86800000D01*
X118475500Y-82199902D02*
X119099902Y-81575500D01*
X126800000Y-86750000D02*
X127250000Y-87200000D01*
X117894002Y-94555998D02*
X118475500Y-93974500D01*
X115830260Y-94555998D02*
X117894002Y-94555998D01*
X80100000Y-66500000D02*
X86200000Y-66500000D01*
X71953800Y-66675000D02*
X76375000Y-66675000D01*
X70628800Y-68000000D02*
X71953800Y-66675000D01*
X120600098Y-82025500D02*
X126275500Y-82025500D01*
X72400000Y-86930000D02*
X72400000Y-85000000D01*
D33*
X135590000Y-87200000D02*
X130726500Y-87200000D01*
D34*
X70628800Y-74502400D02*
X70628800Y-83228800D01*
X76375000Y-66675000D02*
X78150000Y-68450000D01*
X111486258Y-98900000D02*
X115830260Y-94555998D01*
X90200000Y-86800000D02*
X95500000Y-86800000D01*
X70628800Y-83228800D02*
X72400000Y-85000000D01*
X96800000Y-97200000D02*
X98500000Y-98900000D01*
X126800000Y-82550000D02*
X126800000Y-86750000D01*
X126275500Y-82025500D02*
X126800000Y-82550000D01*
X120150098Y-81575500D02*
X120600098Y-82025500D01*
X98500000Y-98900000D02*
X111486258Y-98900000D01*
D32*
G04 #@! TO.N,/SW_PWR*
X82900000Y-140244724D02*
X82200000Y-140944724D01*
X115050499Y-105199501D02*
X117000000Y-103250000D01*
X86600499Y-105199501D02*
X115050499Y-105199501D01*
X82900000Y-108900000D02*
X82900000Y-140244724D01*
X86600499Y-105199501D02*
X82900000Y-108900000D01*
X117000000Y-103250000D02*
X117000000Y-97380000D01*
D34*
G04 #@! TO.N,Net-(R2-Pad1)*
X78150000Y-70990000D02*
X80159002Y-70990000D01*
X81300000Y-68450000D02*
X85770000Y-68450000D01*
X80198499Y-75137018D02*
X80198499Y-70950503D01*
X72400000Y-94550000D02*
X79150000Y-94550000D01*
X80159002Y-70990000D02*
X80199501Y-70949501D01*
X70600000Y-96430000D02*
X71000000Y-96430000D01*
X80198499Y-70950503D02*
X80199501Y-70949501D01*
X80199501Y-93500499D02*
X80199501Y-75138020D01*
X80199501Y-70949501D02*
X80199501Y-69550499D01*
X71000000Y-96430000D02*
X72400000Y-95030000D01*
X79150000Y-94550000D02*
X80199501Y-93500499D01*
X80199501Y-69550499D02*
X81300000Y-68450000D01*
X80199501Y-75138020D02*
X80198499Y-75137018D01*
G04 #@! TO.N,Net-(R3-Pad1)*
X70600000Y-104050000D02*
X80649002Y-94000998D01*
X70600000Y-105930000D02*
X70600000Y-104050000D01*
X80649002Y-94000998D02*
X80649002Y-74950998D01*
D33*
X80650000Y-73850000D02*
X80650000Y-74950000D01*
D34*
X70600000Y-104450000D02*
X71000000Y-104050000D01*
X80649002Y-74950998D02*
X80650000Y-74950000D01*
D33*
X83510000Y-70990000D02*
X85770000Y-70990000D01*
X80950000Y-73550000D02*
X83510000Y-70990000D01*
X80950000Y-73550000D02*
X80650000Y-73850000D01*
G04 #@! TO.N,/BATTERY_VOLTS*
X131900000Y-84600000D02*
X130800000Y-83500000D01*
D34*
X126380000Y-78000000D02*
X126380000Y-75520000D01*
D33*
X126380000Y-79930000D02*
X127750000Y-81300000D01*
X136870000Y-85940000D02*
X135530000Y-84600000D01*
X135530000Y-84600000D02*
X131900000Y-84600000D01*
X126380000Y-78000000D02*
X126380000Y-79930000D01*
X127750000Y-81300000D02*
X127750000Y-83500000D01*
D32*
G04 #@! TO.N,/PWR_IN*
X78260000Y-133850000D02*
X78260000Y-140884724D01*
D34*
G04 #@! TO.N,/RXD*
X121369712Y-78320000D02*
X117000000Y-82689712D01*
X117000000Y-82689712D02*
X117000000Y-85390000D01*
G04 #@! TO.N,/TXD*
X121630000Y-75780000D02*
X123280000Y-75780000D01*
X123280000Y-75780000D02*
X124200000Y-76700000D01*
X124200000Y-76700000D02*
X124200000Y-80620000D01*
D33*
G04 #@! TO.N,/LEFT_PWM*
X121200000Y-113000000D02*
X128500000Y-113000000D01*
X120050000Y-108250000D02*
X120050000Y-111850000D01*
X136420000Y-116910000D02*
X132510000Y-113000000D01*
X122450000Y-107500000D02*
X120800000Y-107500000D01*
X120050000Y-111850000D02*
X121200000Y-113000000D01*
X123250000Y-106700000D02*
X122450000Y-107500000D01*
X123250000Y-105340000D02*
X123250000Y-106700000D01*
X132510000Y-113000000D02*
X132500000Y-113000000D01*
X121630000Y-103720000D02*
X123250000Y-105340000D01*
X120800000Y-107500000D02*
X120050000Y-108250000D01*
D34*
G04 #@! TO.N,/RIGHT_PWM*
X130650000Y-132150000D02*
X130500000Y-132000000D01*
X123250000Y-120750000D02*
X125250000Y-122750000D01*
X136820000Y-132150000D02*
X130650000Y-132150000D01*
X115000000Y-110770000D02*
X115000000Y-116750000D01*
X125250000Y-122750000D02*
X125250000Y-132000002D01*
X119000000Y-120750000D02*
X123250000Y-120750000D01*
X119510000Y-106260000D02*
X115000000Y-110770000D01*
X115000000Y-116750000D02*
X119000000Y-120750000D01*
X121630000Y-106260000D02*
X119510000Y-106260000D01*
G04 #@! TO.N,Net-(R4-Pad1)*
X83620000Y-73530000D02*
X85770000Y-73530000D01*
X82200000Y-74950000D02*
X83620000Y-73530000D01*
X79950000Y-113550000D02*
X81098503Y-112401497D01*
X81098503Y-112401497D02*
X81098503Y-76051497D01*
X71000000Y-113550000D02*
X79950000Y-113550000D01*
X72400000Y-115400000D02*
X70600000Y-113600000D01*
X82200000Y-74950000D02*
X81098503Y-76051497D01*
X70600000Y-113600000D02*
X70600000Y-113550000D01*
G04 #@! TO.N,Net-(R5-Pad2)*
X80590000Y-122060000D02*
X81548004Y-121101996D01*
X72400000Y-124930000D02*
X72400000Y-123020000D01*
X82430000Y-76070000D02*
X85770000Y-76070000D01*
X72400000Y-122060000D02*
X80590000Y-122060000D01*
X81548004Y-121101996D02*
X81548004Y-76951996D01*
X81548004Y-76951996D02*
X82430000Y-76070000D01*
G04 #@! TO.N,/RXD_BT*
X115700000Y-83354022D02*
X120105000Y-78949022D01*
X126600000Y-67450000D02*
X127950000Y-67450000D01*
X127950000Y-67450000D02*
X129730000Y-69230000D01*
X120105000Y-78949022D02*
X120105000Y-74695000D01*
X115700000Y-91710000D02*
X115700000Y-83354022D01*
X120105000Y-74695000D02*
X125850000Y-68950000D01*
X117000000Y-93010000D02*
X115700000Y-91710000D01*
X125850000Y-68200000D02*
X126600000Y-67450000D01*
X125850000Y-68950000D02*
X125850000Y-68200000D01*
G04 #@! TO.N,/TXD_BT*
X124200000Y-73000000D02*
X126400000Y-73000000D01*
X126400000Y-71400000D02*
X126400000Y-73000000D01*
X127190000Y-70610000D02*
X126400000Y-71400000D01*
G04 #@! TD*
D35*
X82500000Y-83500000D03*
X89500000Y-106750000D03*
X89500000Y-103750000D03*
X79250000Y-83500000D03*
X127250000Y-121050000D03*
X127250000Y-116900000D03*
X119250000Y-82450000D03*
X132500000Y-104000000D03*
X128500000Y-104000000D03*
X138500000Y-123200000D03*
X126000000Y-129500000D03*
X127700000Y-85300000D03*
X130500000Y-129500000D03*
X130726500Y-89700000D03*
X127250000Y-89700000D03*
X128500000Y-110000000D03*
X132500000Y-110000000D03*
X132500000Y-107000000D03*
X128500000Y-107000000D03*
X114000000Y-107750000D03*
X114000000Y-103750000D03*
X112400000Y-107750000D03*
X112400000Y-103750000D03*
X111750000Y-120000000D03*
X112450000Y-123850000D03*
X130726500Y-87200000D03*
X127250000Y-87200000D03*
X80950000Y-73550000D03*
X127750000Y-83500000D03*
X130800000Y-83500000D03*
X128500000Y-113000000D03*
X132500000Y-113000000D03*
X125250000Y-132000002D03*
X130500000Y-132000000D03*
X82200000Y-74950000D03*
X124200000Y-73000000D03*
X124200000Y-80620000D03*
X78150000Y-68450000D03*
X78150000Y-70990000D03*
X78150000Y-73530000D03*
X78150000Y-76070000D03*
X85770000Y-76070000D03*
X85770000Y-73530000D03*
X85770000Y-70990000D03*
X85770000Y-68450000D03*
X125175000Y-83400000D03*
X125175000Y-85940000D03*
X125175000Y-88480000D03*
X125175000Y-91020000D03*
X125175000Y-93560000D03*
X125175000Y-96100000D03*
X125175000Y-98640000D03*
X132795000Y-98640000D03*
X132795000Y-96100000D03*
X132795000Y-93560000D03*
X132795000Y-91020000D03*
X132795000Y-88480000D03*
X132795000Y-85940000D03*
X132795000Y-83400000D03*
X70628800Y-74502400D03*
X70628800Y-68000000D03*
X75150000Y-74502400D03*
X75150000Y-68000000D03*
X70600000Y-113550000D03*
X70600000Y-105930000D03*
X154530000Y-80870000D03*
X72400000Y-94550000D03*
X72400000Y-86930000D03*
X75800000Y-105000000D03*
X72400000Y-85000000D03*
X72400000Y-77380000D03*
X154530000Y-129130000D03*
X134000000Y-78000000D03*
X126380000Y-78000000D03*
X121630000Y-75780000D03*
X121630000Y-78320000D03*
X121630000Y-80860000D03*
X121630000Y-83400000D03*
X121630000Y-85940000D03*
X121630000Y-88480000D03*
X121630000Y-91020000D03*
X121630000Y-93560000D03*
X121630000Y-96100000D03*
X121630000Y-98640000D03*
X121630000Y-101180000D03*
X121630000Y-103720000D03*
X121630000Y-106260000D03*
X121630000Y-108800000D03*
X121630000Y-111340000D03*
X136870000Y-111340000D03*
X136870000Y-108800000D03*
X136870000Y-106260000D03*
X136870000Y-103720000D03*
X136870000Y-101180000D03*
X136870000Y-98640000D03*
X136870000Y-96100000D03*
X136870000Y-93560000D03*
X136870000Y-91020000D03*
X136870000Y-88480000D03*
X136870000Y-85940000D03*
X136870000Y-83400000D03*
X136870000Y-80860000D03*
X136870000Y-78320000D03*
X136870000Y-75780000D03*
X134810000Y-69750000D03*
X132270000Y-69496000D03*
X129730000Y-69750000D03*
X127190000Y-69496000D03*
X131150000Y-80500000D03*
X133650000Y-80500000D03*
X162100000Y-105000000D03*
X96000000Y-132275000D03*
X114000000Y-132275000D03*
X114000000Y-77800000D03*
X96000000Y-77800000D03*
X144370000Y-129130000D03*
X117000000Y-93010000D03*
X117000000Y-85390000D03*
X127227651Y-140725000D03*
X124727651Y-140725000D03*
X93877000Y-88500000D03*
X93623000Y-91040000D03*
X93877000Y-93580000D03*
X93623000Y-96120000D03*
X93877000Y-98660000D03*
X93623000Y-101200000D03*
X136027651Y-140725000D03*
X133527651Y-140725000D03*
X144370000Y-80870000D03*
X117000000Y-112620000D03*
X117000000Y-97380000D03*
X141877000Y-121500000D03*
X142131000Y-118960000D03*
X141877000Y-116420000D03*
X142131000Y-113880000D03*
X141877000Y-111340000D03*
X142131000Y-108800000D03*
X141877000Y-106260000D03*
X142131000Y-103720000D03*
X141877000Y-101180000D03*
X142131000Y-98640000D03*
X141877000Y-96100000D03*
X142131000Y-93560000D03*
X141877000Y-91020000D03*
X142131000Y-88480000D03*
X70600000Y-104050000D03*
X70600000Y-96430000D03*
X126400000Y-73000000D03*
X134020000Y-73000000D03*
X72400000Y-132550000D03*
X72400000Y-124930000D03*
X93750000Y-108750000D03*
X93496000Y-111290000D03*
X93750000Y-113830000D03*
X93496000Y-116370000D03*
X93750000Y-118910000D03*
X93496000Y-121450000D03*
X121580000Y-116910000D03*
X121580000Y-119450000D03*
X121580000Y-121990000D03*
X121580000Y-124530000D03*
X121580000Y-127070000D03*
X121580000Y-129610000D03*
X121580000Y-132150000D03*
X121580000Y-134690000D03*
X136820000Y-134690000D03*
X136820000Y-132150000D03*
X136820000Y-129610000D03*
X136820000Y-127070000D03*
X136820000Y-124530000D03*
X136820000Y-121990000D03*
X136820000Y-119450000D03*
X136820000Y-116910000D03*
X72400000Y-115400000D03*
X72400000Y-123020000D03*
X126400000Y-75500000D03*
X134020000Y-75500000D03*
D36*
X75700000Y-140944724D03*
X74200000Y-140944724D03*
X78200000Y-140944724D03*
X82200000Y-140944724D03*
X80700000Y-140944724D03*
D35*
X80800000Y-133850000D03*
X78260000Y-133850000D03*
M02*
