G04 #@! TF.GenerationSoftware,KiCad,Pcbnew,9.0.1*
G04 #@! TF.CreationDate,2025-07-23T10:34:01+02:00*
G04 #@! TF.ProjectId,mainboard,6d61696e-626f-4617-9264-2e6b69636164,rev?*
G04 #@! TF.SameCoordinates,Original*
G04 #@! TF.FileFunction,Copper,L2,Bot*
G04 #@! TF.FilePolarity,Positive*
%FSLAX46Y46*%
G04 Gerber Fmt 4.6, Leading zero omitted, Abs format (unit mm)*
G04 Created by KiCad (PCBNEW 9.0.1) date 2025-07-23 10:34:01*
%MOMM*%
%LPD*%
G01*
G04 APERTURE LIST*
G04 Aperture macros list*
%AMRoundRect*
0 Rectangle with rounded corners*
0 $1 Rounding radius*
0 $2 $3 $4 $5 $6 $7 $8 $9 X,Y pos of 4 corners*
0 Add a 4 corners polygon primitive as box body*
4,1,4,$2,$3,$4,$5,$6,$7,$8,$9,$2,$3,0*
0 Add four circle primitives for the rounded corners*
1,1,$1+$1,$2,$3*
1,1,$1+$1,$4,$5*
1,1,$1+$1,$6,$7*
1,1,$1+$1,$8,$9*
0 Add four rect primitives between the rounded corners*
20,1,$1+$1,$2,$3,$4,$5,0*
20,1,$1+$1,$4,$5,$6,$7,0*
20,1,$1+$1,$6,$7,$8,$9,0*
20,1,$1+$1,$8,$9,$2,$3,0*%
G04 Aperture macros list end*
G04 #@! TA.AperFunction,ComponentPad*
%ADD10O,1.900000X2.400000*%
G04 #@! TD*
G04 #@! TA.AperFunction,ComponentPad*
%ADD11O,1.800000X2.400000*%
G04 #@! TD*
G04 #@! TA.AperFunction,ComponentPad*
%ADD12R,2.400000X1.800000*%
G04 #@! TD*
G04 #@! TA.AperFunction,ComponentPad*
%ADD13O,2.400000X1.800000*%
G04 #@! TD*
G04 #@! TA.AperFunction,ComponentPad*
%ADD14R,2.400000X1.600000*%
G04 #@! TD*
G04 #@! TA.AperFunction,ComponentPad*
%ADD15O,2.400000X1.600000*%
G04 #@! TD*
G04 #@! TA.AperFunction,ComponentPad*
%ADD16C,2.000000*%
G04 #@! TD*
G04 #@! TA.AperFunction,ComponentPad*
%ADD17R,1.600000X3.048000*%
G04 #@! TD*
G04 #@! TA.AperFunction,ComponentPad*
%ADD18O,1.600000X3.048000*%
G04 #@! TD*
G04 #@! TA.AperFunction,ComponentPad*
%ADD19C,1.800000*%
G04 #@! TD*
G04 #@! TA.AperFunction,ComponentPad*
%ADD20R,1.900000X1.900000*%
G04 #@! TD*
G04 #@! TA.AperFunction,ComponentPad*
%ADD21C,1.900000*%
G04 #@! TD*
G04 #@! TA.AperFunction,ComponentPad*
%ADD22R,3.048000X1.524000*%
G04 #@! TD*
G04 #@! TA.AperFunction,ComponentPad*
%ADD23O,3.048000X1.524000*%
G04 #@! TD*
G04 #@! TA.AperFunction,ComponentPad*
%ADD24R,3.200000X3.200000*%
G04 #@! TD*
G04 #@! TA.AperFunction,ComponentPad*
%ADD25O,3.200000X3.200000*%
G04 #@! TD*
G04 #@! TA.AperFunction,ComponentPad*
%ADD26RoundRect,0.272988X0.677012X1.127012X-0.677012X1.127012X-0.677012X-1.127012X0.677012X-1.127012X0*%
G04 #@! TD*
G04 #@! TA.AperFunction,ComponentPad*
%ADD27O,1.900000X2.800000*%
G04 #@! TD*
G04 #@! TA.AperFunction,ViaPad*
%ADD28C,1.000000*%
G04 #@! TD*
G04 #@! TA.AperFunction,ViaPad*
%ADD29C,0.800000*%
G04 #@! TD*
G04 #@! TA.AperFunction,Conductor*
%ADD30C,0.400000*%
G04 #@! TD*
G04 #@! TA.AperFunction,Conductor*
%ADD31C,1.250000*%
G04 #@! TD*
%ADD32C,0.350000*%
G04 APERTURE END LIST*
D10*
G04 #@! TO.P,S1,2,P*
G04 #@! TO.N,/PWR_IN*
X78200000Y-140944724D03*
D11*
G04 #@! TO.P,S1,3,S*
G04 #@! TO.N,/SW_PWR*
X80700000Y-140944724D03*
G04 #@! TD*
G04 #@! TO.P,R11,1*
G04 #@! TO.N,/TXD_BT*
X124200000Y-73400000D03*
G04 #@! TO.P,R11,2*
G04 #@! TO.N,/TXD*
X124200000Y-80220000D03*
G04 #@! TD*
D12*
G04 #@! TO.P,S3,1,1*
G04 #@! TO.N,/FUNCTION_SELECT*
X78150000Y-68450000D03*
D13*
G04 #@! TO.P,S3,2,1*
G04 #@! TO.N,Net-(S3A-2)*
X78150000Y-70990000D03*
G04 #@! TO.P,S3,3,1*
G04 #@! TO.N,Net-(S3B-2)*
X78150000Y-73530000D03*
G04 #@! TO.P,S3,4,1*
G04 #@! TO.N,Net-(S3C-2)*
X78150000Y-76070000D03*
G04 #@! TO.P,S3,5,2*
G04 #@! TO.N,Net-(S3D-2)*
X85770000Y-76070000D03*
G04 #@! TO.P,S3,6,2*
G04 #@! TO.N,Net-(S3C-2)*
X85770000Y-73530000D03*
G04 #@! TO.P,S3,7,2*
G04 #@! TO.N,Net-(S3B-2)*
X85770000Y-70990000D03*
G04 #@! TO.P,S3,8,2*
G04 #@! TO.N,Net-(S3A-2)*
X85770000Y-68450000D03*
G04 #@! TD*
D14*
G04 #@! TO.P,IC1,1*
G04 #@! TO.N,/LEFT_A*
X125175000Y-83400000D03*
D15*
G04 #@! TO.P,IC1,2*
G04 #@! TO.N,/LEFT_B*
X125175000Y-85940000D03*
G04 #@! TO.P,IC1,3*
G04 #@! TO.N,/LEFT_CLK_A*
X125175000Y-88480000D03*
G04 #@! TO.P,IC1,4*
G04 #@! TO.N,/RIGHT_A*
X125175000Y-91020000D03*
G04 #@! TO.P,IC1,5*
G04 #@! TO.N,/RIGHT_B*
X125175000Y-93560000D03*
G04 #@! TO.P,IC1,6*
G04 #@! TO.N,/RIGHT_CLK_A*
X125175000Y-96100000D03*
G04 #@! TO.P,IC1,7,GND*
G04 #@! TO.N,GND*
X125175000Y-98640000D03*
G04 #@! TO.P,IC1,8*
G04 #@! TO.N,/{slash}LEFT_DIR*
X132795000Y-98640000D03*
G04 #@! TO.P,IC1,9*
G04 #@! TO.N,5V*
X132795000Y-96100000D03*
G04 #@! TO.P,IC1,10*
G04 #@! TO.N,/LEFT_DIR*
X132795000Y-93560000D03*
G04 #@! TO.P,IC1,11*
G04 #@! TO.N,/{slash}RIGHT_DIR*
X132795000Y-91020000D03*
G04 #@! TO.P,IC1,12*
G04 #@! TO.N,5V*
X132795000Y-88480000D03*
G04 #@! TO.P,IC1,13*
G04 #@! TO.N,/RIGHT_DIR*
X132795000Y-85940000D03*
G04 #@! TO.P,IC1,14,VCC*
G04 #@! TO.N,5V*
X132795000Y-83400000D03*
G04 #@! TD*
D16*
G04 #@! TO.P,S2,1,1*
G04 #@! TO.N,/FUNCTION_SELECT*
X70628800Y-74502400D03*
G04 #@! TO.P,S2,2,2*
X70628800Y-68000000D03*
G04 #@! TO.P,S2,3,3*
G04 #@! TO.N,5V*
X75150000Y-74502400D03*
G04 #@! TO.P,S2,4,4*
X75150000Y-68000000D03*
G04 #@! TD*
D11*
G04 #@! TO.P,R4,1*
G04 #@! TO.N,Net-(S3C-2)*
X70600000Y-113150000D03*
G04 #@! TO.P,R4,2*
G04 #@! TO.N,Net-(S3B-2)*
X70600000Y-106330000D03*
G04 #@! TD*
G04 #@! TO.P,R2,1*
G04 #@! TO.N,Net-(S3A-2)*
X72400000Y-94150000D03*
G04 #@! TO.P,R2,2*
G04 #@! TO.N,/FUNCTION_SELECT*
X72400000Y-87330000D03*
G04 #@! TD*
G04 #@! TO.P,R1,1*
G04 #@! TO.N,/FUNCTION_SELECT*
X72400000Y-84600000D03*
G04 #@! TO.P,R1,2*
G04 #@! TO.N,5V*
X72400000Y-77780000D03*
G04 #@! TD*
D13*
G04 #@! TO.P,R8,1*
G04 #@! TO.N,GND*
X133600000Y-78000000D03*
G04 #@! TO.P,R8,2*
G04 #@! TO.N,/BATTERY_VOLTS*
X126780000Y-78000000D03*
G04 #@! TD*
D14*
G04 #@! TO.P,U1,1,D1/TX*
G04 #@! TO.N,/TXD*
X121630000Y-75780000D03*
D15*
G04 #@! TO.P,U1,2,D0/RX*
G04 #@! TO.N,/RXD*
X121630000Y-78320000D03*
G04 #@! TO.P,U1,4,GND*
G04 #@! TO.N,GND*
X121630000Y-83400000D03*
G04 #@! TO.P,U1,5,D2*
G04 #@! TO.N,/LEFT_CLK_A*
X121630000Y-85940000D03*
G04 #@! TO.P,U1,6,~D3*
G04 #@! TO.N,/RIGHT_CLK_A*
X121630000Y-88480000D03*
G04 #@! TO.P,U1,7,D4*
G04 #@! TO.N,/LEFT_B*
X121630000Y-91020000D03*
G04 #@! TO.P,U1,8,~D5*
G04 #@! TO.N,/RIGHT_B*
X121630000Y-93560000D03*
G04 #@! TO.P,U1,9,~D6*
G04 #@! TO.N,/USER_IO*
X121630000Y-96100000D03*
G04 #@! TO.P,U1,10,D7*
G04 #@! TO.N,/LEFT_DIR*
X121630000Y-98640000D03*
G04 #@! TO.P,U1,11,D8*
G04 #@! TO.N,/RIGHT_DIR*
X121630000Y-101180000D03*
G04 #@! TO.P,U1,12,~D9*
G04 #@! TO.N,/LEFT_PWM*
X121630000Y-103720000D03*
G04 #@! TO.P,U1,13,~D10*
G04 #@! TO.N,/RIGHT_PWM*
X121630000Y-106260000D03*
G04 #@! TO.P,U1,14,~D11*
G04 #@! TO.N,/EMITTER_A*
X121630000Y-108800000D03*
G04 #@! TO.P,U1,15,D12*
G04 #@! TO.N,/EMITTER_B*
X121630000Y-111340000D03*
G04 #@! TO.P,U1,17,3V3*
G04 #@! TO.N,/3V3*
X136870000Y-108800000D03*
G04 #@! TO.P,U1,19,A0/D14*
G04 #@! TO.N,/SENSOR_0*
X136870000Y-103720000D03*
G04 #@! TO.P,U1,20,A1/D15*
G04 #@! TO.N,/SENSOR_1*
X136870000Y-101180000D03*
G04 #@! TO.P,U1,21,A2/D16*
G04 #@! TO.N,/SENSOR_2*
X136870000Y-98640000D03*
G04 #@! TO.P,U1,22,A3/D17*
G04 #@! TO.N,/SENSOR_3*
X136870000Y-96100000D03*
G04 #@! TO.P,U1,23,A4/D18*
G04 #@! TO.N,/SENSOR_4*
X136870000Y-93560000D03*
G04 #@! TO.P,U1,24,A5/D19*
G04 #@! TO.N,/SENSOR_5*
X136870000Y-91020000D03*
G04 #@! TO.P,U1,25,A6/D20*
G04 #@! TO.N,/FUNCTION_SELECT*
X136870000Y-88480000D03*
G04 #@! TO.P,U1,26,A7/D21*
G04 #@! TO.N,/BATTERY_VOLTS*
X136870000Y-85940000D03*
G04 #@! TO.P,U1,27,+5V*
G04 #@! TO.N,5V*
X136870000Y-83400000D03*
G04 #@! TO.P,U1,29,GND*
G04 #@! TO.N,GND*
X136870000Y-78320000D03*
G04 #@! TO.P,U1,30,VIN*
G04 #@! TO.N,/V_BATT*
X136870000Y-75780000D03*
G04 #@! TD*
D17*
G04 #@! TO.P,J5,1,1*
G04 #@! TO.N,5V*
X134810000Y-69750000D03*
D18*
G04 #@! TO.P,J5,2,2*
G04 #@! TO.N,GND*
X132270000Y-69496000D03*
G04 #@! TO.P,J5,3,3*
G04 #@! TO.N,/RXD_BT*
X129730000Y-69750000D03*
G04 #@! TO.P,J5,4,4*
G04 #@! TO.N,/TXD_BT*
X127190000Y-69496000D03*
G04 #@! TD*
D19*
G04 #@! TO.P,C1,1*
G04 #@! TO.N,5V*
X131150000Y-80500000D03*
G04 #@! TO.P,C1,2*
G04 #@! TO.N,GND*
X133650000Y-80500000D03*
G04 #@! TD*
D20*
G04 #@! TO.P,D3,1,K*
G04 #@! TO.N,/RXD_BT*
X117000000Y-90500000D03*
D21*
G04 #@! TO.P,D3,2,A*
G04 #@! TO.N,/RXD*
X117000000Y-82880000D03*
G04 #@! TD*
D22*
G04 #@! TO.P,J3,1,1*
G04 #@! TO.N,GND*
X93877000Y-88500000D03*
D23*
G04 #@! TO.P,J3,2,2*
G04 #@! TO.N,/LEFT_A*
X93623000Y-91040000D03*
G04 #@! TO.P,J3,3,3*
G04 #@! TO.N,/LEFT_B*
X93877000Y-93580000D03*
G04 #@! TO.P,J3,4,4*
G04 #@! TO.N,5V*
X93623000Y-96120000D03*
G04 #@! TO.P,J3,5,5*
G04 #@! TO.N,/LEFT_MOTOR_1*
X93877000Y-98660000D03*
G04 #@! TO.P,J3,6,6*
G04 #@! TO.N,/LEFT_MOTOR_2*
X93623000Y-101200000D03*
G04 #@! TD*
D24*
G04 #@! TO.P,D1,1,K*
G04 #@! TO.N,/V_BATT*
X116800000Y-113000000D03*
D25*
G04 #@! TO.P,D1,2,A*
G04 #@! TO.N,/SW_PWR*
X116800000Y-97760000D03*
G04 #@! TD*
D22*
G04 #@! TO.P,J1,1,1*
G04 #@! TO.N,/3V3*
X141877000Y-121500000D03*
D23*
G04 #@! TO.P,J1,2,2*
G04 #@! TO.N,5V*
X142131000Y-118960000D03*
G04 #@! TO.P,J1,3,3*
G04 #@! TO.N,GND*
X141877000Y-116420000D03*
G04 #@! TO.P,J1,4,4*
G04 #@! TO.N,/USER_IO*
X142131000Y-113880000D03*
G04 #@! TO.P,J1,5,5*
G04 #@! TO.N,/EMITTER_B*
X141877000Y-111340000D03*
G04 #@! TO.P,J1,6,6*
G04 #@! TO.N,/EMITTER_A*
X142131000Y-108800000D03*
G04 #@! TO.P,J1,7,7*
G04 #@! TO.N,/SENSOR_0*
X141877000Y-106260000D03*
G04 #@! TO.P,J1,8,8*
G04 #@! TO.N,/SENSOR_1*
X142131000Y-103720000D03*
G04 #@! TO.P,J1,9,9*
G04 #@! TO.N,/SENSOR_2*
X141877000Y-101180000D03*
G04 #@! TO.P,J1,10,10*
G04 #@! TO.N,/SENSOR_3*
X142131000Y-98640000D03*
G04 #@! TO.P,J1,11,11*
G04 #@! TO.N,/SENSOR_4*
X141877000Y-96100000D03*
G04 #@! TO.P,J1,12,12*
G04 #@! TO.N,/SENSOR_5*
X142131000Y-93560000D03*
G04 #@! TO.P,J1,13,13*
G04 #@! TO.N,GND*
X141877000Y-91020000D03*
G04 #@! TO.P,J1,14,14*
G04 #@! TO.N,5V*
X142131000Y-88480000D03*
G04 #@! TD*
D11*
G04 #@! TO.P,R3,1*
G04 #@! TO.N,Net-(S3B-2)*
X70600000Y-103650000D03*
G04 #@! TO.P,R3,2*
G04 #@! TO.N,Net-(S3A-2)*
X70600000Y-96830000D03*
G04 #@! TD*
D13*
G04 #@! TO.P,R10,1*
G04 #@! TO.N,/TXD_BT*
X126800000Y-73000000D03*
G04 #@! TO.P,R10,2*
G04 #@! TO.N,GND*
X133620000Y-73000000D03*
G04 #@! TD*
D11*
G04 #@! TO.P,R6,1*
G04 #@! TO.N,GND*
X72400000Y-132150000D03*
G04 #@! TO.P,R6,2*
G04 #@! TO.N,Net-(S3D-2)*
X72400000Y-125330000D03*
G04 #@! TD*
D22*
G04 #@! TO.P,J2,1,1*
G04 #@! TO.N,GND*
X93750000Y-108750000D03*
D23*
G04 #@! TO.P,J2,2,2*
G04 #@! TO.N,/RIGHT_A*
X93496000Y-111290000D03*
G04 #@! TO.P,J2,3,3*
G04 #@! TO.N,/RIGHT_B*
X93750000Y-113830000D03*
G04 #@! TO.P,J2,4,4*
G04 #@! TO.N,5V*
X93496000Y-116370000D03*
G04 #@! TO.P,J2,5,5*
G04 #@! TO.N,/RIGHT_MOTOR_2*
X93750000Y-118910000D03*
G04 #@! TO.P,J2,6,6*
G04 #@! TO.N,/RIGHT_MOTOR_1*
X93496000Y-121450000D03*
G04 #@! TD*
D15*
G04 #@! TO.P,U2,2,VCC*
G04 #@! TO.N,5V*
X121580000Y-119450000D03*
G04 #@! TO.P,U2,3,GND*
G04 #@! TO.N,GND*
X121580000Y-121990000D03*
G04 #@! TO.P,U2,4,A01*
G04 #@! TO.N,/LEFT_MOTOR_1*
X121580000Y-124530000D03*
G04 #@! TO.P,U2,5,A02*
G04 #@! TO.N,/LEFT_MOTOR_2*
X121580000Y-127070000D03*
G04 #@! TO.P,U2,6,B02*
G04 #@! TO.N,/RIGHT_MOTOR_2*
X121580000Y-129610000D03*
G04 #@! TO.P,U2,7,B01*
G04 #@! TO.N,/RIGHT_MOTOR_1*
X121580000Y-132150000D03*
G04 #@! TO.P,U2,8,GND*
G04 #@! TO.N,GND*
X121580000Y-134690000D03*
G04 #@! TO.P,U2,9,GND*
X136820000Y-134690000D03*
G04 #@! TO.P,U2,10,PWMB*
G04 #@! TO.N,/RIGHT_PWM*
X136820000Y-132150000D03*
G04 #@! TO.P,U2,11,BI2*
G04 #@! TO.N,/RIGHT_DIR*
X136820000Y-129610000D03*
G04 #@! TO.P,U2,12,BI1*
G04 #@! TO.N,/{slash}RIGHT_DIR*
X136820000Y-127070000D03*
G04 #@! TO.P,U2,13,STBY*
G04 #@! TO.N,5V*
X136820000Y-124530000D03*
G04 #@! TO.P,U2,14,AI1*
G04 #@! TO.N,/LEFT_DIR*
X136820000Y-121990000D03*
G04 #@! TO.P,U2,15,AI2*
G04 #@! TO.N,/{slash}LEFT_DIR*
X136820000Y-119450000D03*
G04 #@! TO.P,U2,16,PWMA*
G04 #@! TO.N,/LEFT_PWM*
X136820000Y-116910000D03*
G04 #@! TD*
D11*
G04 #@! TO.P,R5,1*
G04 #@! TO.N,Net-(S3C-2)*
X72400000Y-115800000D03*
G04 #@! TO.P,R5,2*
G04 #@! TO.N,Net-(S3D-2)*
X72400000Y-122620000D03*
G04 #@! TD*
D13*
G04 #@! TO.P,R7,1*
G04 #@! TO.N,/BATTERY_VOLTS*
X126800000Y-75500000D03*
G04 #@! TO.P,R7,2*
G04 #@! TO.N,/V_BATT*
X133620000Y-75500000D03*
G04 #@! TD*
D26*
G04 #@! TO.P,J4,1,Pin_1*
G04 #@! TO.N,GND*
X80800000Y-133850000D03*
D27*
G04 #@! TO.P,J4,2,Pin_2*
G04 #@! TO.N,/PWR_IN*
X78260000Y-133850000D03*
G04 #@! TD*
D28*
G04 #@! TO.N,5V*
X141100000Y-124530000D03*
G04 #@! TO.N,GND*
X123600000Y-134700000D03*
G04 #@! TO.N,5V*
X134750000Y-83400000D03*
X134500000Y-88500000D03*
G04 #@! TO.N,GND*
X89500000Y-102900000D03*
D29*
X131100000Y-120900000D03*
D28*
X89500000Y-94600000D03*
X125200000Y-114600000D03*
X119100000Y-83400000D03*
X139300000Y-89700000D03*
X85800000Y-102900000D03*
X127700000Y-100900000D03*
G04 #@! TO.N,/LEFT_A*
X118938354Y-87788853D03*
X90825000Y-94600000D03*
G04 #@! TO.N,/{slash}LEFT_DIR*
X134135000Y-116765000D03*
X132800000Y-100500000D03*
G04 #@! TO.N,/LEFT_DIR*
X134165000Y-119735000D03*
X131000000Y-104000000D03*
X131000000Y-94225000D03*
G04 #@! TO.N,/{slash}RIGHT_DIR*
X134500000Y-91020000D03*
X139200000Y-126200000D03*
G04 #@! TO.N,/RIGHT_DIR*
X128075000Y-85900000D03*
X124931000Y-129600000D03*
X123600000Y-101300000D03*
G04 #@! TO.N,/LEFT_MOTOR_1*
X114660757Y-118960757D03*
X111500000Y-105000000D03*
G04 #@! TO.N,/LEFT_MOTOR_2*
X107800000Y-105200000D03*
X113085804Y-119985804D03*
G04 #@! TO.N,/FUNCTION_SELECT*
X119300000Y-90000000D03*
X127003343Y-88938082D03*
G04 #@! TO.N,/SW_PWR*
X86600499Y-105199501D03*
G04 #@! TO.N,Net-(S3A-2)*
X80166912Y-81300000D03*
G04 #@! TO.N,Net-(S3B-2)*
X81066912Y-79400000D03*
G04 #@! TO.N,/RIGHT_PWM*
X125900000Y-131100000D03*
X123500000Y-106260000D03*
G04 #@! TO.N,Net-(S3C-2)*
X82000000Y-80400000D03*
G04 #@! TO.N,Net-(S3D-2)*
X83000000Y-79400000D03*
G04 #@! TD*
D30*
G04 #@! TO.N,/FUNCTION_SELECT*
X135590000Y-87200000D02*
X128100793Y-87200000D01*
X135590000Y-87200000D02*
X136870000Y-88480000D01*
X128100793Y-87200000D02*
X127003343Y-88297450D01*
G04 #@! TO.N,/{slash}RIGHT_DIR*
X139200000Y-126200000D02*
X137690000Y-126200000D01*
X137690000Y-126200000D02*
X136820000Y-127070000D01*
G04 #@! TO.N,/RIGHT_DIR*
X131580000Y-129600000D02*
X131590000Y-129610000D01*
X124931000Y-129600000D02*
X131580000Y-129600000D01*
X131590000Y-129610000D02*
X136820000Y-129610000D01*
G04 #@! TO.N,/RIGHT_PWM*
X125900000Y-131100000D02*
X132100000Y-131100000D01*
X132100000Y-131100000D02*
X133150000Y-132150000D01*
X133150000Y-132150000D02*
X136820000Y-132150000D01*
D31*
G04 #@! TO.N,GND*
X136820000Y-134690000D02*
X135459000Y-136051000D01*
X135459000Y-136051000D02*
X124951000Y-136051000D01*
X124951000Y-136051000D02*
X123600000Y-134700000D01*
X121580000Y-134690000D02*
X123590000Y-134690000D01*
X123590000Y-134690000D02*
X123600000Y-134700000D01*
G04 #@! TO.N,5V*
X129050000Y-124500000D02*
X124000000Y-119450000D01*
X88000000Y-96300000D02*
X88000000Y-94700000D01*
X134810000Y-71020489D02*
X138896000Y-75106489D01*
X136870000Y-83400000D02*
X137051000Y-83400000D01*
X144980000Y-88480000D02*
X147500000Y-91000000D01*
X131150000Y-81755000D02*
X131150000Y-80500000D01*
X75150000Y-68000000D02*
X75150000Y-74502400D01*
X134750000Y-83400000D02*
X136870000Y-83400000D01*
X129930000Y-124530000D02*
X136820000Y-124530000D01*
X132795000Y-83400000D02*
X134750000Y-83400000D01*
X75130000Y-77380000D02*
X75150000Y-77400000D01*
X134810000Y-69750000D02*
X134810000Y-71020489D01*
X77750000Y-83500000D02*
X75150000Y-80900000D01*
X138896000Y-75106489D02*
X138896000Y-81374000D01*
X88000000Y-87000000D02*
X84500000Y-83500000D01*
X138896000Y-81374000D02*
X136870000Y-83400000D01*
X84500000Y-83500000D02*
X77750000Y-83500000D01*
X88000000Y-111636000D02*
X88000000Y-96300000D01*
X142131000Y-118960000D02*
X143275000Y-118960000D01*
X75150000Y-80900000D02*
X75150000Y-77400000D01*
X147500000Y-91000000D02*
X147500000Y-114900000D01*
X92734000Y-116370000D02*
X88000000Y-111636000D01*
X124000000Y-119450000D02*
X121580000Y-119450000D01*
X142785000Y-124530000D02*
X136820000Y-124530000D01*
X131920000Y-88480000D02*
X132795000Y-88480000D01*
X130716910Y-96100000D02*
X129474000Y-94857090D01*
X129474000Y-90926000D02*
X131920000Y-88480000D01*
X143275000Y-118960000D02*
X144227000Y-119912000D01*
X129050000Y-124500000D02*
X129900000Y-124500000D01*
X137051000Y-83400000D02*
X142131000Y-88480000D01*
X143440000Y-118960000D02*
X142131000Y-118960000D01*
X129474000Y-94857090D02*
X129474000Y-90926000D01*
X144227000Y-123088000D02*
X142785000Y-124530000D01*
X93496000Y-116370000D02*
X114570000Y-116370000D01*
X117650000Y-119450000D02*
X121580000Y-119450000D01*
X132795000Y-96100000D02*
X130716910Y-96100000D01*
X132795000Y-83400000D02*
X131150000Y-81755000D01*
X134480000Y-88480000D02*
X134500000Y-88500000D01*
X88000000Y-94700000D02*
X88000000Y-87000000D01*
X93623000Y-96120000D02*
X88180000Y-96120000D01*
X142131000Y-88480000D02*
X144980000Y-88480000D01*
X72400000Y-77380000D02*
X75130000Y-77380000D01*
X114570000Y-116370000D02*
X117650000Y-119450000D01*
X147500000Y-114900000D02*
X143440000Y-118960000D01*
X93496000Y-116370000D02*
X92734000Y-116370000D01*
X132795000Y-88480000D02*
X134480000Y-88480000D01*
X88180000Y-96120000D02*
X88000000Y-96300000D01*
X75150000Y-77400000D02*
X75150000Y-74502400D01*
X129900000Y-124500000D02*
X129930000Y-124530000D01*
X144227000Y-119912000D02*
X144227000Y-123088000D01*
G04 #@! TO.N,GND*
X84500000Y-130150000D02*
X84500000Y-104200000D01*
X135830000Y-78320000D02*
X133650000Y-80500000D01*
X91350000Y-108750000D02*
X93750000Y-108750000D01*
X141877000Y-116420000D02*
X143127000Y-116420000D01*
X125175000Y-98640000D02*
X125440000Y-98640000D01*
X134000000Y-78000000D02*
X132000000Y-78000000D01*
X121630000Y-83400000D02*
X119100000Y-83400000D01*
X89500000Y-90103000D02*
X89500000Y-94600000D01*
X136870000Y-78320000D02*
X135830000Y-78320000D01*
X80800000Y-133850000D02*
X84500000Y-130150000D01*
X132270000Y-71250000D02*
X132270000Y-69496000D01*
X145726000Y-113821000D02*
X145726000Y-93864386D01*
X131000000Y-74500000D02*
X132500000Y-73000000D01*
X132000000Y-78000000D02*
X131000000Y-77000000D01*
X93877000Y-88500000D02*
X91103000Y-88500000D01*
X125659500Y-98615000D02*
X125200000Y-98615000D01*
X145726000Y-93864386D02*
X142881614Y-91020000D01*
X127435000Y-100900000D02*
X125175000Y-98640000D01*
X89500000Y-102900000D02*
X89500000Y-106900000D01*
X132500000Y-73000000D02*
X134020000Y-73000000D01*
X134020000Y-73000000D02*
X132270000Y-71250000D01*
X134000000Y-78000000D02*
X136550000Y-78000000D01*
X89500000Y-106900000D02*
X91350000Y-108750000D01*
X125200000Y-114600000D02*
X125200000Y-115000000D01*
X143127000Y-116420000D02*
X145726000Y-113821000D01*
X140620000Y-91020000D02*
X139300000Y-89700000D01*
X136550000Y-78000000D02*
X136870000Y-78320000D01*
X91103000Y-88500000D02*
X89500000Y-90103000D01*
X84500000Y-104200000D02*
X85800000Y-102900000D01*
X136870000Y-78320000D02*
X137029511Y-78320000D01*
X125200000Y-115000000D02*
X131100000Y-120900000D01*
X142881614Y-91020000D02*
X141877000Y-91020000D01*
X131000000Y-77000000D02*
X131000000Y-74500000D01*
X127700000Y-100900000D02*
X127435000Y-100900000D01*
G04 #@! TO.N,/V_BATT*
X134020000Y-75500000D02*
X136590000Y-75500000D01*
X136590000Y-75500000D02*
X136870000Y-75780000D01*
D30*
G04 #@! TO.N,/LEFT_A*
X93623000Y-91040000D02*
X90825000Y-93838000D01*
X123728470Y-83400000D02*
X125175000Y-83400000D01*
X122527470Y-84601000D02*
X123728470Y-83400000D01*
X90825000Y-93838000D02*
X90825000Y-94600000D01*
X120732530Y-84601000D02*
X122527470Y-84601000D01*
X90800000Y-94625000D02*
X90800000Y-94800000D01*
X118938354Y-86395176D02*
X120732530Y-84601000D01*
X90825000Y-94600000D02*
X90800000Y-94625000D01*
X118938354Y-87788853D02*
X118938354Y-86395176D01*
G04 #@! TO.N,/LEFT_B*
X123915000Y-87200000D02*
X125175000Y-85940000D01*
X99800000Y-102100000D02*
X109300000Y-102100000D01*
X120380000Y-91020000D02*
X121630000Y-91020000D01*
X109300000Y-102100000D02*
X120380000Y-91020000D01*
X121500000Y-91000000D02*
X121520000Y-91020000D01*
X120000000Y-88011530D02*
X120811530Y-87200000D01*
X96000000Y-95703000D02*
X96000000Y-98300000D01*
X93877000Y-93580000D02*
X96000000Y-95703000D01*
X121630000Y-91020000D02*
X121520000Y-91020000D01*
X120811530Y-87200000D02*
X123915000Y-87200000D01*
X121630000Y-91020000D02*
X120000000Y-89390000D01*
X120000000Y-89390000D02*
X120000000Y-88011530D01*
X96000000Y-98300000D02*
X99800000Y-102100000D01*
G04 #@! TO.N,/LEFT_CLK_A*
X126776000Y-85442530D02*
X126776000Y-86879000D01*
X122660000Y-85940000D02*
X123861000Y-84739000D01*
X121630000Y-85940000D02*
X122660000Y-85940000D01*
X123861000Y-84739000D02*
X126072470Y-84739000D01*
X126072470Y-84739000D02*
X126776000Y-85442530D01*
X126776000Y-86879000D02*
X125175000Y-88480000D01*
G04 #@! TO.N,/RIGHT_A*
X119000000Y-101000000D02*
X113601000Y-106399000D01*
X113601000Y-106399000D02*
X99601000Y-106399000D01*
X124698000Y-91020000D02*
X123359000Y-92359000D01*
X120141000Y-92359000D02*
X119000000Y-93500000D01*
X119000000Y-93500000D02*
X119000000Y-101000000D01*
X125175000Y-91020000D02*
X124698000Y-91020000D01*
X94710000Y-111290000D02*
X93496000Y-111290000D01*
X123359000Y-92359000D02*
X120141000Y-92359000D01*
X99601000Y-106399000D02*
X94710000Y-111290000D01*
G04 #@! TO.N,/RIGHT_B*
X119700000Y-95100000D02*
X121240000Y-93560000D01*
X121630000Y-93560000D02*
X125175000Y-93560000D01*
X100380000Y-107200000D02*
X114300000Y-107200000D01*
X93750000Y-113830000D02*
X100380000Y-107200000D01*
X114300000Y-107200000D02*
X119700000Y-101800000D01*
X121240000Y-93560000D02*
X121630000Y-93560000D01*
X119700000Y-101800000D02*
X119700000Y-95100000D01*
G04 #@! TO.N,/RIGHT_CLK_A*
X122969000Y-89819000D02*
X126819000Y-89819000D01*
X127000000Y-90000000D02*
X127000000Y-94275000D01*
X127000000Y-94275000D02*
X125175000Y-96100000D01*
X126819000Y-89819000D02*
X127000000Y-90000000D01*
X121630000Y-88480000D02*
X122969000Y-89819000D01*
G04 #@! TO.N,/{slash}LEFT_DIR*
X132800000Y-99400000D02*
X132795000Y-99395000D01*
X132800000Y-100500000D02*
X132800000Y-99400000D01*
X132795000Y-99395000D02*
X132795000Y-98640000D01*
X134135000Y-116765000D02*
X136820000Y-119450000D01*
G04 #@! TO.N,/LEFT_DIR*
X122973000Y-99373000D02*
X122240000Y-98640000D01*
X127600000Y-104000000D02*
X124042000Y-100442000D01*
X136820000Y-121990000D02*
X136420000Y-121990000D01*
X131000000Y-93820000D02*
X131260000Y-93560000D01*
X131000000Y-104000000D02*
X127600000Y-104000000D01*
X124028588Y-100442000D02*
X122973000Y-99386412D01*
X122240000Y-98640000D02*
X121630000Y-98640000D01*
X136420000Y-121990000D02*
X134165000Y-119735000D01*
X124042000Y-100442000D02*
X124028588Y-100442000D01*
X131260000Y-93560000D02*
X132795000Y-93560000D01*
X122973000Y-99386412D02*
X122973000Y-99373000D01*
X131000000Y-94225000D02*
X131000000Y-93820000D01*
G04 #@! TO.N,/{slash}RIGHT_DIR*
X134680000Y-91020000D02*
X134700000Y-91000000D01*
X134500000Y-91020000D02*
X134680000Y-91020000D01*
X132795000Y-91020000D02*
X134500000Y-91020000D01*
G04 #@! TO.N,/RIGHT_DIR*
X128115000Y-85940000D02*
X132795000Y-85940000D01*
X121630000Y-101180000D02*
X123480000Y-101180000D01*
X123480000Y-101180000D02*
X123600000Y-101300000D01*
X128075000Y-85900000D02*
X128115000Y-85940000D01*
X123400000Y-101300000D02*
X123300000Y-101200000D01*
X123600000Y-101300000D02*
X123400000Y-101300000D01*
D31*
G04 #@! TO.N,/3V3*
X141877000Y-121500000D02*
X141663229Y-121500000D01*
X141663229Y-121500000D02*
X138896000Y-118732771D01*
X137029511Y-108800000D02*
X136870000Y-108800000D01*
X138896000Y-110666489D02*
X137029511Y-108800000D01*
X138896000Y-118732771D02*
X138896000Y-110666489D01*
D30*
G04 #@! TO.N,/USER_IO*
X123574000Y-99124058D02*
X123400000Y-98950058D01*
X144500000Y-105500000D02*
X144000000Y-105000000D01*
X123400000Y-98950058D02*
X123400000Y-97870000D01*
X144000000Y-105000000D02*
X140500000Y-105000000D01*
X140500000Y-105000000D02*
X138000000Y-102500000D01*
X124277530Y-99841000D02*
X123574000Y-99137470D01*
X123574000Y-99137470D02*
X123574000Y-99124058D01*
X124290942Y-99841000D02*
X124277530Y-99841000D01*
X142131000Y-113880000D02*
X143120000Y-113880000D01*
X126949942Y-102500000D02*
X124290942Y-99841000D01*
X123400000Y-97870000D02*
X121630000Y-96100000D01*
X144500000Y-112500000D02*
X144500000Y-105500000D01*
X143120000Y-113880000D02*
X144500000Y-112500000D01*
X121630000Y-96100000D02*
X121630000Y-96130000D01*
X138000000Y-102500000D02*
X126949942Y-102500000D01*
G04 #@! TO.N,/EMITTER_B*
X128500000Y-110000000D02*
X127160000Y-111340000D01*
X132500000Y-110000000D02*
X135000000Y-107500000D01*
X135000000Y-107500000D02*
X138000000Y-107500000D01*
X127160000Y-111340000D02*
X121630000Y-111340000D01*
X138000000Y-107500000D02*
X141840000Y-111340000D01*
X141840000Y-111340000D02*
X141877000Y-111340000D01*
X132500000Y-110000000D02*
X128500000Y-110000000D01*
G04 #@! TO.N,/EMITTER_A*
X126700000Y-108800000D02*
X121630000Y-108800000D01*
X132500000Y-107000000D02*
X128500000Y-107000000D01*
X137300058Y-105000000D02*
X141100058Y-108800000D01*
X128500000Y-107000000D02*
X126700000Y-108800000D01*
X132500000Y-107000000D02*
X134500000Y-105000000D01*
X141100058Y-108800000D02*
X142131000Y-108800000D01*
X134500000Y-105000000D02*
X137300058Y-105000000D01*
G04 #@! TO.N,/SENSOR_0*
X137420000Y-103720000D02*
X139960000Y-106260000D01*
X136870000Y-103720000D02*
X137420000Y-103720000D01*
X139960000Y-106260000D02*
X141877000Y-106260000D01*
G04 #@! TO.N,/SENSOR_1*
X136870000Y-101180000D02*
X138341220Y-101180000D01*
X140881220Y-103720000D02*
X142131000Y-103720000D01*
X138341220Y-101180000D02*
X140881220Y-103720000D01*
G04 #@! TO.N,/SENSOR_2*
X141877000Y-101180000D02*
X139410000Y-101180000D01*
X136870000Y-98640000D02*
X139410000Y-101180000D01*
G04 #@! TO.N,/SENSOR_3*
X136870000Y-96100000D02*
X139410000Y-98640000D01*
X139410000Y-98640000D02*
X142131000Y-98640000D01*
G04 #@! TO.N,/SENSOR_4*
X136870000Y-93560000D02*
X139410000Y-96100000D01*
X139410000Y-96100000D02*
X141877000Y-96100000D01*
G04 #@! TO.N,/SENSOR_5*
X137520000Y-91020000D02*
X140060000Y-93560000D01*
X136870000Y-91020000D02*
X137520000Y-91020000D01*
X140060000Y-93560000D02*
X142131000Y-93560000D01*
D31*
G04 #@! TO.N,/LEFT_MOTOR_1*
X93877000Y-98660000D02*
X94639000Y-98660000D01*
X120230000Y-124530000D02*
X121580000Y-124530000D01*
X110049000Y-103549000D02*
X111500000Y-105000000D01*
X94639000Y-98660000D02*
X99528000Y-103549000D01*
X114660757Y-118960757D02*
X120230000Y-124530000D01*
X99528000Y-103549000D02*
X110049000Y-103549000D01*
G04 #@! TO.N,/LEFT_MOTOR_2*
X119598988Y-126498988D02*
X121008988Y-126498988D01*
X121008988Y-126498988D02*
X121580000Y-127070000D01*
X107800000Y-105200000D02*
X97623000Y-105200000D01*
X97623000Y-105200000D02*
X93623000Y-101200000D01*
X113085804Y-119985804D02*
X119598988Y-126498988D01*
G04 #@! TO.N,/RIGHT_MOTOR_2*
X109710000Y-118910000D02*
X120410000Y-129610000D01*
X120410000Y-129610000D02*
X121580000Y-129610000D01*
X93750000Y-118910000D02*
X109710000Y-118910000D01*
G04 #@! TO.N,/RIGHT_MOTOR_1*
X110050000Y-121450000D02*
X120750000Y-132150000D01*
X120750000Y-132150000D02*
X121580000Y-132150000D01*
X93496000Y-121450000D02*
X110050000Y-121450000D01*
D30*
G04 #@! TO.N,/FUNCTION_SELECT*
X75100000Y-66200000D02*
X86600000Y-66200000D01*
X72428800Y-66200000D02*
X70628800Y-68000000D01*
X70628800Y-68000000D02*
X70628800Y-74502400D01*
X70628800Y-74502400D02*
X70628800Y-83228800D01*
X96702924Y-98102924D02*
X99900000Y-101300000D01*
X99900000Y-101300000D02*
X108700000Y-101300000D01*
X119300000Y-90700000D02*
X119300000Y-90000000D01*
X70628800Y-83228800D02*
X72400000Y-85000000D01*
X88000000Y-67600000D02*
X88000000Y-84795983D01*
X78150000Y-68450000D02*
X75900000Y-66200000D01*
X90541017Y-87337000D02*
X95802000Y-87337000D01*
X108700000Y-101300000D02*
X119300000Y-90700000D01*
X75900000Y-66200000D02*
X75100000Y-66200000D01*
X88000000Y-84795983D02*
X90541017Y-87337000D01*
X95802000Y-87337000D02*
X96702924Y-88237924D01*
X96702924Y-88237924D02*
X96702924Y-98102924D01*
X86600000Y-66200000D02*
X88000000Y-67600000D01*
X127003343Y-88938082D02*
X127003343Y-88297450D01*
X75100000Y-66200000D02*
X72428800Y-66200000D01*
D31*
G04 #@! TO.N,/SW_PWR*
X86500000Y-105249000D02*
X86549000Y-105200000D01*
X82200000Y-140944724D02*
X86500000Y-136644724D01*
X86500000Y-136644724D02*
X86500000Y-105249000D01*
X80700000Y-140944724D02*
X82200000Y-140944724D01*
D30*
G04 #@! TO.N,Net-(S3A-2)*
X87371000Y-76629000D02*
X87371000Y-70051000D01*
X82700000Y-81300000D02*
X87371000Y-76629000D01*
X87371000Y-70051000D02*
X85770000Y-68450000D01*
X81630000Y-70990000D02*
X78150000Y-70990000D01*
X85770000Y-68450000D02*
X84170000Y-68450000D01*
X80166912Y-81300000D02*
X82700000Y-81300000D01*
X84170000Y-68450000D02*
X81630000Y-70990000D01*
G04 #@! TO.N,Net-(S3B-2)*
X81066912Y-73666912D02*
X83743824Y-70990000D01*
X81066912Y-79400000D02*
X81066912Y-76446912D01*
X81066912Y-76446912D02*
X78150000Y-73530000D01*
X83743824Y-70990000D02*
X85770000Y-70990000D01*
X81066912Y-76446912D02*
X81066912Y-73666912D01*
G04 #@! TO.N,/BATTERY_VOLTS*
X126400000Y-75500000D02*
X126400000Y-77980000D01*
X126380000Y-81380000D02*
X126380000Y-78000000D01*
X135315000Y-85940000D02*
X133976000Y-84601000D01*
X133976000Y-84601000D02*
X128851000Y-84601000D01*
X128851000Y-84601000D02*
X127750000Y-83500000D01*
X127750000Y-82750000D02*
X126380000Y-81380000D01*
X126400000Y-77980000D02*
X126380000Y-78000000D01*
X127750000Y-83500000D02*
X127750000Y-82750000D01*
X136870000Y-85940000D02*
X135315000Y-85940000D01*
D31*
G04 #@! TO.N,/PWR_IN*
X78260000Y-133850000D02*
X78260000Y-140884724D01*
X78260000Y-140884724D02*
X78200000Y-140944724D01*
D30*
G04 #@! TO.N,/RXD*
X121560000Y-78320000D02*
X121630000Y-78320000D01*
X117000000Y-82880000D02*
X121560000Y-78320000D01*
G04 #@! TO.N,/TXD*
X124200000Y-77200000D02*
X124200000Y-80620000D01*
X122780000Y-75780000D02*
X124200000Y-77200000D01*
X121630000Y-75780000D02*
X122780000Y-75780000D01*
G04 #@! TO.N,/LEFT_PWM*
X119000000Y-112500000D02*
X119000000Y-106350000D01*
X132500000Y-113000000D02*
X119500000Y-113000000D01*
X119000000Y-106350000D02*
X121630000Y-103720000D01*
X136820000Y-116910000D02*
X136410000Y-116910000D01*
X121630000Y-103720000D02*
X121720000Y-103720000D01*
X119500000Y-113000000D02*
X119000000Y-112500000D01*
X136410000Y-116910000D02*
X132500000Y-113000000D01*
G04 #@! TO.N,/RIGHT_PWM*
X121630000Y-106260000D02*
X123500000Y-106260000D01*
X123500000Y-106260000D02*
X123660000Y-106260000D01*
G04 #@! TO.N,Net-(S3C-2)*
X79900000Y-80400000D02*
X78150000Y-78650000D01*
X78150000Y-78650000D02*
X78150000Y-76070000D01*
X82000000Y-80400000D02*
X79900000Y-80400000D01*
X82000000Y-80400000D02*
X82000000Y-75150000D01*
X82000000Y-75150000D02*
X83620000Y-73530000D01*
X83620000Y-73530000D02*
X85770000Y-73530000D01*
G04 #@! TO.N,Net-(S3D-2)*
X83000000Y-79400000D02*
X83000000Y-78840000D01*
X83000000Y-78840000D02*
X85770000Y-76070000D01*
G04 #@! TO.N,/RXD_BT*
X117915029Y-79684971D02*
X115400000Y-82200000D01*
X117915029Y-76084971D02*
X117915029Y-79684971D01*
X125550000Y-68450000D02*
X125550000Y-68430687D01*
X129730000Y-69026000D02*
X129730000Y-69750000D01*
X115400000Y-88900000D02*
X117000000Y-90500000D01*
X125550000Y-68430687D02*
X126609687Y-67371000D01*
X125550000Y-68450000D02*
X117915029Y-76084971D01*
X128075000Y-67371000D02*
X129730000Y-69026000D01*
X126609687Y-67371000D02*
X128075000Y-67371000D01*
X115400000Y-82200000D02*
X115400000Y-88900000D01*
G04 #@! TO.N,/TXD_BT*
X126500000Y-73000000D02*
X126400000Y-73000000D01*
X126400000Y-70286000D02*
X127190000Y-69496000D01*
X124200000Y-73000000D02*
X126400000Y-73000000D01*
X126400000Y-73000000D02*
X126400000Y-70286000D01*
G04 #@! TD*
G04 #@! TA.AperFunction,Conductor*
G04 #@! TO.N,GND*
G36*
X88325788Y-64389454D02*
G01*
X88406570Y-64443430D01*
X88460546Y-64524212D01*
X88479500Y-64619500D01*
X88479500Y-66487703D01*
X88460546Y-66582991D01*
X88406570Y-66663773D01*
X88325788Y-66717749D01*
X88230500Y-66736703D01*
X88135212Y-66717749D01*
X88054430Y-66663773D01*
X87854008Y-66463351D01*
X87046543Y-65655886D01*
X86931811Y-65579225D01*
X86931807Y-65579223D01*
X86931805Y-65579222D01*
X86804327Y-65526419D01*
X86804324Y-65526418D01*
X86668998Y-65499500D01*
X86668994Y-65499500D01*
X86668993Y-65499500D01*
X75968993Y-65499500D01*
X75168993Y-65499500D01*
X72359807Y-65499500D01*
X72251391Y-65521065D01*
X72224471Y-65526420D01*
X72171666Y-65548292D01*
X72096989Y-65579225D01*
X72096988Y-65579226D01*
X72056001Y-65606612D01*
X72055995Y-65606615D01*
X71982261Y-65655883D01*
X71982256Y-65655887D01*
X71174791Y-66463351D01*
X71094010Y-66517327D01*
X70998722Y-66536281D01*
X70959771Y-66533216D01*
X70746892Y-66499500D01*
X70510708Y-66499500D01*
X70510705Y-66499500D01*
X70510696Y-66499501D01*
X70277435Y-66536446D01*
X70052812Y-66609430D01*
X69842362Y-66716659D01*
X69651295Y-66855478D01*
X69484278Y-67022495D01*
X69345459Y-67213562D01*
X69238230Y-67424012D01*
X69165246Y-67648635D01*
X69128301Y-67881896D01*
X69128300Y-67881912D01*
X69128300Y-68118087D01*
X69128301Y-68118103D01*
X69164663Y-68347683D01*
X69165247Y-68351368D01*
X69238232Y-68575992D01*
X69312355Y-68721466D01*
X69345459Y-68786437D01*
X69484278Y-68977504D01*
X69484280Y-68977506D01*
X69484283Y-68977510D01*
X69651290Y-69144517D01*
X69651293Y-69144519D01*
X69651297Y-69144523D01*
X69651300Y-69144525D01*
X69825658Y-69271204D01*
X69891607Y-69342547D01*
X69925234Y-69433697D01*
X69928300Y-69472649D01*
X69928300Y-73029751D01*
X69909346Y-73125039D01*
X69855370Y-73205821D01*
X69825658Y-73231196D01*
X69651300Y-73357874D01*
X69651297Y-73357877D01*
X69651293Y-73357880D01*
X69651290Y-73357883D01*
X69566202Y-73442971D01*
X69484278Y-73524895D01*
X69345459Y-73715962D01*
X69238230Y-73926412D01*
X69165246Y-74151035D01*
X69128301Y-74384296D01*
X69128300Y-74384312D01*
X69128300Y-74620487D01*
X69128301Y-74620503D01*
X69165246Y-74853764D01*
X69234209Y-75066013D01*
X69238232Y-75078392D01*
X69285953Y-75172049D01*
X69345459Y-75288837D01*
X69484278Y-75479904D01*
X69484280Y-75479906D01*
X69484283Y-75479910D01*
X69651290Y-75646917D01*
X69651293Y-75646919D01*
X69651297Y-75646923D01*
X69651300Y-75646925D01*
X69825658Y-75773604D01*
X69891607Y-75844947D01*
X69925234Y-75936097D01*
X69928300Y-75975049D01*
X69928300Y-83297798D01*
X69955218Y-83433124D01*
X69955219Y-83433127D01*
X70008022Y-83560605D01*
X70008023Y-83560607D01*
X70008025Y-83560611D01*
X70084686Y-83675343D01*
X70926572Y-84517229D01*
X70980546Y-84598008D01*
X70999500Y-84693296D01*
X70999500Y-85010217D01*
X70999501Y-85010232D01*
X71033982Y-85227938D01*
X71033984Y-85227945D01*
X71033985Y-85227951D01*
X71102105Y-85437606D01*
X71102106Y-85437607D01*
X71102109Y-85437616D01*
X71202179Y-85634013D01*
X71202188Y-85634026D01*
X71336318Y-85818643D01*
X71376992Y-85906874D01*
X71380806Y-86003954D01*
X71347179Y-86095103D01*
X71336318Y-86111357D01*
X71202188Y-86295973D01*
X71202179Y-86295986D01*
X71102109Y-86492383D01*
X71102105Y-86492392D01*
X71102105Y-86492394D01*
X71033985Y-86702049D01*
X71033984Y-86702052D01*
X71033984Y-86702054D01*
X71033982Y-86702061D01*
X70999501Y-86919767D01*
X70999500Y-86919782D01*
X70999500Y-87740217D01*
X70999501Y-87740232D01*
X71033982Y-87957938D01*
X71033984Y-87957945D01*
X71033985Y-87957951D01*
X71102105Y-88167606D01*
X71102106Y-88167607D01*
X71102109Y-88167616D01*
X71202179Y-88364013D01*
X71202183Y-88364019D01*
X71202185Y-88364022D01*
X71331758Y-88542365D01*
X71487635Y-88698242D01*
X71665978Y-88827815D01*
X71665981Y-88827816D01*
X71665986Y-88827820D01*
X71862383Y-88927890D01*
X71862386Y-88927891D01*
X71862394Y-88927895D01*
X72072049Y-88996015D01*
X72072060Y-88996016D01*
X72072061Y-88996017D01*
X72094052Y-88999500D01*
X72289778Y-89030500D01*
X72289782Y-89030500D01*
X72510218Y-89030500D01*
X72510222Y-89030500D01*
X72727951Y-88996015D01*
X72937606Y-88927895D01*
X72979592Y-88906502D01*
X73134013Y-88827820D01*
X73134015Y-88827818D01*
X73134022Y-88827815D01*
X73312365Y-88698242D01*
X73468242Y-88542365D01*
X73597815Y-88364022D01*
X73617408Y-88325570D01*
X73697890Y-88167616D01*
X73697890Y-88167615D01*
X73697895Y-88167606D01*
X73766015Y-87957951D01*
X73800500Y-87740222D01*
X73800500Y-86919778D01*
X73766015Y-86702049D01*
X73697895Y-86492394D01*
X73697891Y-86492386D01*
X73697890Y-86492383D01*
X73597820Y-86295986D01*
X73597816Y-86295981D01*
X73597815Y-86295978D01*
X73468242Y-86117635D01*
X73468240Y-86117633D01*
X73463681Y-86111358D01*
X73423007Y-86023127D01*
X73419193Y-85926047D01*
X73452820Y-85834897D01*
X73463681Y-85818642D01*
X73468239Y-85812367D01*
X73468242Y-85812365D01*
X73597815Y-85634022D01*
X73697895Y-85437606D01*
X73766015Y-85227951D01*
X73800500Y-85010222D01*
X73800500Y-84189778D01*
X73766015Y-83972049D01*
X73697895Y-83762394D01*
X73697891Y-83762386D01*
X73697890Y-83762383D01*
X73597820Y-83565986D01*
X73597816Y-83565981D01*
X73597815Y-83565978D01*
X73468242Y-83387635D01*
X73312365Y-83231758D01*
X73134022Y-83102185D01*
X73134019Y-83102183D01*
X73134013Y-83102179D01*
X72937616Y-83002109D01*
X72937609Y-83002106D01*
X72937606Y-83002105D01*
X72727951Y-82933985D01*
X72727945Y-82933984D01*
X72727938Y-82933982D01*
X72510232Y-82899501D01*
X72510225Y-82899500D01*
X72510222Y-82899500D01*
X72289778Y-82899500D01*
X72289775Y-82899500D01*
X72289767Y-82899501D01*
X72072061Y-82933982D01*
X72072054Y-82933984D01*
X72072052Y-82933984D01*
X72072049Y-82933985D01*
X71862394Y-83002105D01*
X71862392Y-83002105D01*
X71862392Y-83002106D01*
X71862383Y-83002110D01*
X71712474Y-83078493D01*
X71702948Y-83081179D01*
X71694718Y-83086679D01*
X71656481Y-83094284D01*
X71618967Y-83104865D01*
X71609138Y-83103701D01*
X71599430Y-83105633D01*
X71561193Y-83098027D01*
X71522485Y-83093446D01*
X71513849Y-83088609D01*
X71504142Y-83086679D01*
X71471724Y-83065018D01*
X71437718Y-83045974D01*
X71423360Y-83032703D01*
X71402230Y-83011573D01*
X71348254Y-82930791D01*
X71329300Y-82835503D01*
X71329300Y-79512600D01*
X71348254Y-79417312D01*
X71402230Y-79336530D01*
X71483012Y-79282554D01*
X71578300Y-79263600D01*
X71673588Y-79282554D01*
X71691339Y-79290737D01*
X71862394Y-79377895D01*
X72072049Y-79446015D01*
X72072060Y-79446016D01*
X72072061Y-79446017D01*
X72125457Y-79454474D01*
X72289778Y-79480500D01*
X72289782Y-79480500D01*
X72510218Y-79480500D01*
X72510222Y-79480500D01*
X72727951Y-79446015D01*
X72937606Y-79377895D01*
X72960922Y-79366015D01*
X73134013Y-79277820D01*
X73134015Y-79277818D01*
X73134022Y-79277815D01*
X73312365Y-79148242D01*
X73468242Y-78992365D01*
X73574054Y-78846725D01*
X73645397Y-78780776D01*
X73736547Y-78747149D01*
X73833627Y-78750963D01*
X73921857Y-78791637D01*
X73987807Y-78862980D01*
X74021434Y-78954130D01*
X74024500Y-78993083D01*
X74024500Y-80988588D01*
X74052213Y-81163553D01*
X74070930Y-81221158D01*
X74070930Y-81221159D01*
X74099027Y-81307635D01*
X74106958Y-81332042D01*
X74106962Y-81332050D01*
X74106963Y-81332052D01*
X74187380Y-81489881D01*
X74187389Y-81489894D01*
X74290498Y-81631812D01*
X74290513Y-81631832D01*
X74291517Y-81633214D01*
X76891517Y-84233214D01*
X76891516Y-84233214D01*
X76965783Y-84307480D01*
X77016786Y-84358483D01*
X77098061Y-84417533D01*
X77160108Y-84462613D01*
X77160110Y-84462614D01*
X77283530Y-84525500D01*
X77317958Y-84543042D01*
X77486444Y-84597786D01*
X77533380Y-84605220D01*
X77661411Y-84625499D01*
X77661418Y-84625499D01*
X77661421Y-84625500D01*
X83930663Y-84625500D01*
X84025951Y-84644454D01*
X84106733Y-84698430D01*
X86801570Y-87393267D01*
X86855546Y-87474049D01*
X86874500Y-87569337D01*
X86874500Y-103825501D01*
X86855546Y-103920789D01*
X86801570Y-104001571D01*
X86720788Y-104055547D01*
X86625500Y-104074501D01*
X86460421Y-104074501D01*
X86460418Y-104074501D01*
X86460409Y-104074502D01*
X86285442Y-104102213D01*
X86285441Y-104102214D01*
X86116960Y-104156956D01*
X86116944Y-104156963D01*
X85959111Y-104237385D01*
X85959104Y-104237389D01*
X85815787Y-104341516D01*
X85815783Y-104341519D01*
X85641519Y-104515783D01*
X85641516Y-104515787D01*
X85537385Y-104659110D01*
X85486760Y-104758466D01*
X85486757Y-104758473D01*
X85477247Y-104777139D01*
X85456958Y-104816958D01*
X85402214Y-104985444D01*
X85391232Y-105054780D01*
X85388379Y-105072790D01*
X85388378Y-105072795D01*
X85374500Y-105160414D01*
X85374500Y-136075386D01*
X85355546Y-136170674D01*
X85301570Y-136251456D01*
X81970524Y-139582501D01*
X81889742Y-139636477D01*
X81794454Y-139655431D01*
X81699166Y-139636477D01*
X81618384Y-139582501D01*
X81612366Y-139576483D01*
X81612365Y-139576482D01*
X81434022Y-139446909D01*
X81434019Y-139446907D01*
X81434013Y-139446903D01*
X81237616Y-139346833D01*
X81237609Y-139346830D01*
X81237606Y-139346829D01*
X81027951Y-139278709D01*
X81027945Y-139278708D01*
X81027938Y-139278706D01*
X80810232Y-139244225D01*
X80810225Y-139244224D01*
X80810222Y-139244224D01*
X80589778Y-139244224D01*
X80589775Y-139244224D01*
X80589767Y-139244225D01*
X80372061Y-139278706D01*
X80372054Y-139278708D01*
X80372052Y-139278708D01*
X80372049Y-139278709D01*
X80162394Y-139346829D01*
X80162392Y-139346829D01*
X80162392Y-139346830D01*
X80162383Y-139346833D01*
X79965986Y-139446903D01*
X79965979Y-139446908D01*
X79780858Y-139581406D01*
X79692627Y-139622080D01*
X79595547Y-139625894D01*
X79504397Y-139592267D01*
X79433054Y-139526318D01*
X79392380Y-139438087D01*
X79385500Y-139379960D01*
X79385500Y-135580455D01*
X79404454Y-135485167D01*
X79458430Y-135404385D01*
X79539212Y-135350409D01*
X79634500Y-135331455D01*
X79729788Y-135350409D01*
X79784955Y-135382050D01*
X79862280Y-135440687D01*
X79997042Y-135493829D01*
X80081732Y-135504000D01*
X80545999Y-135504000D01*
X80546000Y-135503999D01*
X80546000Y-134390399D01*
X80570339Y-134404452D01*
X80721667Y-134445000D01*
X80878333Y-134445000D01*
X81029661Y-134404452D01*
X81054000Y-134390399D01*
X81054000Y-135503999D01*
X81054001Y-135504000D01*
X81518268Y-135504000D01*
X81602957Y-135493829D01*
X81602958Y-135493829D01*
X81737721Y-135440686D01*
X81853149Y-135353155D01*
X81853155Y-135353149D01*
X81940686Y-135237721D01*
X81993829Y-135102958D01*
X81993829Y-135102957D01*
X82004000Y-135018267D01*
X82004000Y-134104001D01*
X82003999Y-134104000D01*
X81340400Y-134104000D01*
X81354452Y-134079661D01*
X81395000Y-133928333D01*
X81395000Y-133771667D01*
X81354452Y-133620339D01*
X81340400Y-133596000D01*
X82003999Y-133596000D01*
X82004000Y-133595999D01*
X82004000Y-132681732D01*
X81993829Y-132597042D01*
X81993829Y-132597041D01*
X81940686Y-132462278D01*
X81853155Y-132346850D01*
X81853149Y-132346844D01*
X81737721Y-132259313D01*
X81602957Y-132206170D01*
X81518268Y-132196000D01*
X81054001Y-132196000D01*
X81054000Y-132196001D01*
X81054000Y-133309600D01*
X81029661Y-133295548D01*
X80878333Y-133255000D01*
X80721667Y-133255000D01*
X80570339Y-133295548D01*
X80546000Y-133309600D01*
X80546000Y-132196001D01*
X80545999Y-132196000D01*
X80081732Y-132196000D01*
X79997042Y-132206170D01*
X79997041Y-132206170D01*
X79862278Y-132259313D01*
X79746850Y-132346844D01*
X79746844Y-132346850D01*
X79708636Y-132397235D01*
X79635956Y-132461707D01*
X79544136Y-132493459D01*
X79447155Y-132487656D01*
X79359776Y-132445181D01*
X79334170Y-132422854D01*
X79204937Y-132293621D01*
X79020228Y-132159421D01*
X79020224Y-132159419D01*
X79020224Y-132159418D01*
X78816799Y-132055769D01*
X78816794Y-132055767D01*
X78696048Y-132016534D01*
X78599660Y-131985216D01*
X78599658Y-131985215D01*
X78599656Y-131985215D01*
X78374168Y-131949501D01*
X78374159Y-131949500D01*
X78374157Y-131949500D01*
X78145843Y-131949500D01*
X78145840Y-131949500D01*
X78145831Y-131949501D01*
X77920343Y-131985215D01*
X77703205Y-132055767D01*
X77703200Y-132055769D01*
X77499775Y-132159418D01*
X77499774Y-132159419D01*
X77499772Y-132159421D01*
X77435428Y-132206170D01*
X77315065Y-132293619D01*
X77153619Y-132455065D01*
X77125724Y-132493459D01*
X77028840Y-132626809D01*
X77019420Y-132639774D01*
X77019418Y-132639775D01*
X76915769Y-132843200D01*
X76915767Y-132843205D01*
X76845215Y-133060343D01*
X76809501Y-133285831D01*
X76809500Y-133285847D01*
X76809500Y-134414152D01*
X76809501Y-134414168D01*
X76845215Y-134639656D01*
X76915767Y-134856794D01*
X76915769Y-134856799D01*
X77019418Y-135060224D01*
X77019419Y-135060225D01*
X77019421Y-135060228D01*
X77073274Y-135134349D01*
X77086945Y-135153166D01*
X77127620Y-135241397D01*
X77134500Y-135299525D01*
X77134500Y-139612617D01*
X77130759Y-139631423D01*
X77131589Y-139650577D01*
X77122615Y-139672366D01*
X77115546Y-139707905D01*
X77098330Y-139741862D01*
X77092989Y-139750655D01*
X76959421Y-139934496D01*
X76855769Y-140137925D01*
X76853416Y-140145165D01*
X76841470Y-140164838D01*
X76821272Y-140186864D01*
X76804661Y-140211711D01*
X76788744Y-140222339D01*
X76775810Y-140236446D01*
X76748718Y-140249068D01*
X76723865Y-140265665D01*
X76705093Y-140269393D01*
X76687744Y-140277477D01*
X76657884Y-140278770D01*
X76628571Y-140284593D01*
X76609799Y-140280853D01*
X76590680Y-140281682D01*
X76562603Y-140271452D01*
X76533288Y-140265613D01*
X76517364Y-140254969D01*
X76499395Y-140248423D01*
X76477415Y-140228269D01*
X76452573Y-140211665D01*
X76369655Y-140128747D01*
X76369651Y-140128744D01*
X76369649Y-140128742D01*
X76197603Y-140013786D01*
X76197593Y-140013780D01*
X76006421Y-139934594D01*
X75938768Y-139921137D01*
X75803465Y-139894224D01*
X75596535Y-139894224D01*
X75513694Y-139910702D01*
X75393578Y-139934594D01*
X75202406Y-140013780D01*
X75202396Y-140013786D01*
X75030350Y-140128742D01*
X74884018Y-140275074D01*
X74769062Y-140447120D01*
X74769056Y-140447130D01*
X74689870Y-140638302D01*
X74649500Y-140841260D01*
X74649500Y-141048187D01*
X74689870Y-141251145D01*
X74769056Y-141442317D01*
X74769062Y-141442327D01*
X74884018Y-141614373D01*
X74884020Y-141614375D01*
X74884023Y-141614379D01*
X75030345Y-141760701D01*
X75030348Y-141760703D01*
X75030350Y-141760705D01*
X75093960Y-141803207D01*
X75202402Y-141875665D01*
X75202404Y-141875665D01*
X75202406Y-141875667D01*
X75276590Y-141906395D01*
X75393580Y-141954854D01*
X75596535Y-141995224D01*
X75596537Y-141995224D01*
X75803463Y-141995224D01*
X75803465Y-141995224D01*
X76006420Y-141954854D01*
X76197598Y-141875665D01*
X76369655Y-141760701D01*
X76452575Y-141677780D01*
X76533351Y-141623809D01*
X76628639Y-141604854D01*
X76723927Y-141623807D01*
X76804709Y-141677783D01*
X76848965Y-141744010D01*
X76851328Y-141742807D01*
X76959418Y-141954948D01*
X76959419Y-141954948D01*
X76959421Y-141954952D01*
X77093621Y-142139661D01*
X77255063Y-142301103D01*
X77439772Y-142435303D01*
X77439774Y-142435304D01*
X77439775Y-142435305D01*
X77453973Y-142442539D01*
X77643201Y-142538955D01*
X77860340Y-142609508D01*
X78085843Y-142645224D01*
X78085847Y-142645224D01*
X78314153Y-142645224D01*
X78314157Y-142645224D01*
X78539660Y-142609508D01*
X78756799Y-142538955D01*
X78960228Y-142435303D01*
X79144937Y-142301103D01*
X79284287Y-142161752D01*
X79365066Y-142107779D01*
X79460354Y-142088825D01*
X79555642Y-142107779D01*
X79636424Y-142161755D01*
X79787635Y-142312966D01*
X79965978Y-142442539D01*
X79965981Y-142442540D01*
X79965986Y-142442544D01*
X80162383Y-142542614D01*
X80162386Y-142542615D01*
X80162394Y-142542619D01*
X80372049Y-142610739D01*
X80372060Y-142610740D01*
X80372061Y-142610741D01*
X80432640Y-142620335D01*
X80589778Y-142645224D01*
X80589782Y-142645224D01*
X80810218Y-142645224D01*
X80810222Y-142645224D01*
X81027951Y-142610739D01*
X81237606Y-142542619D01*
X81244799Y-142538954D01*
X81434013Y-142442544D01*
X81434015Y-142442542D01*
X81434022Y-142442539D01*
X81612365Y-142312966D01*
X81768242Y-142157089D01*
X81775159Y-142150172D01*
X81776055Y-142151068D01*
X81844177Y-142097364D01*
X81937684Y-142070992D01*
X81957222Y-142070224D01*
X82288576Y-142070224D01*
X82288579Y-142070224D01*
X82288582Y-142070223D01*
X82288588Y-142070223D01*
X82416091Y-142050027D01*
X82463556Y-142042510D01*
X82632042Y-141987766D01*
X82642344Y-141982516D01*
X82642357Y-141982512D01*
X82642357Y-141982511D01*
X82740090Y-141932711D01*
X82789890Y-141907338D01*
X82933214Y-141803207D01*
X83058483Y-141677938D01*
X87358483Y-137377938D01*
X87381586Y-137346140D01*
X87462614Y-137234614D01*
X87543042Y-137076766D01*
X87597786Y-136908279D01*
X87599972Y-136894479D01*
X87625499Y-136733312D01*
X87625500Y-136733300D01*
X87625500Y-132098118D01*
X92399500Y-132098118D01*
X92399500Y-132451881D01*
X92434175Y-132803942D01*
X92503189Y-133150900D01*
X92503193Y-133150914D01*
X92605875Y-133489416D01*
X92605885Y-133489442D01*
X92741259Y-133816267D01*
X92741261Y-133816270D01*
X92908019Y-134128251D01*
X92908025Y-134128262D01*
X93104563Y-134422401D01*
X93104570Y-134422410D01*
X93254180Y-134604710D01*
X93328988Y-134695864D01*
X93579136Y-134946012D01*
X93641274Y-134997007D01*
X93852589Y-135170429D01*
X93852598Y-135170436D01*
X94146737Y-135366974D01*
X94146748Y-135366980D01*
X94458729Y-135533738D01*
X94458732Y-135533740D01*
X94571513Y-135580455D01*
X94785565Y-135669118D01*
X94785576Y-135669121D01*
X94785583Y-135669124D01*
X95124085Y-135771806D01*
X95124099Y-135771810D01*
X95240785Y-135795020D01*
X95471060Y-135840825D01*
X95823119Y-135875500D01*
X95823122Y-135875500D01*
X96176878Y-135875500D01*
X96176881Y-135875500D01*
X96528940Y-135840825D01*
X96875905Y-135771809D01*
X97101108Y-135703495D01*
X97214416Y-135669124D01*
X97214418Y-135669122D01*
X97214435Y-135669118D01*
X97541269Y-135533739D01*
X97853259Y-135366976D01*
X98147402Y-135170436D01*
X98420864Y-134946012D01*
X98671012Y-134695864D01*
X98895436Y-134422402D01*
X99091976Y-134128259D01*
X99258739Y-133816269D01*
X99394118Y-133489435D01*
X99415413Y-133419236D01*
X99472546Y-133230889D01*
X99496809Y-133150905D01*
X99565825Y-132803940D01*
X99600500Y-132451881D01*
X99600500Y-132098119D01*
X99565825Y-131746060D01*
X99499537Y-131412807D01*
X99496810Y-131399099D01*
X99496806Y-131399085D01*
X99394124Y-131060583D01*
X99394121Y-131060576D01*
X99394118Y-131060565D01*
X99295249Y-130821873D01*
X99258740Y-130733732D01*
X99258738Y-130733729D01*
X99091980Y-130421748D01*
X99091974Y-130421737D01*
X98895436Y-130127598D01*
X98895429Y-130127589D01*
X98720577Y-129914531D01*
X98671012Y-129854136D01*
X98420864Y-129603988D01*
X98295926Y-129501454D01*
X98147410Y-129379570D01*
X98147401Y-129379563D01*
X97853262Y-129183025D01*
X97853251Y-129183019D01*
X97541270Y-129016261D01*
X97541267Y-129016259D01*
X97214442Y-128880885D01*
X97214435Y-128880882D01*
X97214431Y-128880880D01*
X97214416Y-128880875D01*
X96875914Y-128778193D01*
X96875900Y-128778189D01*
X96528942Y-128709175D01*
X96176881Y-128674500D01*
X95823119Y-128674500D01*
X95823118Y-128674500D01*
X95471057Y-128709175D01*
X95124099Y-128778189D01*
X95124085Y-128778193D01*
X94785583Y-128880875D01*
X94785557Y-128880885D01*
X94458732Y-129016259D01*
X94458729Y-129016261D01*
X94146748Y-129183019D01*
X94146737Y-129183025D01*
X93852598Y-129379563D01*
X93852589Y-129379570D01*
X93579139Y-129603985D01*
X93328985Y-129854139D01*
X93104570Y-130127589D01*
X93104563Y-130127598D01*
X92908025Y-130421737D01*
X92908019Y-130421748D01*
X92741261Y-130733729D01*
X92741259Y-130733732D01*
X92605885Y-131060557D01*
X92605875Y-131060583D01*
X92503193Y-131399085D01*
X92503189Y-131399099D01*
X92434175Y-131746057D01*
X92399500Y-132098118D01*
X87625500Y-132098118D01*
X87625500Y-113454337D01*
X87644454Y-113359049D01*
X87698430Y-113278267D01*
X87779212Y-113224291D01*
X87874500Y-113205337D01*
X87969788Y-113224291D01*
X88050570Y-113278267D01*
X91491432Y-116719129D01*
X91545408Y-116799911D01*
X91552175Y-116818254D01*
X91557295Y-116834013D01*
X91563995Y-116854632D01*
X91563999Y-116854640D01*
X91564000Y-116854642D01*
X91644364Y-117012366D01*
X91654213Y-117031694D01*
X91771019Y-117192464D01*
X91911536Y-117332981D01*
X91981641Y-117383915D01*
X92072306Y-117449787D01*
X92167330Y-117498205D01*
X92243627Y-117558353D01*
X92291099Y-117643120D01*
X92302518Y-117739602D01*
X92276146Y-117833109D01*
X92215998Y-117909406D01*
X92200647Y-117921508D01*
X92165542Y-117947013D01*
X92025016Y-118087539D01*
X91908212Y-118248306D01*
X91818000Y-118425357D01*
X91817991Y-118425378D01*
X91756589Y-118614357D01*
X91756584Y-118614376D01*
X91725501Y-118810628D01*
X91725500Y-118810643D01*
X91725500Y-119009356D01*
X91725501Y-119009371D01*
X91756584Y-119205623D01*
X91756589Y-119205642D01*
X91813567Y-119381006D01*
X91817995Y-119394632D01*
X91817999Y-119394640D01*
X91818000Y-119394642D01*
X91848240Y-119453992D01*
X91908213Y-119571694D01*
X92025019Y-119732464D01*
X92165536Y-119872981D01*
X92165539Y-119872983D01*
X92165542Y-119872986D01*
X92200644Y-119898489D01*
X92266593Y-119969832D01*
X92300220Y-120060982D01*
X92296406Y-120158062D01*
X92255731Y-120246292D01*
X92184388Y-120312241D01*
X92167332Y-120321793D01*
X92072307Y-120370211D01*
X91911539Y-120487016D01*
X91771016Y-120627539D01*
X91654212Y-120788306D01*
X91564000Y-120965357D01*
X91563991Y-120965378D01*
X91502589Y-121154357D01*
X91502584Y-121154376D01*
X91471501Y-121350628D01*
X91471500Y-121350643D01*
X91471500Y-121549356D01*
X91471501Y-121549371D01*
X91502584Y-121745623D01*
X91502589Y-121745642D01*
X91548729Y-121887650D01*
X91563995Y-121934632D01*
X91563999Y-121934640D01*
X91564000Y-121934642D01*
X91654212Y-122111693D01*
X91725467Y-122209767D01*
X91771019Y-122272464D01*
X91911536Y-122412981D01*
X92072306Y-122529787D01*
X92249368Y-122620005D01*
X92438364Y-122681413D01*
X92438375Y-122681414D01*
X92438376Y-122681415D01*
X92492985Y-122690064D01*
X92634639Y-122712500D01*
X92634643Y-122712500D01*
X94357357Y-122712500D01*
X94357361Y-122712500D01*
X94553636Y-122681413D01*
X94742632Y-122620005D01*
X94776715Y-122602639D01*
X94870223Y-122576268D01*
X94889758Y-122575500D01*
X109480663Y-122575500D01*
X109575951Y-122594454D01*
X109656733Y-122648430D01*
X115481142Y-128472839D01*
X115535118Y-128553621D01*
X115554072Y-128648909D01*
X115535118Y-128744197D01*
X115481142Y-128824979D01*
X115400360Y-128878955D01*
X115305072Y-128897909D01*
X115220818Y-128881170D01*
X115220185Y-128882940D01*
X115214416Y-128880875D01*
X114875914Y-128778193D01*
X114875900Y-128778189D01*
X114528942Y-128709175D01*
X114176881Y-128674500D01*
X113823119Y-128674500D01*
X113823118Y-128674500D01*
X113471057Y-128709175D01*
X113124099Y-128778189D01*
X113124085Y-128778193D01*
X112785583Y-128880875D01*
X112785557Y-128880885D01*
X112458732Y-129016259D01*
X112458729Y-129016261D01*
X112146748Y-129183019D01*
X112146737Y-129183025D01*
X111852598Y-129379563D01*
X111852589Y-129379570D01*
X111579139Y-129603985D01*
X111328985Y-129854139D01*
X111104570Y-130127589D01*
X111104563Y-130127598D01*
X110908025Y-130421737D01*
X110908019Y-130421748D01*
X110741261Y-130733729D01*
X110741259Y-130733732D01*
X110605885Y-131060557D01*
X110605875Y-131060583D01*
X110503193Y-131399085D01*
X110503189Y-131399099D01*
X110434175Y-131746057D01*
X110399500Y-132098118D01*
X110399500Y-132451881D01*
X110434175Y-132803942D01*
X110503189Y-133150900D01*
X110503193Y-133150914D01*
X110605875Y-133489416D01*
X110605885Y-133489442D01*
X110741259Y-133816267D01*
X110741261Y-133816270D01*
X110908019Y-134128251D01*
X110908025Y-134128262D01*
X111104563Y-134422401D01*
X111104570Y-134422410D01*
X111254180Y-134604710D01*
X111328988Y-134695864D01*
X111579136Y-134946012D01*
X111641274Y-134997007D01*
X111852589Y-135170429D01*
X111852598Y-135170436D01*
X112146737Y-135366974D01*
X112146748Y-135366980D01*
X112458729Y-135533738D01*
X112458732Y-135533740D01*
X112571513Y-135580455D01*
X112785565Y-135669118D01*
X112785576Y-135669121D01*
X112785583Y-135669124D01*
X113124085Y-135771806D01*
X113124099Y-135771810D01*
X113240785Y-135795020D01*
X113471060Y-135840825D01*
X113823119Y-135875500D01*
X113823122Y-135875500D01*
X114176878Y-135875500D01*
X114176881Y-135875500D01*
X114528940Y-135840825D01*
X114875905Y-135771809D01*
X115101108Y-135703495D01*
X115214416Y-135669124D01*
X115214418Y-135669122D01*
X115214435Y-135669118D01*
X115541269Y-135533739D01*
X115853259Y-135366976D01*
X116147402Y-135170436D01*
X116420864Y-134946012D01*
X116671012Y-134695864D01*
X116895436Y-134422402D01*
X117091976Y-134128259D01*
X117258739Y-133816269D01*
X117394118Y-133489435D01*
X117415413Y-133419236D01*
X117472546Y-133230889D01*
X117496809Y-133150905D01*
X117565825Y-132803940D01*
X117600500Y-132451881D01*
X117600500Y-132098119D01*
X117565825Y-131746060D01*
X117499537Y-131412807D01*
X117496810Y-131399099D01*
X117496806Y-131399085D01*
X117394124Y-131060583D01*
X117392060Y-131054815D01*
X117393848Y-131054174D01*
X117377090Y-130969933D01*
X117396042Y-130874645D01*
X117450016Y-130793862D01*
X117530796Y-130739883D01*
X117626084Y-130720927D01*
X117721372Y-130739879D01*
X117802155Y-130793853D01*
X117802160Y-130793857D01*
X119891517Y-132883214D01*
X119891516Y-132883214D01*
X119958096Y-132949793D01*
X120016786Y-133008483D01*
X120160110Y-133112614D01*
X120317958Y-133193042D01*
X120344839Y-133201776D01*
X120434440Y-133230889D01*
X120472831Y-133247024D01*
X120489047Y-133255499D01*
X120498390Y-133262287D01*
X120643694Y-133336323D01*
X120644790Y-133336896D01*
X120681639Y-133366569D01*
X120718796Y-133395861D01*
X120719437Y-133397006D01*
X120720460Y-133397830D01*
X120743136Y-133439323D01*
X120766268Y-133480628D01*
X120766422Y-133481933D01*
X120767052Y-133483085D01*
X120772128Y-133530148D01*
X120777687Y-133577110D01*
X120777331Y-133578372D01*
X120777472Y-133579679D01*
X120764156Y-133625086D01*
X120751316Y-133670617D01*
X120750502Y-133671648D01*
X120750133Y-133672909D01*
X120720459Y-133709758D01*
X120691168Y-133746915D01*
X120689556Y-133748134D01*
X120689199Y-133748579D01*
X120688374Y-133749029D01*
X120667793Y-133764609D01*
X120508118Y-133871301D01*
X120361302Y-134018117D01*
X120245957Y-134190743D01*
X120245954Y-134190748D01*
X120166504Y-134382557D01*
X120155874Y-134436000D01*
X121149297Y-134436000D01*
X121114075Y-134497007D01*
X121080000Y-134624174D01*
X121080000Y-134755826D01*
X121114075Y-134882993D01*
X121149297Y-134944000D01*
X120155874Y-134944000D01*
X120166504Y-134997442D01*
X120245954Y-135189251D01*
X120245957Y-135189256D01*
X120361302Y-135361882D01*
X120508117Y-135508697D01*
X120680743Y-135624042D01*
X120680748Y-135624045D01*
X120872556Y-135703495D01*
X121076193Y-135744000D01*
X121325999Y-135744000D01*
X121326000Y-135743999D01*
X121326000Y-135120702D01*
X121387007Y-135155925D01*
X121514174Y-135190000D01*
X121645826Y-135190000D01*
X121772993Y-135155925D01*
X121834000Y-135120702D01*
X121834000Y-135743999D01*
X121834001Y-135744000D01*
X122083807Y-135744000D01*
X122287443Y-135703495D01*
X122479251Y-135624045D01*
X122479256Y-135624042D01*
X122651882Y-135508697D01*
X122798697Y-135361882D01*
X122914042Y-135189256D01*
X122914045Y-135189251D01*
X122993495Y-134997442D01*
X123004126Y-134944000D01*
X122010703Y-134944000D01*
X122045925Y-134882993D01*
X122080000Y-134755826D01*
X122080000Y-134624174D01*
X122045925Y-134497007D01*
X122010703Y-134436000D01*
X123004126Y-134436000D01*
X122993495Y-134382557D01*
X122914045Y-134190748D01*
X122914042Y-134190743D01*
X122798697Y-134018117D01*
X122651881Y-133871301D01*
X122492206Y-133764609D01*
X122423508Y-133695910D01*
X122386328Y-133606151D01*
X122386329Y-133508996D01*
X122423509Y-133419236D01*
X122492208Y-133350538D01*
X122517483Y-133335723D01*
X122661610Y-133262287D01*
X122827219Y-133141966D01*
X122971966Y-132997219D01*
X123092287Y-132831610D01*
X123185220Y-132649219D01*
X123248477Y-132454534D01*
X123273964Y-132293619D01*
X123280499Y-132252361D01*
X123280500Y-132252349D01*
X123280500Y-132047650D01*
X123280499Y-132047638D01*
X123253494Y-131877141D01*
X123248477Y-131845466D01*
X123185220Y-131650781D01*
X123092287Y-131468390D01*
X122971966Y-131302781D01*
X122827219Y-131158034D01*
X122721801Y-131081444D01*
X122655854Y-131010103D01*
X122622227Y-130918953D01*
X122626041Y-130821873D01*
X122666715Y-130733642D01*
X122721802Y-130678555D01*
X122827219Y-130601966D01*
X122971966Y-130457219D01*
X123092287Y-130291610D01*
X123185220Y-130109219D01*
X123248477Y-129914534D01*
X123280500Y-129712352D01*
X123280500Y-129507648D01*
X123280499Y-129507645D01*
X123280499Y-129507638D01*
X123248701Y-129306881D01*
X123248477Y-129305466D01*
X123185220Y-129110781D01*
X123092287Y-128928390D01*
X122971966Y-128762781D01*
X122827219Y-128618034D01*
X122721801Y-128541444D01*
X122655854Y-128470103D01*
X122622227Y-128378953D01*
X122626041Y-128281873D01*
X122666715Y-128193642D01*
X122721802Y-128138555D01*
X122827219Y-128061966D01*
X122971966Y-127917219D01*
X123092287Y-127751610D01*
X123185220Y-127569219D01*
X123248477Y-127374534D01*
X123280500Y-127172352D01*
X123280500Y-126967648D01*
X123280499Y-126967645D01*
X123280499Y-126967638D01*
X123248477Y-126765468D01*
X123248477Y-126765466D01*
X123185220Y-126570781D01*
X123092287Y-126388390D01*
X122971966Y-126222781D01*
X122827219Y-126078034D01*
X122721801Y-126001444D01*
X122655854Y-125930103D01*
X122622227Y-125838953D01*
X122626041Y-125741873D01*
X122666715Y-125653642D01*
X122721800Y-125598556D01*
X122827219Y-125521966D01*
X122971966Y-125377219D01*
X123092287Y-125211610D01*
X123185220Y-125029219D01*
X123248477Y-124834534D01*
X123280500Y-124632352D01*
X123280500Y-124427648D01*
X123280499Y-124427645D01*
X123280499Y-124427638D01*
X123248477Y-124225468D01*
X123248477Y-124225466D01*
X123185220Y-124030781D01*
X123092287Y-123848390D01*
X122971966Y-123682781D01*
X122827219Y-123538034D01*
X122661610Y-123417713D01*
X122661609Y-123417712D01*
X122661607Y-123417711D01*
X122517500Y-123344285D01*
X122441203Y-123284137D01*
X122393731Y-123199370D01*
X122382312Y-123102888D01*
X122408684Y-123009381D01*
X122468832Y-122933084D01*
X122492207Y-122915389D01*
X122651882Y-122808697D01*
X122798697Y-122661882D01*
X122914042Y-122489256D01*
X122914045Y-122489251D01*
X122993495Y-122297442D01*
X123004126Y-122244000D01*
X122010703Y-122244000D01*
X122045925Y-122182993D01*
X122080000Y-122055826D01*
X122080000Y-121924174D01*
X122045925Y-121797007D01*
X122010703Y-121736000D01*
X123004126Y-121736000D01*
X122993495Y-121682557D01*
X122914045Y-121490748D01*
X122914042Y-121490743D01*
X122798697Y-121318117D01*
X122651882Y-121171302D01*
X122492207Y-121064611D01*
X122481741Y-121054145D01*
X122468831Y-121046915D01*
X122447675Y-121020079D01*
X122423508Y-120995912D01*
X122417844Y-120982239D01*
X122408683Y-120970618D01*
X122399408Y-120937731D01*
X122386328Y-120906153D01*
X122386328Y-120891350D01*
X122382312Y-120877110D01*
X122386328Y-120843178D01*
X122386328Y-120808998D01*
X122391991Y-120795324D01*
X122393731Y-120780629D01*
X122410429Y-120750813D01*
X122423508Y-120719238D01*
X122433973Y-120708772D01*
X122441204Y-120695862D01*
X122468039Y-120674706D01*
X122492207Y-120650539D01*
X122517496Y-120635716D01*
X122582415Y-120602639D01*
X122675923Y-120576268D01*
X122695458Y-120575500D01*
X123430663Y-120575500D01*
X123525951Y-120594454D01*
X123606733Y-120648430D01*
X128191517Y-125233214D01*
X128191516Y-125233214D01*
X128285338Y-125327035D01*
X128316786Y-125358483D01*
X128401467Y-125420007D01*
X128460108Y-125462613D01*
X128460110Y-125462614D01*
X128537529Y-125502061D01*
X128617957Y-125543042D01*
X128786444Y-125597786D01*
X128810368Y-125601575D01*
X128961421Y-125625500D01*
X129632414Y-125625500D01*
X129671331Y-125628560D01*
X129677010Y-125629459D01*
X129677012Y-125629460D01*
X129677023Y-125629461D01*
X129677039Y-125629464D01*
X129817340Y-125651685D01*
X129841414Y-125655499D01*
X129841415Y-125655499D01*
X129841421Y-125655500D01*
X135394175Y-125655500D01*
X135489463Y-125674454D01*
X135570245Y-125728430D01*
X135624221Y-125809212D01*
X135643175Y-125904500D01*
X135624221Y-125999788D01*
X135570245Y-126080570D01*
X135428035Y-126222779D01*
X135307711Y-126388392D01*
X135214782Y-126570775D01*
X135214778Y-126570785D01*
X135151522Y-126765468D01*
X135119500Y-126967638D01*
X135119500Y-127172361D01*
X135151522Y-127374531D01*
X135214778Y-127569214D01*
X135214782Y-127569224D01*
X135224722Y-127588732D01*
X135307713Y-127751610D01*
X135426845Y-127915583D01*
X135428035Y-127917220D01*
X135572781Y-128061966D01*
X135572785Y-128061969D01*
X135678196Y-128138555D01*
X135693688Y-128155314D01*
X135712339Y-128168476D01*
X135726347Y-128190645D01*
X135744145Y-128209898D01*
X135752044Y-128231310D01*
X135764238Y-128250607D01*
X135768696Y-128276448D01*
X135777772Y-128301048D01*
X135776876Y-128323853D01*
X135780757Y-128346347D01*
X135774987Y-128371926D01*
X135773958Y-128398128D01*
X135764401Y-128418856D01*
X135759380Y-128441121D01*
X135747197Y-128456175D01*
X135733283Y-128486358D01*
X135703362Y-128520501D01*
X135691467Y-128531803D01*
X135572781Y-128618034D01*
X135428034Y-128762781D01*
X135382611Y-128825300D01*
X135366089Y-128841001D01*
X135343922Y-128855007D01*
X135324668Y-128872807D01*
X135303252Y-128880707D01*
X135283958Y-128892900D01*
X135258118Y-128897358D01*
X135233518Y-128906434D01*
X135194565Y-128909500D01*
X131723790Y-128909500D01*
X131675212Y-128904715D01*
X131648994Y-128899500D01*
X131648993Y-128899500D01*
X125748560Y-128899500D01*
X125653272Y-128880546D01*
X125578347Y-128830483D01*
X125578236Y-128830620D01*
X125576854Y-128829486D01*
X125572493Y-128826572D01*
X125568782Y-128822861D01*
X125404914Y-128713368D01*
X125404911Y-128713366D01*
X125404908Y-128713365D01*
X125222835Y-128637949D01*
X125222830Y-128637947D01*
X125029545Y-128599500D01*
X125029541Y-128599500D01*
X124832459Y-128599500D01*
X124832454Y-128599500D01*
X124639169Y-128637947D01*
X124639164Y-128637949D01*
X124457091Y-128713365D01*
X124457084Y-128713369D01*
X124293221Y-128822858D01*
X124153858Y-128962221D01*
X124044369Y-129126084D01*
X124044365Y-129126091D01*
X123968949Y-129308164D01*
X123968947Y-129308169D01*
X123930500Y-129501454D01*
X123930500Y-129698545D01*
X123968947Y-129891830D01*
X123968949Y-129891835D01*
X124044365Y-130073908D01*
X124044366Y-130073911D01*
X124044368Y-130073914D01*
X124153861Y-130237782D01*
X124293218Y-130377139D01*
X124457086Y-130486632D01*
X124639165Y-130562051D01*
X124639167Y-130562051D01*
X124639169Y-130562052D01*
X124729453Y-130580011D01*
X124819212Y-130617190D01*
X124887911Y-130685889D01*
X124925091Y-130775649D01*
X124925091Y-130872802D01*
X124899500Y-131001459D01*
X124899500Y-131198545D01*
X124937947Y-131391830D01*
X124937949Y-131391835D01*
X125013365Y-131573908D01*
X125013366Y-131573911D01*
X125013368Y-131573914D01*
X125122861Y-131737782D01*
X125262218Y-131877139D01*
X125426086Y-131986632D01*
X125608165Y-132062051D01*
X125608167Y-132062051D01*
X125608169Y-132062052D01*
X125789484Y-132098118D01*
X125801459Y-132100500D01*
X125998541Y-132100500D01*
X126191835Y-132062051D01*
X126373914Y-131986632D01*
X126537782Y-131877139D01*
X126541493Y-131873427D01*
X126545854Y-131870513D01*
X126547236Y-131869380D01*
X126547347Y-131869516D01*
X126622272Y-131819454D01*
X126717560Y-131800500D01*
X131706703Y-131800500D01*
X131801991Y-131819454D01*
X131882772Y-131873430D01*
X132703456Y-132694113D01*
X132703462Y-132694118D01*
X132818183Y-132770771D01*
X132818189Y-132770775D01*
X132945671Y-132823580D01*
X132972591Y-132828934D01*
X133081007Y-132850500D01*
X135194565Y-132850500D01*
X135289853Y-132869454D01*
X135370635Y-132923430D01*
X135396006Y-132953137D01*
X135428034Y-132997219D01*
X135428035Y-132997220D01*
X135428036Y-132997221D01*
X135572774Y-133141960D01*
X135572776Y-133141962D01*
X135572779Y-133141964D01*
X135572781Y-133141966D01*
X135738390Y-133262287D01*
X135882500Y-133335715D01*
X135958796Y-133395861D01*
X136006268Y-133480628D01*
X136017687Y-133577110D01*
X135991316Y-133670617D01*
X135931168Y-133746915D01*
X135907793Y-133764609D01*
X135748118Y-133871301D01*
X135601302Y-134018117D01*
X135485957Y-134190743D01*
X135485954Y-134190748D01*
X135406504Y-134382557D01*
X135395874Y-134436000D01*
X136389297Y-134436000D01*
X136354075Y-134497007D01*
X136320000Y-134624174D01*
X136320000Y-134755826D01*
X136354075Y-134882993D01*
X136389297Y-134944000D01*
X135395874Y-134944000D01*
X135406504Y-134997442D01*
X135485954Y-135189251D01*
X135485957Y-135189256D01*
X135601302Y-135361882D01*
X135748117Y-135508697D01*
X135920743Y-135624042D01*
X135920748Y-135624045D01*
X136112556Y-135703495D01*
X136316193Y-135744000D01*
X136565999Y-135744000D01*
X136566000Y-135743999D01*
X136566000Y-135120702D01*
X136627007Y-135155925D01*
X136754174Y-135190000D01*
X136885826Y-135190000D01*
X137012993Y-135155925D01*
X137074000Y-135120702D01*
X137074000Y-135743999D01*
X137074001Y-135744000D01*
X137323807Y-135744000D01*
X137527443Y-135703495D01*
X137719251Y-135624045D01*
X137719256Y-135624042D01*
X137891882Y-135508697D01*
X138038697Y-135361882D01*
X138154042Y-135189256D01*
X138154045Y-135189251D01*
X138233495Y-134997442D01*
X138244126Y-134944000D01*
X137250703Y-134944000D01*
X137285925Y-134882993D01*
X137320000Y-134755826D01*
X137320000Y-134624174D01*
X137285925Y-134497007D01*
X137250703Y-134436000D01*
X138244126Y-134436000D01*
X138233495Y-134382557D01*
X138154045Y-134190748D01*
X138154042Y-134190743D01*
X138038697Y-134018117D01*
X137891881Y-133871301D01*
X137732206Y-133764609D01*
X137663508Y-133695910D01*
X137626328Y-133606151D01*
X137626329Y-133508996D01*
X137663509Y-133419236D01*
X137732208Y-133350538D01*
X137757483Y-133335723D01*
X137901610Y-133262287D01*
X138067219Y-133141966D01*
X138211966Y-132997219D01*
X138332287Y-132831610D01*
X138425220Y-132649219D01*
X138488477Y-132454534D01*
X138513964Y-132293619D01*
X138520499Y-132252361D01*
X138520500Y-132252349D01*
X138520500Y-132047650D01*
X138520499Y-132047638D01*
X138493494Y-131877141D01*
X138488477Y-131845466D01*
X138425220Y-131650781D01*
X138332287Y-131468390D01*
X138211966Y-131302781D01*
X138067219Y-131158034D01*
X137961801Y-131081444D01*
X137895854Y-131010103D01*
X137862227Y-130918953D01*
X137866041Y-130821873D01*
X137906715Y-130733642D01*
X137961802Y-130678555D01*
X138067219Y-130601966D01*
X138211966Y-130457219D01*
X138332287Y-130291610D01*
X138425220Y-130109219D01*
X138488477Y-129914534D01*
X138520500Y-129712352D01*
X138520500Y-129507648D01*
X138520499Y-129507645D01*
X138520499Y-129507638D01*
X138488701Y-129306881D01*
X138488477Y-129305466D01*
X138425220Y-129110781D01*
X138332287Y-128928390D01*
X138211966Y-128762781D01*
X138067219Y-128618034D01*
X137961801Y-128541444D01*
X137895854Y-128470103D01*
X137862227Y-128378953D01*
X137866041Y-128281873D01*
X137906715Y-128193642D01*
X137961802Y-128138555D01*
X138067219Y-128061966D01*
X138211966Y-127917219D01*
X138332287Y-127751610D01*
X138425220Y-127569219D01*
X138488477Y-127374534D01*
X138496487Y-127323959D01*
X138530113Y-127232812D01*
X138596061Y-127161469D01*
X138684291Y-127120793D01*
X138781371Y-127116978D01*
X138837705Y-127132866D01*
X138908165Y-127162051D01*
X138908168Y-127162051D01*
X138908169Y-127162052D01*
X138959996Y-127172361D01*
X139101459Y-127200500D01*
X139298541Y-127200500D01*
X139491835Y-127162051D01*
X139673914Y-127086632D01*
X139837782Y-126977139D01*
X139977139Y-126837782D01*
X140086632Y-126673914D01*
X140162051Y-126491835D01*
X140200500Y-126298541D01*
X140200500Y-126101459D01*
X140170985Y-125953078D01*
X140170984Y-125855923D01*
X140208164Y-125766164D01*
X140276862Y-125697465D01*
X140366622Y-125660285D01*
X140415200Y-125655500D01*
X142268385Y-125655500D01*
X142363673Y-125674454D01*
X142444455Y-125728430D01*
X142498431Y-125809212D01*
X142517385Y-125904500D01*
X142498431Y-125999788D01*
X142444455Y-126080570D01*
X142406722Y-126111536D01*
X142222598Y-126234563D01*
X142222589Y-126234570D01*
X141949139Y-126458985D01*
X141698985Y-126709139D01*
X141474570Y-126982589D01*
X141474563Y-126982598D01*
X141278025Y-127276737D01*
X141278019Y-127276748D01*
X141111261Y-127588729D01*
X141111259Y-127588732D01*
X140975885Y-127915557D01*
X140975875Y-127915583D01*
X140873193Y-128254085D01*
X140873189Y-128254099D01*
X140804175Y-128601057D01*
X140769500Y-128953118D01*
X140769500Y-129306881D01*
X140804175Y-129658942D01*
X140873189Y-130005900D01*
X140873193Y-130005914D01*
X140975875Y-130344416D01*
X140975885Y-130344442D01*
X141111259Y-130671267D01*
X141111261Y-130671270D01*
X141278019Y-130983251D01*
X141278025Y-130983262D01*
X141474563Y-131277401D01*
X141474570Y-131277410D01*
X141585688Y-131412807D01*
X141698988Y-131550864D01*
X141949136Y-131801012D01*
X142098105Y-131923268D01*
X142222589Y-132025429D01*
X142222598Y-132025436D01*
X142516737Y-132221974D01*
X142516748Y-132221980D01*
X142828729Y-132388738D01*
X142828732Y-132388740D01*
X142911077Y-132422848D01*
X143155565Y-132524118D01*
X143155576Y-132524121D01*
X143155583Y-132524124D01*
X143494085Y-132626806D01*
X143494099Y-132626810D01*
X143559264Y-132639772D01*
X143841060Y-132695825D01*
X144193119Y-132730500D01*
X144193122Y-132730500D01*
X144546878Y-132730500D01*
X144546881Y-132730500D01*
X144898940Y-132695825D01*
X145245905Y-132626809D01*
X145426341Y-132572074D01*
X145584416Y-132524124D01*
X145584418Y-132524122D01*
X145584435Y-132524118D01*
X145911269Y-132388739D01*
X146223259Y-132221976D01*
X146517402Y-132025436D01*
X146790864Y-131801012D01*
X147041012Y-131550864D01*
X147265436Y-131277402D01*
X147461976Y-130983259D01*
X147628739Y-130671269D01*
X147764118Y-130344435D01*
X147768663Y-130329454D01*
X147835471Y-130109214D01*
X147866809Y-130005905D01*
X147935825Y-129658940D01*
X147970500Y-129306881D01*
X147970500Y-128953119D01*
X147970500Y-128953118D01*
X150929500Y-128953118D01*
X150929500Y-129306881D01*
X150964175Y-129658942D01*
X151033189Y-130005900D01*
X151033193Y-130005914D01*
X151135875Y-130344416D01*
X151135885Y-130344442D01*
X151271259Y-130671267D01*
X151271261Y-130671270D01*
X151438019Y-130983251D01*
X151438025Y-130983262D01*
X151634563Y-131277401D01*
X151634570Y-131277410D01*
X151745688Y-131412807D01*
X151858988Y-131550864D01*
X152109136Y-131801012D01*
X152258105Y-131923268D01*
X152382589Y-132025429D01*
X152382598Y-132025436D01*
X152676737Y-132221974D01*
X152676748Y-132221980D01*
X152988729Y-132388738D01*
X152988732Y-132388740D01*
X153071077Y-132422848D01*
X153315565Y-132524118D01*
X153315576Y-132524121D01*
X153315583Y-132524124D01*
X153654085Y-132626806D01*
X153654099Y-132626810D01*
X153719264Y-132639772D01*
X154001060Y-132695825D01*
X154353119Y-132730500D01*
X154353122Y-132730500D01*
X154706878Y-132730500D01*
X154706881Y-132730500D01*
X155058940Y-132695825D01*
X155405905Y-132626809D01*
X155586341Y-132572074D01*
X155744416Y-132524124D01*
X155744418Y-132524122D01*
X155744435Y-132524118D01*
X156071269Y-132388739D01*
X156383259Y-132221976D01*
X156677402Y-132025436D01*
X156950864Y-131801012D01*
X157201012Y-131550864D01*
X157425436Y-131277402D01*
X157621976Y-130983259D01*
X157788739Y-130671269D01*
X157924118Y-130344435D01*
X157928663Y-130329454D01*
X157995471Y-130109214D01*
X158026809Y-130005905D01*
X158095825Y-129658940D01*
X158130500Y-129306881D01*
X158130500Y-128953119D01*
X158095825Y-128601060D01*
X158036149Y-128301048D01*
X158026810Y-128254099D01*
X158026806Y-128254085D01*
X157924124Y-127915583D01*
X157924121Y-127915576D01*
X157924118Y-127915565D01*
X157851079Y-127739233D01*
X157788740Y-127588732D01*
X157788738Y-127588729D01*
X157621980Y-127276748D01*
X157621974Y-127276737D01*
X157425436Y-126982598D01*
X157425429Y-126982589D01*
X157306589Y-126837782D01*
X157201012Y-126709136D01*
X156950864Y-126458988D01*
X156835136Y-126364013D01*
X156677410Y-126234570D01*
X156677401Y-126234563D01*
X156383262Y-126038025D01*
X156383251Y-126038019D01*
X156071270Y-125871261D01*
X156071267Y-125871259D01*
X155770264Y-125746580D01*
X155744435Y-125735882D01*
X155744431Y-125735880D01*
X155744416Y-125735875D01*
X155405914Y-125633193D01*
X155405900Y-125633189D01*
X155058942Y-125564175D01*
X154706881Y-125529500D01*
X154353119Y-125529500D01*
X154353118Y-125529500D01*
X154001057Y-125564175D01*
X153654099Y-125633189D01*
X153654085Y-125633193D01*
X153315583Y-125735875D01*
X153315557Y-125735885D01*
X152988732Y-125871259D01*
X152988729Y-125871261D01*
X152676748Y-126038019D01*
X152676737Y-126038025D01*
X152382598Y-126234563D01*
X152382589Y-126234570D01*
X152109139Y-126458985D01*
X151858985Y-126709139D01*
X151634570Y-126982589D01*
X151634563Y-126982598D01*
X151438025Y-127276737D01*
X151438019Y-127276748D01*
X151271261Y-127588729D01*
X151271259Y-127588732D01*
X151135885Y-127915557D01*
X151135875Y-127915583D01*
X151033193Y-128254085D01*
X151033189Y-128254099D01*
X150964175Y-128601057D01*
X150929500Y-128953118D01*
X147970500Y-128953118D01*
X147935825Y-128601060D01*
X147876149Y-128301048D01*
X147866810Y-128254099D01*
X147866806Y-128254085D01*
X147764124Y-127915583D01*
X147764121Y-127915576D01*
X147764118Y-127915565D01*
X147691079Y-127739233D01*
X147628740Y-127588732D01*
X147628738Y-127588729D01*
X147461980Y-127276748D01*
X147461974Y-127276737D01*
X147265436Y-126982598D01*
X147265429Y-126982589D01*
X147146589Y-126837782D01*
X147041012Y-126709136D01*
X146790864Y-126458988D01*
X146675136Y-126364013D01*
X146517410Y-126234570D01*
X146517401Y-126234563D01*
X146223262Y-126038025D01*
X146223251Y-126038019D01*
X145911270Y-125871261D01*
X145911267Y-125871259D01*
X145610264Y-125746580D01*
X145584435Y-125735882D01*
X145584431Y-125735880D01*
X145584416Y-125735875D01*
X145245914Y-125633193D01*
X145245900Y-125633189D01*
X144898942Y-125564175D01*
X144546881Y-125529500D01*
X144193119Y-125529500D01*
X144193118Y-125529500D01*
X143980612Y-125550430D01*
X143883925Y-125540907D01*
X143798242Y-125495108D01*
X143736607Y-125420007D01*
X143708405Y-125327035D01*
X143717928Y-125230348D01*
X143763727Y-125144665D01*
X143780137Y-125126559D01*
X144072163Y-124834534D01*
X145085484Y-123821214D01*
X145152117Y-123729500D01*
X145189614Y-123677890D01*
X145201773Y-123654028D01*
X145214875Y-123628311D01*
X145270042Y-123520042D01*
X145324786Y-123351556D01*
X145344118Y-123229500D01*
X145352499Y-123176588D01*
X145352500Y-123176576D01*
X145352500Y-119823423D01*
X145352499Y-119823416D01*
X145346013Y-119782464D01*
X145324786Y-119648444D01*
X145270042Y-119479958D01*
X145219623Y-119381006D01*
X145189614Y-119322110D01*
X145145277Y-119261086D01*
X145095785Y-119192965D01*
X145055110Y-119104734D01*
X145051296Y-119007654D01*
X145084923Y-118916504D01*
X145121156Y-118870540D01*
X148358483Y-115633214D01*
X148358485Y-115633210D01*
X148358489Y-115633207D01*
X148358489Y-115633206D01*
X148368822Y-115618984D01*
X148392316Y-115586647D01*
X148462614Y-115489890D01*
X148543042Y-115332042D01*
X148544694Y-115326958D01*
X148597786Y-115163556D01*
X148604280Y-115122558D01*
X148625499Y-114988588D01*
X148625500Y-114988576D01*
X148625500Y-104823118D01*
X158499500Y-104823118D01*
X158499500Y-105176881D01*
X158534175Y-105528942D01*
X158603189Y-105875900D01*
X158603193Y-105875914D01*
X158705875Y-106214416D01*
X158705880Y-106214430D01*
X158705882Y-106214435D01*
X158723728Y-106257518D01*
X158841259Y-106541267D01*
X158841261Y-106541270D01*
X159008019Y-106853251D01*
X159008025Y-106853262D01*
X159204563Y-107147401D01*
X159204570Y-107147410D01*
X159285810Y-107246401D01*
X159428988Y-107420864D01*
X159679136Y-107671012D01*
X159803933Y-107773430D01*
X159952589Y-107895429D01*
X159952598Y-107895436D01*
X160246737Y-108091974D01*
X160246748Y-108091980D01*
X160558729Y-108258738D01*
X160558732Y-108258740D01*
X160660229Y-108300781D01*
X160885565Y-108394118D01*
X160885576Y-108394121D01*
X160885583Y-108394124D01*
X161224085Y-108496806D01*
X161224099Y-108496810D01*
X161340785Y-108520020D01*
X161571060Y-108565825D01*
X161923119Y-108600500D01*
X161923122Y-108600500D01*
X162276878Y-108600500D01*
X162276881Y-108600500D01*
X162628940Y-108565825D01*
X162975905Y-108496809D01*
X163169510Y-108438080D01*
X163314416Y-108394124D01*
X163314418Y-108394122D01*
X163314435Y-108394118D01*
X163641269Y-108258739D01*
X163953259Y-108091976D01*
X164247402Y-107895436D01*
X164520864Y-107671012D01*
X164771012Y-107420864D01*
X164995436Y-107147402D01*
X165191976Y-106853259D01*
X165358739Y-106541269D01*
X165494118Y-106214435D01*
X165510190Y-106161454D01*
X165542074Y-106056341D01*
X165596809Y-105875905D01*
X165665825Y-105528940D01*
X165700500Y-105176881D01*
X165700500Y-104823119D01*
X165665825Y-104471060D01*
X165603346Y-104156958D01*
X165596810Y-104124099D01*
X165596806Y-104124085D01*
X165494124Y-103785583D01*
X165494121Y-103785576D01*
X165494118Y-103785565D01*
X165394385Y-103544788D01*
X165358740Y-103458732D01*
X165358738Y-103458729D01*
X165191980Y-103146748D01*
X165191974Y-103146737D01*
X164995436Y-102852598D01*
X164995429Y-102852589D01*
X164794464Y-102607713D01*
X164771012Y-102579136D01*
X164520864Y-102328988D01*
X164420404Y-102246543D01*
X164247410Y-102104570D01*
X164247401Y-102104563D01*
X163953262Y-101908025D01*
X163953251Y-101908019D01*
X163641270Y-101741261D01*
X163641267Y-101741259D01*
X163314442Y-101605885D01*
X163314435Y-101605882D01*
X163314431Y-101605880D01*
X163314416Y-101605875D01*
X162975914Y-101503193D01*
X162975900Y-101503189D01*
X162628942Y-101434175D01*
X162276881Y-101399500D01*
X161923119Y-101399500D01*
X161923118Y-101399500D01*
X161571057Y-101434175D01*
X161224099Y-101503189D01*
X161224085Y-101503193D01*
X160885583Y-101605875D01*
X160885557Y-101605885D01*
X160558732Y-101741259D01*
X160558729Y-101741261D01*
X160246748Y-101908019D01*
X160246737Y-101908025D01*
X159952598Y-102104563D01*
X159952589Y-102104570D01*
X159679139Y-102328985D01*
X159428985Y-102579139D01*
X159204570Y-102852589D01*
X159204563Y-102852598D01*
X159008025Y-103146737D01*
X159008019Y-103146748D01*
X158841261Y-103458729D01*
X158841259Y-103458732D01*
X158705885Y-103785557D01*
X158705875Y-103785583D01*
X158603193Y-104124085D01*
X158603189Y-104124099D01*
X158534175Y-104471057D01*
X158499500Y-104823118D01*
X148625500Y-104823118D01*
X148625500Y-90911425D01*
X148625500Y-90911421D01*
X148605715Y-90786503D01*
X148597786Y-90736444D01*
X148543042Y-90567958D01*
X148513658Y-90510289D01*
X148462614Y-90410110D01*
X148358483Y-90266786D01*
X148309233Y-90217536D01*
X148233214Y-90141516D01*
X148233214Y-90141517D01*
X145713214Y-87621517D01*
X145713210Y-87621514D01*
X145713209Y-87621513D01*
X145713210Y-87621513D01*
X145677806Y-87595791D01*
X145677802Y-87595789D01*
X145664713Y-87586279D01*
X145569890Y-87517386D01*
X145412042Y-87436958D01*
X145369434Y-87423114D01*
X145243556Y-87382214D01*
X145243553Y-87382213D01*
X145068588Y-87354500D01*
X145068579Y-87354500D01*
X143524758Y-87354500D01*
X143429470Y-87335546D01*
X143411715Y-87327361D01*
X143377638Y-87309998D01*
X143377637Y-87309997D01*
X143377632Y-87309995D01*
X143377625Y-87309993D01*
X143377621Y-87309991D01*
X143188642Y-87248589D01*
X143188636Y-87248587D01*
X143188631Y-87248586D01*
X143188623Y-87248584D01*
X142992371Y-87217501D01*
X142992364Y-87217500D01*
X142992361Y-87217500D01*
X142992357Y-87217500D01*
X142563338Y-87217500D01*
X142468050Y-87198546D01*
X142387268Y-87144570D01*
X138728267Y-83485569D01*
X138674291Y-83404787D01*
X138655337Y-83309499D01*
X138674291Y-83214211D01*
X138728264Y-83133432D01*
X139754484Y-82107214D01*
X139858614Y-81963890D01*
X139939042Y-81806042D01*
X139993786Y-81637555D01*
X139995682Y-81625582D01*
X140021499Y-81462587D01*
X140021500Y-81462575D01*
X140021500Y-80693118D01*
X140769500Y-80693118D01*
X140769500Y-81046881D01*
X140804175Y-81398942D01*
X140873189Y-81745900D01*
X140873193Y-81745914D01*
X140975875Y-82084416D01*
X140975885Y-82084442D01*
X141111259Y-82411267D01*
X141111261Y-82411270D01*
X141278019Y-82723251D01*
X141278025Y-82723262D01*
X141474563Y-83017401D01*
X141474570Y-83017410D01*
X141580101Y-83146000D01*
X141698988Y-83290864D01*
X141949136Y-83541012D01*
X142070028Y-83640225D01*
X142222589Y-83765429D01*
X142222598Y-83765436D01*
X142516737Y-83961974D01*
X142516748Y-83961980D01*
X142828729Y-84128738D01*
X142828732Y-84128740D01*
X142976066Y-84189767D01*
X143155565Y-84264118D01*
X143155576Y-84264121D01*
X143155583Y-84264124D01*
X143494085Y-84366806D01*
X143494099Y-84366810D01*
X143610785Y-84390020D01*
X143841060Y-84435825D01*
X144193119Y-84470500D01*
X144193122Y-84470500D01*
X144546878Y-84470500D01*
X144546881Y-84470500D01*
X144898940Y-84435825D01*
X145245905Y-84366809D01*
X145426341Y-84312074D01*
X145584416Y-84264124D01*
X145584418Y-84264122D01*
X145584435Y-84264118D01*
X145911269Y-84128739D01*
X146223259Y-83961976D01*
X146517402Y-83765436D01*
X146790864Y-83541012D01*
X147041012Y-83290864D01*
X147265436Y-83017402D01*
X147461976Y-82723259D01*
X147628739Y-82411269D01*
X147764118Y-82084435D01*
X147866809Y-81745905D01*
X147935825Y-81398940D01*
X147970500Y-81046881D01*
X147970500Y-80693119D01*
X147970500Y-80693118D01*
X150929500Y-80693118D01*
X150929500Y-81046881D01*
X150964175Y-81398942D01*
X151033189Y-81745900D01*
X151033193Y-81745914D01*
X151135875Y-82084416D01*
X151135885Y-82084442D01*
X151271259Y-82411267D01*
X151271261Y-82411270D01*
X151438019Y-82723251D01*
X151438025Y-82723262D01*
X151634563Y-83017401D01*
X151634570Y-83017410D01*
X151740101Y-83146000D01*
X151858988Y-83290864D01*
X152109136Y-83541012D01*
X152230028Y-83640225D01*
X152382589Y-83765429D01*
X152382598Y-83765436D01*
X152676737Y-83961974D01*
X152676748Y-83961980D01*
X152988729Y-84128738D01*
X152988732Y-84128740D01*
X153136066Y-84189767D01*
X153315565Y-84264118D01*
X153315576Y-84264121D01*
X153315583Y-84264124D01*
X153654085Y-84366806D01*
X153654099Y-84366810D01*
X153770785Y-84390020D01*
X154001060Y-84435825D01*
X154353119Y-84470500D01*
X154353122Y-84470500D01*
X154706878Y-84470500D01*
X154706881Y-84470500D01*
X155058940Y-84435825D01*
X155405905Y-84366809D01*
X155586341Y-84312074D01*
X155744416Y-84264124D01*
X155744418Y-84264122D01*
X155744435Y-84264118D01*
X156071269Y-84128739D01*
X156383259Y-83961976D01*
X156677402Y-83765436D01*
X156950864Y-83541012D01*
X157201012Y-83290864D01*
X157425436Y-83017402D01*
X157621976Y-82723259D01*
X157788739Y-82411269D01*
X157924118Y-82084435D01*
X158026809Y-81745905D01*
X158095825Y-81398940D01*
X158130500Y-81046881D01*
X158130500Y-80693119D01*
X158095825Y-80341060D01*
X158039327Y-80057025D01*
X158026810Y-79994099D01*
X158026806Y-79994085D01*
X157924124Y-79655583D01*
X157924121Y-79655576D01*
X157924118Y-79655565D01*
X157851079Y-79479233D01*
X157788740Y-79328732D01*
X157788738Y-79328729D01*
X157621980Y-79016748D01*
X157621974Y-79016737D01*
X157425436Y-78722598D01*
X157425429Y-78722589D01*
X157299382Y-78569000D01*
X157201012Y-78449136D01*
X156950864Y-78198988D01*
X156811913Y-78084954D01*
X156677410Y-77974570D01*
X156677401Y-77974563D01*
X156383262Y-77778025D01*
X156383251Y-77778019D01*
X156071270Y-77611261D01*
X156071267Y-77611259D01*
X155744442Y-77475885D01*
X155744435Y-77475882D01*
X155744431Y-77475880D01*
X155744416Y-77475875D01*
X155405914Y-77373193D01*
X155405900Y-77373189D01*
X155058942Y-77304175D01*
X154706881Y-77269500D01*
X154353119Y-77269500D01*
X154353118Y-77269500D01*
X154001057Y-77304175D01*
X153654099Y-77373189D01*
X153654085Y-77373193D01*
X153315583Y-77475875D01*
X153315557Y-77475885D01*
X152988732Y-77611259D01*
X152988729Y-77611261D01*
X152676748Y-77778019D01*
X152676737Y-77778025D01*
X152382598Y-77974563D01*
X152382589Y-77974570D01*
X152109139Y-78198985D01*
X151858985Y-78449139D01*
X151634570Y-78722589D01*
X151634563Y-78722598D01*
X151438025Y-79016737D01*
X151438019Y-79016748D01*
X151271261Y-79328729D01*
X151271259Y-79328732D01*
X151135885Y-79655557D01*
X151135875Y-79655583D01*
X151033193Y-79994085D01*
X151033189Y-79994099D01*
X150964175Y-80341057D01*
X150929500Y-80693118D01*
X147970500Y-80693118D01*
X147935825Y-80341060D01*
X147879327Y-80057025D01*
X147866810Y-79994099D01*
X147866806Y-79994085D01*
X147764124Y-79655583D01*
X147764121Y-79655576D01*
X147764118Y-79655565D01*
X147691079Y-79479233D01*
X147628740Y-79328732D01*
X147628738Y-79328729D01*
X147461980Y-79016748D01*
X147461974Y-79016737D01*
X147265436Y-78722598D01*
X147265429Y-78722589D01*
X147139382Y-78569000D01*
X147041012Y-78449136D01*
X146790864Y-78198988D01*
X146651913Y-78084954D01*
X146517410Y-77974570D01*
X146517401Y-77974563D01*
X146223262Y-77778025D01*
X146223251Y-77778019D01*
X145911270Y-77611261D01*
X145911267Y-77611259D01*
X145584442Y-77475885D01*
X145584435Y-77475882D01*
X145584431Y-77475880D01*
X145584416Y-77475875D01*
X145245914Y-77373193D01*
X145245900Y-77373189D01*
X144898942Y-77304175D01*
X144546881Y-77269500D01*
X144193119Y-77269500D01*
X144193118Y-77269500D01*
X143841057Y-77304175D01*
X143494099Y-77373189D01*
X143494085Y-77373193D01*
X143155583Y-77475875D01*
X143155557Y-77475885D01*
X142828732Y-77611259D01*
X142828729Y-77611261D01*
X142516748Y-77778019D01*
X142516737Y-77778025D01*
X142222598Y-77974563D01*
X142222589Y-77974570D01*
X141949139Y-78198985D01*
X141698985Y-78449139D01*
X141474570Y-78722589D01*
X141474563Y-78722598D01*
X141278025Y-79016737D01*
X141278019Y-79016748D01*
X141111261Y-79328729D01*
X141111259Y-79328732D01*
X140975885Y-79655557D01*
X140975875Y-79655583D01*
X140873193Y-79994085D01*
X140873189Y-79994099D01*
X140804175Y-80341057D01*
X140769500Y-80693118D01*
X140021500Y-80693118D01*
X140021500Y-75017912D01*
X140021499Y-75017900D01*
X139993788Y-74842945D01*
X139993787Y-74842943D01*
X139993786Y-74842934D01*
X139939042Y-74674447D01*
X139858614Y-74516599D01*
X139858607Y-74516589D01*
X139840779Y-74492050D01*
X139840779Y-74492051D01*
X139754484Y-74373275D01*
X137936316Y-72555107D01*
X136183429Y-70802220D01*
X136129453Y-70721438D01*
X136110499Y-70626150D01*
X136110499Y-68178134D01*
X136110499Y-68178128D01*
X136104091Y-68118517D01*
X136053796Y-67983669D01*
X135967546Y-67868454D01*
X135852331Y-67782204D01*
X135764647Y-67749500D01*
X135717481Y-67731908D01*
X135657873Y-67725500D01*
X133962134Y-67725500D01*
X133962130Y-67725500D01*
X133962128Y-67725501D01*
X133949314Y-67726878D01*
X133902519Y-67731908D01*
X133902515Y-67731909D01*
X133767670Y-67782203D01*
X133652455Y-67868453D01*
X133652453Y-67868455D01*
X133566203Y-67983670D01*
X133537298Y-68061168D01*
X133486239Y-68143824D01*
X133407435Y-68200649D01*
X133312884Y-68222991D01*
X133216980Y-68207450D01*
X133134324Y-68156391D01*
X133096960Y-68112484D01*
X133088696Y-68100116D01*
X132941882Y-67953302D01*
X132769256Y-67837957D01*
X132769251Y-67837954D01*
X132577442Y-67758504D01*
X132524000Y-67747874D01*
X132524000Y-69056058D01*
X132466081Y-69022619D01*
X132336880Y-68988000D01*
X132203120Y-68988000D01*
X132073919Y-69022619D01*
X132016000Y-69056058D01*
X132016000Y-67747874D01*
X131962557Y-67758504D01*
X131770748Y-67837954D01*
X131770743Y-67837957D01*
X131598117Y-67953302D01*
X131451302Y-68100117D01*
X131335957Y-68272743D01*
X131335955Y-68272747D01*
X131304915Y-68347683D01*
X131250938Y-68428463D01*
X131170156Y-68482439D01*
X131074867Y-68501392D01*
X130979579Y-68482437D01*
X130898799Y-68428460D01*
X130853011Y-68365437D01*
X130842287Y-68344390D01*
X130721966Y-68178781D01*
X130577219Y-68034034D01*
X130411610Y-67913713D01*
X130411609Y-67913712D01*
X130411607Y-67913711D01*
X130229224Y-67820782D01*
X130229214Y-67820778D01*
X130034531Y-67757522D01*
X129832361Y-67725500D01*
X129832352Y-67725500D01*
X129627648Y-67725500D01*
X129627644Y-67725500D01*
X129573833Y-67734023D01*
X129476753Y-67730208D01*
X129388523Y-67689532D01*
X129358813Y-67664157D01*
X128962845Y-67268189D01*
X128521543Y-66826886D01*
X128406811Y-66750225D01*
X128406807Y-66750223D01*
X128406805Y-66750222D01*
X128279327Y-66697419D01*
X128279324Y-66697418D01*
X128143998Y-66670500D01*
X128143994Y-66670500D01*
X128143993Y-66670500D01*
X126678681Y-66670500D01*
X126540693Y-66670500D01*
X126540688Y-66670500D01*
X126405362Y-66697418D01*
X126405359Y-66697419D01*
X126277881Y-66750222D01*
X126277877Y-66750224D01*
X126277876Y-66750225D01*
X126220123Y-66788814D01*
X126163145Y-66826885D01*
X125005883Y-67984147D01*
X125005880Y-67984151D01*
X124980618Y-68021957D01*
X124949656Y-68059685D01*
X121925570Y-71083772D01*
X121844788Y-71137748D01*
X121749500Y-71156702D01*
X121654212Y-71137748D01*
X121573430Y-71083772D01*
X121519454Y-71002990D01*
X121500500Y-70907702D01*
X121500500Y-64619500D01*
X121519454Y-64524212D01*
X121573430Y-64443430D01*
X121654212Y-64389454D01*
X121749500Y-64370500D01*
X154416653Y-64370500D01*
X154511941Y-64389454D01*
X154592723Y-64443430D01*
X167146570Y-76997277D01*
X167200546Y-77078059D01*
X167219500Y-77173347D01*
X167219500Y-132846653D01*
X167200546Y-132941941D01*
X167146570Y-133022723D01*
X154592723Y-145576570D01*
X154511941Y-145630546D01*
X154416653Y-145649500D01*
X121749500Y-145649500D01*
X121654212Y-145630546D01*
X121573430Y-145576570D01*
X121519454Y-145495788D01*
X121500500Y-145400500D01*
X121500500Y-138628880D01*
X121466270Y-138368887D01*
X121466270Y-138368884D01*
X121398398Y-138115581D01*
X121378345Y-138067170D01*
X121376293Y-138060179D01*
X121367226Y-138040325D01*
X121365522Y-138036211D01*
X121298045Y-137873308D01*
X121298043Y-137873303D01*
X121298039Y-137873296D01*
X121264099Y-137814510D01*
X121257600Y-137800278D01*
X121240704Y-137773989D01*
X121237735Y-137768847D01*
X121237735Y-137768845D01*
X121166926Y-137646201D01*
X121166923Y-137646196D01*
X121121873Y-137587486D01*
X121121873Y-137587485D01*
X121115551Y-137579247D01*
X121103127Y-137559914D01*
X121082067Y-137535610D01*
X121077553Y-137529727D01*
X121007287Y-137438154D01*
X121007284Y-137438151D01*
X120941171Y-137372037D01*
X120941171Y-137372038D01*
X120934888Y-137365755D01*
X120916020Y-137343980D01*
X120894244Y-137325111D01*
X120887960Y-137318827D01*
X120887957Y-137318823D01*
X120821853Y-137252720D01*
X120821852Y-137252719D01*
X120821845Y-137252714D01*
X120724393Y-137177935D01*
X120700086Y-137156873D01*
X120680753Y-137144448D01*
X120672528Y-137138137D01*
X120672521Y-137138132D01*
X120613800Y-137093074D01*
X120491156Y-137022266D01*
X120491156Y-137022265D01*
X120486005Y-137019291D01*
X120459722Y-137002400D01*
X120445491Y-136995901D01*
X120435220Y-136989971D01*
X120435218Y-136989970D01*
X120386697Y-136961957D01*
X120223766Y-136894468D01*
X120219661Y-136892767D01*
X120199821Y-136883707D01*
X120192832Y-136881655D01*
X120180496Y-136876545D01*
X120144420Y-136861602D01*
X120066906Y-136840832D01*
X119891116Y-136793730D01*
X119891111Y-136793729D01*
X119891114Y-136793729D01*
X119631120Y-136759500D01*
X119500207Y-136759500D01*
X90480500Y-136759500D01*
X90480000Y-136759500D01*
X90348880Y-136759500D01*
X90088887Y-136793729D01*
X89835583Y-136861601D01*
X89835570Y-136861606D01*
X89799496Y-136876547D01*
X89799497Y-136876548D01*
X89787167Y-136881655D01*
X89780179Y-136883707D01*
X89760342Y-136892766D01*
X89756207Y-136894479D01*
X89756205Y-136894479D01*
X89593296Y-136961960D01*
X89544778Y-136989971D01*
X89534497Y-136995906D01*
X89520278Y-137002400D01*
X89494022Y-137019273D01*
X89488858Y-137022255D01*
X89488849Y-137022261D01*
X89366195Y-137093076D01*
X89307476Y-137138131D01*
X89307477Y-137138132D01*
X89299237Y-137144454D01*
X89279914Y-137156873D01*
X89255620Y-137177923D01*
X89249733Y-137182441D01*
X89249731Y-137182441D01*
X89158152Y-137252714D01*
X89158145Y-137252721D01*
X89092044Y-137318820D01*
X89092045Y-137318821D01*
X89085747Y-137325118D01*
X89063980Y-137343980D01*
X89045118Y-137365747D01*
X89038821Y-137372045D01*
X89038817Y-137372047D01*
X88972721Y-137438145D01*
X88972714Y-137438152D01*
X88902440Y-137529732D01*
X88902441Y-137529733D01*
X88897923Y-137535620D01*
X88876873Y-137559914D01*
X88864455Y-137579236D01*
X88858135Y-137587473D01*
X88813076Y-137646195D01*
X88742261Y-137768849D01*
X88739279Y-137774012D01*
X88722400Y-137800278D01*
X88715908Y-137814492D01*
X88709973Y-137824773D01*
X88709971Y-137824778D01*
X88681960Y-137873296D01*
X88614478Y-138036206D01*
X88614479Y-138036207D01*
X88612766Y-138040342D01*
X88603707Y-138060179D01*
X88601655Y-138067167D01*
X88596548Y-138079497D01*
X88596546Y-138079500D01*
X88581606Y-138115570D01*
X88581601Y-138115583D01*
X88513729Y-138368887D01*
X88479500Y-138628880D01*
X88479500Y-145400500D01*
X88460546Y-145495788D01*
X88406570Y-145576570D01*
X88325788Y-145630546D01*
X88230500Y-145649500D01*
X70803347Y-145649500D01*
X70708059Y-145630546D01*
X70627277Y-145576570D01*
X68233430Y-143182723D01*
X68179454Y-143101941D01*
X68160500Y-143006653D01*
X68160500Y-132404001D01*
X71246000Y-132404001D01*
X71246000Y-132540831D01*
X71274413Y-132720218D01*
X71274417Y-132720232D01*
X71330544Y-132892974D01*
X71330546Y-132892980D01*
X71413013Y-133054832D01*
X71519775Y-133201776D01*
X71648223Y-133330224D01*
X71795167Y-133436986D01*
X71957019Y-133519453D01*
X71957025Y-133519455D01*
X72129772Y-133575584D01*
X72145999Y-133578154D01*
X72146000Y-133578154D01*
X72146000Y-132861686D01*
X72154394Y-132870080D01*
X72245606Y-132922741D01*
X72347339Y-132950000D01*
X72452661Y-132950000D01*
X72554394Y-132922741D01*
X72645606Y-132870080D01*
X72654000Y-132861686D01*
X72654000Y-133578154D01*
X72670227Y-133575584D01*
X72842974Y-133519455D01*
X72842980Y-133519453D01*
X73004832Y-133436986D01*
X73151776Y-133330224D01*
X73280224Y-133201776D01*
X73386986Y-133054832D01*
X73469453Y-132892980D01*
X73469455Y-132892974D01*
X73525582Y-132720232D01*
X73525586Y-132720218D01*
X73553999Y-132540831D01*
X73554000Y-132540819D01*
X73554000Y-132404001D01*
X73553999Y-132404000D01*
X72774990Y-132404000D01*
X72772741Y-132395606D01*
X72720080Y-132304394D01*
X72645606Y-132229920D01*
X72554394Y-132177259D01*
X72452661Y-132150000D01*
X72347339Y-132150000D01*
X72245606Y-132177259D01*
X72154394Y-132229920D01*
X72079920Y-132304394D01*
X72027259Y-132395606D01*
X72025010Y-132404000D01*
X71246001Y-132404000D01*
X71246000Y-132404001D01*
X68160500Y-132404001D01*
X68160500Y-131759168D01*
X71246000Y-131759168D01*
X71246000Y-131895999D01*
X71246001Y-131896000D01*
X72145999Y-131896000D01*
X72146000Y-131895999D01*
X72654000Y-131895999D01*
X72654001Y-131896000D01*
X73553999Y-131896000D01*
X73554000Y-131895999D01*
X73554000Y-131759180D01*
X73553999Y-131759168D01*
X73525586Y-131579781D01*
X73525582Y-131579767D01*
X73469455Y-131407025D01*
X73469453Y-131407019D01*
X73386986Y-131245167D01*
X73280224Y-131098223D01*
X73151776Y-130969775D01*
X73004832Y-130863013D01*
X72842980Y-130780546D01*
X72842977Y-130780545D01*
X72670228Y-130724415D01*
X72654000Y-130721844D01*
X72654000Y-131895999D01*
X72146000Y-131895999D01*
X72146000Y-130721844D01*
X72129771Y-130724415D01*
X71957022Y-130780545D01*
X71957019Y-130780546D01*
X71795167Y-130863013D01*
X71648223Y-130969775D01*
X71519775Y-131098223D01*
X71413013Y-131245167D01*
X71330546Y-131407019D01*
X71330544Y-131407025D01*
X71274417Y-131579767D01*
X71274413Y-131579781D01*
X71246000Y-131759168D01*
X68160500Y-131759168D01*
X68160500Y-122209782D01*
X70999500Y-122209782D01*
X70999500Y-123030217D01*
X70999501Y-123030232D01*
X71033982Y-123247938D01*
X71033984Y-123247945D01*
X71033985Y-123247951D01*
X71102105Y-123457606D01*
X71102106Y-123457607D01*
X71102109Y-123457616D01*
X71202179Y-123654013D01*
X71202188Y-123654026D01*
X71329053Y-123828643D01*
X71369727Y-123916873D01*
X71373541Y-124013953D01*
X71339914Y-124105103D01*
X71329053Y-124121357D01*
X71202188Y-124295973D01*
X71202179Y-124295986D01*
X71102109Y-124492383D01*
X71102105Y-124492392D01*
X71102105Y-124492394D01*
X71033985Y-124702049D01*
X71033984Y-124702052D01*
X71033984Y-124702054D01*
X71033982Y-124702061D01*
X70999501Y-124919767D01*
X70999500Y-124919782D01*
X70999500Y-125740217D01*
X70999501Y-125740232D01*
X71033982Y-125957938D01*
X71033984Y-125957945D01*
X71033985Y-125957951D01*
X71102105Y-126167606D01*
X71102106Y-126167607D01*
X71102109Y-126167616D01*
X71202179Y-126364013D01*
X71202183Y-126364019D01*
X71202185Y-126364022D01*
X71331758Y-126542365D01*
X71487635Y-126698242D01*
X71665978Y-126827815D01*
X71665981Y-126827816D01*
X71665986Y-126827820D01*
X71862383Y-126927890D01*
X71862386Y-126927891D01*
X71862394Y-126927895D01*
X72072049Y-126996015D01*
X72072060Y-126996016D01*
X72072061Y-126996017D01*
X72132640Y-127005611D01*
X72289778Y-127030500D01*
X72289782Y-127030500D01*
X72510218Y-127030500D01*
X72510222Y-127030500D01*
X72727951Y-126996015D01*
X72937606Y-126927895D01*
X72937616Y-126927890D01*
X73134013Y-126827820D01*
X73134015Y-126827818D01*
X73134022Y-126827815D01*
X73312365Y-126698242D01*
X73468242Y-126542365D01*
X73597815Y-126364022D01*
X73663779Y-126234563D01*
X73697890Y-126167616D01*
X73697890Y-126167615D01*
X73697895Y-126167606D01*
X73766015Y-125957951D01*
X73800500Y-125740222D01*
X73800500Y-124919778D01*
X73766015Y-124702049D01*
X73697895Y-124492394D01*
X73697891Y-124492386D01*
X73697890Y-124492383D01*
X73597820Y-124295986D01*
X73597810Y-124295971D01*
X73470947Y-124121358D01*
X73430272Y-124033128D01*
X73426458Y-123936047D01*
X73460085Y-123844898D01*
X73470947Y-123828642D01*
X73542976Y-123729502D01*
X73597815Y-123654022D01*
X73656915Y-123538034D01*
X73697890Y-123457616D01*
X73697890Y-123457615D01*
X73697895Y-123457606D01*
X73766015Y-123247951D01*
X73800500Y-123030222D01*
X73800500Y-122209778D01*
X73766015Y-121992049D01*
X73697895Y-121782394D01*
X73697891Y-121782386D01*
X73697890Y-121782383D01*
X73597820Y-121585986D01*
X73597816Y-121585981D01*
X73597815Y-121585978D01*
X73468242Y-121407635D01*
X73312365Y-121251758D01*
X73134022Y-121122185D01*
X73134019Y-121122183D01*
X73134013Y-121122179D01*
X72937616Y-121022109D01*
X72937609Y-121022106D01*
X72937606Y-121022105D01*
X72727951Y-120953985D01*
X72727945Y-120953984D01*
X72727938Y-120953982D01*
X72510232Y-120919501D01*
X72510225Y-120919500D01*
X72510222Y-120919500D01*
X72289778Y-120919500D01*
X72289775Y-120919500D01*
X72289767Y-120919501D01*
X72072061Y-120953982D01*
X72072054Y-120953984D01*
X72072052Y-120953984D01*
X72072049Y-120953985D01*
X71862394Y-121022105D01*
X71862392Y-121022105D01*
X71862392Y-121022106D01*
X71862383Y-121022109D01*
X71665986Y-121122179D01*
X71665979Y-121122184D01*
X71487633Y-121251759D01*
X71331759Y-121407633D01*
X71202184Y-121585979D01*
X71202179Y-121585986D01*
X71102109Y-121782383D01*
X71102105Y-121782392D01*
X71102105Y-121782394D01*
X71033985Y-121992049D01*
X71033984Y-121992052D01*
X71033984Y-121992054D01*
X71033982Y-121992061D01*
X70999501Y-122209767D01*
X70999500Y-122209782D01*
X68160500Y-122209782D01*
X68160500Y-112739782D01*
X69199500Y-112739782D01*
X69199500Y-113560217D01*
X69199501Y-113560232D01*
X69233982Y-113777938D01*
X69233984Y-113777945D01*
X69233985Y-113777951D01*
X69302105Y-113987606D01*
X69302106Y-113987607D01*
X69302109Y-113987616D01*
X69402179Y-114184013D01*
X69402183Y-114184019D01*
X69402185Y-114184022D01*
X69531758Y-114362365D01*
X69687635Y-114518242D01*
X69865978Y-114647815D01*
X69865981Y-114647816D01*
X69865986Y-114647820D01*
X70062383Y-114747890D01*
X70062386Y-114747891D01*
X70062394Y-114747895D01*
X70272049Y-114816015D01*
X70272060Y-114816016D01*
X70272061Y-114816017D01*
X70293610Y-114819430D01*
X70489778Y-114850500D01*
X70489782Y-114850500D01*
X70710218Y-114850500D01*
X70710222Y-114850500D01*
X70749033Y-114844352D01*
X70760367Y-114842558D01*
X70857447Y-114846372D01*
X70945678Y-114887046D01*
X71011627Y-114958389D01*
X71045254Y-115049539D01*
X71041440Y-115146619D01*
X71036136Y-115165427D01*
X71033988Y-115172038D01*
X71033982Y-115172061D01*
X70999501Y-115389767D01*
X70999500Y-115389782D01*
X70999500Y-116210217D01*
X70999501Y-116210232D01*
X71033982Y-116427938D01*
X71033984Y-116427945D01*
X71033985Y-116427951D01*
X71102105Y-116637606D01*
X71102106Y-116637607D01*
X71102109Y-116637616D01*
X71202179Y-116834013D01*
X71202183Y-116834019D01*
X71202185Y-116834022D01*
X71331758Y-117012365D01*
X71487635Y-117168242D01*
X71665978Y-117297815D01*
X71665981Y-117297816D01*
X71665986Y-117297820D01*
X71862383Y-117397890D01*
X71862386Y-117397891D01*
X71862394Y-117397895D01*
X72072049Y-117466015D01*
X72072060Y-117466016D01*
X72072061Y-117466017D01*
X72132640Y-117475611D01*
X72289778Y-117500500D01*
X72289782Y-117500500D01*
X72510218Y-117500500D01*
X72510222Y-117500500D01*
X72727951Y-117466015D01*
X72937606Y-117397895D01*
X73003186Y-117364480D01*
X73134013Y-117297820D01*
X73134015Y-117297818D01*
X73134022Y-117297815D01*
X73312365Y-117168242D01*
X73468242Y-117012365D01*
X73597815Y-116834022D01*
X73605850Y-116818254D01*
X73697890Y-116637616D01*
X73697890Y-116637615D01*
X73697895Y-116637606D01*
X73766015Y-116427951D01*
X73800500Y-116210222D01*
X73800500Y-115389778D01*
X73766015Y-115172049D01*
X73697895Y-114962394D01*
X73697891Y-114962386D01*
X73697890Y-114962383D01*
X73597820Y-114765986D01*
X73597816Y-114765981D01*
X73597815Y-114765978D01*
X73468242Y-114587635D01*
X73312365Y-114431758D01*
X73134022Y-114302185D01*
X73134019Y-114302183D01*
X73134013Y-114302179D01*
X72937616Y-114202109D01*
X72937609Y-114202106D01*
X72937606Y-114202105D01*
X72727951Y-114133985D01*
X72727945Y-114133984D01*
X72727938Y-114133982D01*
X72510232Y-114099501D01*
X72510225Y-114099500D01*
X72510222Y-114099500D01*
X72289778Y-114099500D01*
X72289769Y-114099500D01*
X72239627Y-114107442D01*
X72142547Y-114103626D01*
X72054317Y-114062950D01*
X71988370Y-113991606D01*
X71954744Y-113900455D01*
X71958560Y-113803375D01*
X71963857Y-113784591D01*
X71966015Y-113777951D01*
X72000500Y-113560222D01*
X72000500Y-112739778D01*
X71966015Y-112522049D01*
X71897895Y-112312394D01*
X71897891Y-112312386D01*
X71897890Y-112312383D01*
X71797820Y-112115986D01*
X71797816Y-112115981D01*
X71797815Y-112115978D01*
X71668242Y-111937635D01*
X71512365Y-111781758D01*
X71334022Y-111652185D01*
X71334019Y-111652183D01*
X71334013Y-111652179D01*
X71137616Y-111552109D01*
X71137609Y-111552106D01*
X71137606Y-111552105D01*
X70927951Y-111483985D01*
X70927945Y-111483984D01*
X70927938Y-111483982D01*
X70710232Y-111449501D01*
X70710225Y-111449500D01*
X70710222Y-111449500D01*
X70489778Y-111449500D01*
X70489775Y-111449500D01*
X70489767Y-111449501D01*
X70272061Y-111483982D01*
X70272054Y-111483984D01*
X70272052Y-111483984D01*
X70272049Y-111483985D01*
X70062394Y-111552105D01*
X70062392Y-111552105D01*
X70062392Y-111552106D01*
X70062383Y-111552109D01*
X69865986Y-111652179D01*
X69865979Y-111652184D01*
X69687633Y-111781759D01*
X69531759Y-111937633D01*
X69402184Y-112115979D01*
X69402179Y-112115986D01*
X69302109Y-112312383D01*
X69302105Y-112312392D01*
X69302105Y-112312394D01*
X69233985Y-112522049D01*
X69233984Y-112522052D01*
X69233984Y-112522054D01*
X69233982Y-112522061D01*
X69199501Y-112739767D01*
X69199500Y-112739782D01*
X68160500Y-112739782D01*
X68160500Y-103239782D01*
X69199500Y-103239782D01*
X69199500Y-104060217D01*
X69199501Y-104060232D01*
X69233982Y-104277938D01*
X69233984Y-104277945D01*
X69233985Y-104277951D01*
X69302105Y-104487606D01*
X69302106Y-104487607D01*
X69302109Y-104487616D01*
X69402179Y-104684013D01*
X69402183Y-104684019D01*
X69402185Y-104684022D01*
X69489210Y-104803802D01*
X69518155Y-104843642D01*
X69558829Y-104931873D01*
X69562643Y-105028953D01*
X69529016Y-105120103D01*
X69518155Y-105136358D01*
X69402184Y-105295979D01*
X69402179Y-105295986D01*
X69302109Y-105492383D01*
X69302105Y-105492392D01*
X69302105Y-105492394D01*
X69233985Y-105702049D01*
X69233984Y-105702052D01*
X69233984Y-105702054D01*
X69233982Y-105702061D01*
X69199501Y-105919767D01*
X69199500Y-105919782D01*
X69199500Y-106740217D01*
X69199501Y-106740232D01*
X69233982Y-106957938D01*
X69233984Y-106957945D01*
X69233985Y-106957951D01*
X69302105Y-107167606D01*
X69302106Y-107167607D01*
X69302109Y-107167616D01*
X69402179Y-107364013D01*
X69402183Y-107364019D01*
X69402185Y-107364022D01*
X69531758Y-107542365D01*
X69687635Y-107698242D01*
X69865978Y-107827815D01*
X69865981Y-107827816D01*
X69865986Y-107827820D01*
X70062383Y-107927890D01*
X70062386Y-107927891D01*
X70062394Y-107927895D01*
X70272049Y-107996015D01*
X70272060Y-107996016D01*
X70272061Y-107996017D01*
X70332640Y-108005611D01*
X70489778Y-108030500D01*
X70489782Y-108030500D01*
X70710218Y-108030500D01*
X70710222Y-108030500D01*
X70927951Y-107996015D01*
X71137606Y-107927895D01*
X71154172Y-107919454D01*
X71334013Y-107827820D01*
X71334015Y-107827818D01*
X71334022Y-107827815D01*
X71512365Y-107698242D01*
X71668242Y-107542365D01*
X71797815Y-107364022D01*
X71805799Y-107348354D01*
X71897890Y-107167616D01*
X71897890Y-107167615D01*
X71897895Y-107167606D01*
X71966015Y-106957951D01*
X72000500Y-106740222D01*
X72000500Y-106487564D01*
X72019454Y-106392276D01*
X72073430Y-106311494D01*
X72154212Y-106257518D01*
X72249500Y-106238564D01*
X72344788Y-106257518D01*
X72425570Y-106311494D01*
X72479546Y-106392276D01*
X72541259Y-106541267D01*
X72541261Y-106541270D01*
X72708019Y-106853251D01*
X72708025Y-106853262D01*
X72904563Y-107147401D01*
X72904570Y-107147410D01*
X72985810Y-107246401D01*
X73128988Y-107420864D01*
X73379136Y-107671012D01*
X73503933Y-107773430D01*
X73652589Y-107895429D01*
X73652598Y-107895436D01*
X73946737Y-108091974D01*
X73946748Y-108091980D01*
X74258729Y-108258738D01*
X74258732Y-108258740D01*
X74360229Y-108300781D01*
X74585565Y-108394118D01*
X74585576Y-108394121D01*
X74585583Y-108394124D01*
X74924085Y-108496806D01*
X74924099Y-108496810D01*
X75040785Y-108520020D01*
X75271060Y-108565825D01*
X75623119Y-108600500D01*
X75623122Y-108600500D01*
X75976878Y-108600500D01*
X75976881Y-108600500D01*
X76328940Y-108565825D01*
X76675905Y-108496809D01*
X76869510Y-108438080D01*
X77014416Y-108394124D01*
X77014418Y-108394122D01*
X77014435Y-108394118D01*
X77341269Y-108258739D01*
X77653259Y-108091976D01*
X77947402Y-107895436D01*
X78220864Y-107671012D01*
X78471012Y-107420864D01*
X78695436Y-107147402D01*
X78891976Y-106853259D01*
X79058739Y-106541269D01*
X79194118Y-106214435D01*
X79210190Y-106161454D01*
X79242074Y-106056341D01*
X79296809Y-105875905D01*
X79365825Y-105528940D01*
X79400500Y-105176881D01*
X79400500Y-104823119D01*
X79365825Y-104471060D01*
X79303346Y-104156958D01*
X79296810Y-104124099D01*
X79296806Y-104124085D01*
X79194124Y-103785583D01*
X79194121Y-103785576D01*
X79194118Y-103785565D01*
X79094385Y-103544788D01*
X79058740Y-103458732D01*
X79058738Y-103458729D01*
X78891980Y-103146748D01*
X78891974Y-103146737D01*
X78695436Y-102852598D01*
X78695429Y-102852589D01*
X78494464Y-102607713D01*
X78471012Y-102579136D01*
X78220864Y-102328988D01*
X78120404Y-102246543D01*
X77947410Y-102104570D01*
X77947401Y-102104563D01*
X77653262Y-101908025D01*
X77653251Y-101908019D01*
X77341270Y-101741261D01*
X77341267Y-101741259D01*
X77014442Y-101605885D01*
X77014435Y-101605882D01*
X77014431Y-101605880D01*
X77014416Y-101605875D01*
X76675914Y-101503193D01*
X76675900Y-101503189D01*
X76328942Y-101434175D01*
X75976881Y-101399500D01*
X75623119Y-101399500D01*
X75623118Y-101399500D01*
X75271057Y-101434175D01*
X74924099Y-101503189D01*
X74924085Y-101503193D01*
X74585583Y-101605875D01*
X74585557Y-101605885D01*
X74258732Y-101741259D01*
X74258729Y-101741261D01*
X73946748Y-101908019D01*
X73946737Y-101908025D01*
X73652598Y-102104563D01*
X73652589Y-102104570D01*
X73379139Y-102328985D01*
X73128985Y-102579139D01*
X72904570Y-102852589D01*
X72904563Y-102852598D01*
X72708025Y-103146737D01*
X72708019Y-103146748D01*
X72541261Y-103458729D01*
X72541259Y-103458732D01*
X72479546Y-103607723D01*
X72425570Y-103688505D01*
X72344788Y-103742481D01*
X72249500Y-103761435D01*
X72154212Y-103742481D01*
X72073430Y-103688505D01*
X72019454Y-103607723D01*
X72000500Y-103512435D01*
X72000500Y-103239782D01*
X72000500Y-103239778D01*
X71971758Y-103058306D01*
X71966017Y-103022061D01*
X71966016Y-103022060D01*
X71966015Y-103022049D01*
X71897895Y-102812394D01*
X71897891Y-102812386D01*
X71897890Y-102812383D01*
X71797820Y-102615986D01*
X71797816Y-102615981D01*
X71797815Y-102615978D01*
X71668242Y-102437635D01*
X71512365Y-102281758D01*
X71334022Y-102152185D01*
X71334019Y-102152183D01*
X71334013Y-102152179D01*
X71137616Y-102052109D01*
X71137609Y-102052106D01*
X71137606Y-102052105D01*
X70927951Y-101983985D01*
X70927945Y-101983984D01*
X70927938Y-101983982D01*
X70710232Y-101949501D01*
X70710225Y-101949500D01*
X70710222Y-101949500D01*
X70489778Y-101949500D01*
X70489775Y-101949500D01*
X70489767Y-101949501D01*
X70272061Y-101983982D01*
X70272054Y-101983984D01*
X70272052Y-101983984D01*
X70272049Y-101983985D01*
X70062394Y-102052105D01*
X70062392Y-102052105D01*
X70062392Y-102052106D01*
X70062383Y-102052109D01*
X69865986Y-102152179D01*
X69865979Y-102152184D01*
X69687633Y-102281759D01*
X69531759Y-102437633D01*
X69402184Y-102615979D01*
X69402179Y-102615986D01*
X69302109Y-102812383D01*
X69302105Y-102812392D01*
X69302105Y-102812394D01*
X69233985Y-103022049D01*
X69233984Y-103022052D01*
X69233984Y-103022054D01*
X69233982Y-103022061D01*
X69199501Y-103239767D01*
X69199500Y-103239782D01*
X68160500Y-103239782D01*
X68160500Y-96419782D01*
X69199500Y-96419782D01*
X69199500Y-97240217D01*
X69199501Y-97240232D01*
X69233982Y-97457938D01*
X69233984Y-97457945D01*
X69233985Y-97457951D01*
X69302105Y-97667606D01*
X69302106Y-97667607D01*
X69302109Y-97667616D01*
X69402179Y-97864013D01*
X69402183Y-97864019D01*
X69402185Y-97864022D01*
X69531758Y-98042365D01*
X69687635Y-98198242D01*
X69865978Y-98327815D01*
X69865981Y-98327816D01*
X69865986Y-98327820D01*
X70062383Y-98427890D01*
X70062386Y-98427891D01*
X70062394Y-98427895D01*
X70272049Y-98496015D01*
X70272060Y-98496016D01*
X70272061Y-98496017D01*
X70332640Y-98505611D01*
X70489778Y-98530500D01*
X70489782Y-98530500D01*
X70710218Y-98530500D01*
X70710222Y-98530500D01*
X70927951Y-98496015D01*
X71137606Y-98427895D01*
X71262268Y-98364376D01*
X71334013Y-98327820D01*
X71334015Y-98327818D01*
X71334022Y-98327815D01*
X71512365Y-98198242D01*
X71668242Y-98042365D01*
X71797815Y-97864022D01*
X71811311Y-97837536D01*
X71897890Y-97667616D01*
X71897890Y-97667615D01*
X71897895Y-97667606D01*
X71966015Y-97457951D01*
X72000500Y-97240222D01*
X72000500Y-96419778D01*
X71967499Y-96211421D01*
X71966017Y-96202061D01*
X71966016Y-96202060D01*
X71966015Y-96202049D01*
X71953588Y-96163803D01*
X71942171Y-96067326D01*
X71968543Y-95973819D01*
X72028692Y-95897522D01*
X72113459Y-95850050D01*
X72209941Y-95838632D01*
X72229351Y-95840929D01*
X72269916Y-95847354D01*
X72289771Y-95850499D01*
X72289772Y-95850499D01*
X72289778Y-95850500D01*
X72289782Y-95850500D01*
X72510218Y-95850500D01*
X72510222Y-95850500D01*
X72727951Y-95816015D01*
X72937606Y-95747895D01*
X73040554Y-95695440D01*
X73134013Y-95647820D01*
X73134015Y-95647818D01*
X73134022Y-95647815D01*
X73312365Y-95518242D01*
X73468242Y-95362365D01*
X73597815Y-95184022D01*
X73608025Y-95163985D01*
X73697890Y-94987616D01*
X73697890Y-94987615D01*
X73697895Y-94987606D01*
X73766015Y-94777951D01*
X73800500Y-94560222D01*
X73800500Y-93739778D01*
X73766015Y-93522049D01*
X73697895Y-93312394D01*
X73697891Y-93312386D01*
X73697890Y-93312383D01*
X73597820Y-93115986D01*
X73597816Y-93115981D01*
X73597815Y-93115978D01*
X73468242Y-92937635D01*
X73312365Y-92781758D01*
X73134022Y-92652185D01*
X73134019Y-92652183D01*
X73134013Y-92652179D01*
X72937616Y-92552109D01*
X72937609Y-92552106D01*
X72937606Y-92552105D01*
X72727951Y-92483985D01*
X72727945Y-92483984D01*
X72727938Y-92483982D01*
X72510232Y-92449501D01*
X72510225Y-92449500D01*
X72510222Y-92449500D01*
X72289778Y-92449500D01*
X72289775Y-92449500D01*
X72289767Y-92449501D01*
X72072061Y-92483982D01*
X72072054Y-92483984D01*
X72072052Y-92483984D01*
X72072049Y-92483985D01*
X71862394Y-92552105D01*
X71862392Y-92552105D01*
X71862392Y-92552106D01*
X71862383Y-92552109D01*
X71665986Y-92652179D01*
X71665979Y-92652184D01*
X71487633Y-92781759D01*
X71331759Y-92937633D01*
X71202184Y-93115979D01*
X71202179Y-93115986D01*
X71102109Y-93312383D01*
X71102105Y-93312392D01*
X71102105Y-93312394D01*
X71033985Y-93522049D01*
X71033984Y-93522052D01*
X71033984Y-93522054D01*
X71033982Y-93522061D01*
X70999501Y-93739767D01*
X70999500Y-93739782D01*
X70999500Y-94560217D01*
X70999501Y-94560232D01*
X71033982Y-94777938D01*
X71033984Y-94777945D01*
X71033985Y-94777951D01*
X71046411Y-94816194D01*
X71057828Y-94912676D01*
X71031455Y-95006183D01*
X70971305Y-95082479D01*
X70886537Y-95129950D01*
X70790055Y-95141367D01*
X70770645Y-95139070D01*
X70710223Y-95129500D01*
X70710222Y-95129500D01*
X70489778Y-95129500D01*
X70489775Y-95129500D01*
X70489767Y-95129501D01*
X70272061Y-95163982D01*
X70272054Y-95163984D01*
X70272052Y-95163984D01*
X70272049Y-95163985D01*
X70062394Y-95232105D01*
X70062392Y-95232105D01*
X70062392Y-95232106D01*
X70062383Y-95232109D01*
X69865986Y-95332179D01*
X69865979Y-95332184D01*
X69687633Y-95461759D01*
X69531759Y-95617633D01*
X69402184Y-95795979D01*
X69402179Y-95795986D01*
X69302109Y-95992383D01*
X69302105Y-95992392D01*
X69302105Y-95992394D01*
X69233985Y-96202049D01*
X69233984Y-96202052D01*
X69233984Y-96202054D01*
X69233982Y-96202061D01*
X69199501Y-96419767D01*
X69199500Y-96419782D01*
X68160500Y-96419782D01*
X68160500Y-67013347D01*
X68179454Y-66918059D01*
X68233430Y-66837277D01*
X70627277Y-64443430D01*
X70708059Y-64389454D01*
X70803347Y-64370500D01*
X88230500Y-64370500D01*
X88325788Y-64389454D01*
G37*
G04 #@! TD.AperFunction*
G04 #@! TA.AperFunction,Conductor*
G36*
X119244783Y-113652501D02*
G01*
X119295672Y-113673580D01*
X119295673Y-113673580D01*
X119295675Y-113673581D01*
X119429205Y-113700141D01*
X119431006Y-113700500D01*
X119431007Y-113700500D01*
X132106703Y-113700500D01*
X132201991Y-113719454D01*
X132282773Y-113773430D01*
X133911381Y-115402038D01*
X133965357Y-115482820D01*
X133984311Y-115578108D01*
X133965357Y-115673396D01*
X133911381Y-115754178D01*
X133830599Y-115808154D01*
X133661087Y-115878367D01*
X133661084Y-115878369D01*
X133497221Y-115987858D01*
X133357858Y-116127221D01*
X133248369Y-116291084D01*
X133248365Y-116291091D01*
X133172949Y-116473164D01*
X133172947Y-116473169D01*
X133134500Y-116666454D01*
X133134500Y-116863545D01*
X133172947Y-117056830D01*
X133172949Y-117056835D01*
X133248365Y-117238908D01*
X133248369Y-117238915D01*
X133354595Y-117397895D01*
X133357861Y-117402782D01*
X133497218Y-117542139D01*
X133661086Y-117651632D01*
X133843165Y-117727051D01*
X133843167Y-117727051D01*
X133843169Y-117727052D01*
X133952805Y-117748860D01*
X134036459Y-117765500D01*
X134041703Y-117765500D01*
X134046845Y-117766522D01*
X134048633Y-117766699D01*
X134048615Y-117766875D01*
X134136991Y-117784454D01*
X134217772Y-117838430D01*
X134758892Y-118379549D01*
X134812869Y-118460331D01*
X134831823Y-118555619D01*
X134812869Y-118650907D01*
X134758893Y-118731688D01*
X134678111Y-118785665D01*
X134582823Y-118804619D01*
X134487539Y-118785667D01*
X134456830Y-118772947D01*
X134263545Y-118734500D01*
X134263541Y-118734500D01*
X134066459Y-118734500D01*
X134066454Y-118734500D01*
X133873169Y-118772947D01*
X133873164Y-118772949D01*
X133691091Y-118848365D01*
X133691084Y-118848369D01*
X133527221Y-118957858D01*
X133387858Y-119097221D01*
X133278369Y-119261084D01*
X133278365Y-119261091D01*
X133202949Y-119443164D01*
X133202947Y-119443169D01*
X133164500Y-119636454D01*
X133164500Y-119833545D01*
X133202947Y-120026830D01*
X133202949Y-120026835D01*
X133278365Y-120208908D01*
X133278366Y-120208911D01*
X133278368Y-120208914D01*
X133387861Y-120372782D01*
X133527218Y-120512139D01*
X133691086Y-120621632D01*
X133873165Y-120697051D01*
X133873167Y-120697051D01*
X133873169Y-120697052D01*
X134034847Y-120729212D01*
X134066459Y-120735500D01*
X134071703Y-120735500D01*
X134076845Y-120736522D01*
X134078633Y-120736699D01*
X134078615Y-120736875D01*
X134166991Y-120754454D01*
X134247773Y-120808430D01*
X135058158Y-121618815D01*
X135112134Y-121699597D01*
X135131088Y-121794885D01*
X135128023Y-121833836D01*
X135119500Y-121887647D01*
X135119500Y-122092361D01*
X135151522Y-122294531D01*
X135214778Y-122489214D01*
X135214782Y-122489224D01*
X135281420Y-122620008D01*
X135307713Y-122671610D01*
X135426733Y-122835429D01*
X135428035Y-122837220D01*
X135570245Y-122979430D01*
X135624221Y-123060212D01*
X135643175Y-123155500D01*
X135624221Y-123250788D01*
X135570245Y-123331570D01*
X135489463Y-123385546D01*
X135394175Y-123404500D01*
X130197586Y-123404500D01*
X130158633Y-123401434D01*
X129988588Y-123374500D01*
X129988579Y-123374500D01*
X129619337Y-123374500D01*
X129524049Y-123355546D01*
X129443267Y-123301570D01*
X127095679Y-120953982D01*
X124733214Y-118591517D01*
X124646774Y-118528715D01*
X124589890Y-118487386D01*
X124589885Y-118487383D01*
X124589881Y-118487380D01*
X124432052Y-118406963D01*
X124432050Y-118406962D01*
X124432042Y-118406958D01*
X124320964Y-118370867D01*
X124320960Y-118370865D01*
X124320959Y-118370865D01*
X124263553Y-118352213D01*
X124088588Y-118324500D01*
X124088579Y-118324500D01*
X122695458Y-118324500D01*
X122610479Y-118309550D01*
X122596068Y-118304317D01*
X122479219Y-118244780D01*
X122284534Y-118181523D01*
X122237228Y-118174030D01*
X122214783Y-118165881D01*
X122193263Y-118152845D01*
X122169660Y-118144138D01*
X122152117Y-118127921D01*
X122131685Y-118115545D01*
X122116791Y-118095266D01*
X122098317Y-118078189D01*
X122088316Y-118056497D01*
X122074174Y-118037241D01*
X122068174Y-118012805D01*
X122057642Y-117989959D01*
X122056704Y-117966088D01*
X122051008Y-117942888D01*
X122054815Y-117918018D01*
X122053828Y-117892879D01*
X122062096Y-117870466D01*
X122065712Y-117846852D01*
X122078747Y-117825332D01*
X122087455Y-117801729D01*
X122103671Y-117784186D01*
X122116048Y-117763754D01*
X122136326Y-117748860D01*
X122153404Y-117730386D01*
X122161396Y-117724814D01*
X122217782Y-117687139D01*
X122357139Y-117547782D01*
X122466632Y-117383914D01*
X122542051Y-117201835D01*
X122580500Y-117008541D01*
X122580500Y-116811459D01*
X122559648Y-116706629D01*
X122542052Y-116618169D01*
X122542051Y-116618167D01*
X122542051Y-116618165D01*
X122466632Y-116436086D01*
X122357139Y-116272218D01*
X122217782Y-116132861D01*
X122209341Y-116127221D01*
X122053915Y-116023369D01*
X122053914Y-116023368D01*
X122053911Y-116023366D01*
X122053908Y-116023365D01*
X121871835Y-115947949D01*
X121871830Y-115947947D01*
X121678545Y-115909500D01*
X121678541Y-115909500D01*
X121481459Y-115909500D01*
X121481454Y-115909500D01*
X121288169Y-115947947D01*
X121288164Y-115947949D01*
X121106091Y-116023365D01*
X121106084Y-116023369D01*
X120942221Y-116132858D01*
X120802858Y-116272221D01*
X120693369Y-116436084D01*
X120693365Y-116436091D01*
X120617949Y-116618164D01*
X120617947Y-116618169D01*
X120579500Y-116811454D01*
X120579500Y-117008545D01*
X120617947Y-117201830D01*
X120617949Y-117201835D01*
X120693365Y-117383908D01*
X120693366Y-117383911D01*
X120693368Y-117383914D01*
X120702710Y-117397895D01*
X120797664Y-117540005D01*
X120802861Y-117547782D01*
X120942218Y-117687139D01*
X120942221Y-117687141D01*
X120998574Y-117724795D01*
X121067273Y-117793494D01*
X121104453Y-117883254D01*
X121104452Y-117980409D01*
X121067273Y-118070168D01*
X120998574Y-118138867D01*
X120945216Y-118165881D01*
X120922770Y-118174030D01*
X120875466Y-118181523D01*
X120680781Y-118244780D01*
X120563932Y-118304317D01*
X120549521Y-118309550D01*
X120516364Y-118314626D01*
X120484078Y-118323732D01*
X120464542Y-118324500D01*
X118219338Y-118324500D01*
X118124050Y-118305546D01*
X118043268Y-118251570D01*
X117366722Y-117575024D01*
X115317262Y-115525565D01*
X115263289Y-115444787D01*
X115244335Y-115349499D01*
X115263289Y-115254211D01*
X115317265Y-115173429D01*
X115398047Y-115119453D01*
X115493330Y-115100499D01*
X118447872Y-115100499D01*
X118507483Y-115094091D01*
X118642331Y-115043796D01*
X118757546Y-114957546D01*
X118843796Y-114842331D01*
X118894091Y-114707483D01*
X118900500Y-114647873D01*
X118900499Y-113882546D01*
X118919453Y-113787260D01*
X118973429Y-113706479D01*
X119054211Y-113652502D01*
X119149499Y-113633548D01*
X119244783Y-113652501D01*
G37*
G04 #@! TD.AperFunction*
G04 #@! TA.AperFunction,Conductor*
G36*
X120474250Y-120577431D02*
G01*
X120484079Y-120576268D01*
X120521593Y-120586848D01*
X120559830Y-120594454D01*
X120577586Y-120602640D01*
X120642499Y-120635715D01*
X120718796Y-120695863D01*
X120766268Y-120780630D01*
X120777687Y-120877112D01*
X120751315Y-120970619D01*
X120691167Y-121046916D01*
X120667792Y-121064611D01*
X120508117Y-121171302D01*
X120361302Y-121318117D01*
X120245957Y-121490743D01*
X120245954Y-121490748D01*
X120166504Y-121682557D01*
X120155874Y-121736000D01*
X121149297Y-121736000D01*
X121114075Y-121797007D01*
X121080000Y-121924174D01*
X121080000Y-122055826D01*
X121114075Y-122182993D01*
X121149297Y-122244000D01*
X120155874Y-122244000D01*
X120149726Y-122251489D01*
X120149726Y-122310251D01*
X120112547Y-122400010D01*
X120043848Y-122468709D01*
X119954088Y-122505889D01*
X119856933Y-122505888D01*
X119767174Y-122468709D01*
X119729441Y-122437743D01*
X118292267Y-121000570D01*
X118238291Y-120919788D01*
X118219337Y-120824500D01*
X118238291Y-120729212D01*
X118292267Y-120648430D01*
X118373049Y-120594454D01*
X118468337Y-120575500D01*
X120464542Y-120575500D01*
X120474250Y-120577431D01*
G37*
G04 #@! TD.AperFunction*
G04 #@! TA.AperFunction,Conductor*
G36*
X144505951Y-89624454D02*
G01*
X144586733Y-89678430D01*
X146301570Y-91393267D01*
X146355546Y-91474049D01*
X146374500Y-91569337D01*
X146374500Y-114330662D01*
X146355546Y-114425950D01*
X146301570Y-114506732D01*
X144048493Y-116759809D01*
X143967711Y-116813785D01*
X143872423Y-116832739D01*
X143777135Y-116813785D01*
X143696353Y-116759809D01*
X143679944Y-116741703D01*
X143624381Y-116674000D01*
X142316942Y-116674000D01*
X142350381Y-116616081D01*
X142385000Y-116486880D01*
X142385000Y-116353120D01*
X142350381Y-116223919D01*
X142316942Y-116166000D01*
X143624381Y-116166000D01*
X143615957Y-116123648D01*
X143615954Y-116123641D01*
X143539371Y-115938751D01*
X143539367Y-115938743D01*
X143428181Y-115772341D01*
X143286658Y-115630818D01*
X143158419Y-115545132D01*
X143089720Y-115476433D01*
X143052541Y-115386674D01*
X143052540Y-115289519D01*
X143089720Y-115199759D01*
X143158419Y-115131060D01*
X143219803Y-115101286D01*
X143377632Y-115050005D01*
X143554694Y-114959787D01*
X143715464Y-114842981D01*
X143855981Y-114702464D01*
X143972787Y-114541694D01*
X144063005Y-114364632D01*
X144124413Y-114175636D01*
X144155500Y-113979361D01*
X144155500Y-113938296D01*
X144174454Y-113843008D01*
X144228427Y-113762229D01*
X145044114Y-112946543D01*
X145120775Y-112831811D01*
X145173580Y-112704328D01*
X145200500Y-112568994D01*
X145200500Y-112431006D01*
X145200500Y-105431007D01*
X145188873Y-105372555D01*
X145173581Y-105295675D01*
X145173580Y-105295673D01*
X145173580Y-105295672D01*
X145120775Y-105168189D01*
X145115585Y-105160421D01*
X145044114Y-105053457D01*
X144446543Y-104455886D01*
X144331811Y-104379225D01*
X144257541Y-104348461D01*
X144176761Y-104294485D01*
X144122785Y-104213704D01*
X144103831Y-104118416D01*
X144116019Y-104041469D01*
X144121522Y-104024534D01*
X144124413Y-104015636D01*
X144155500Y-103819361D01*
X144155500Y-103620639D01*
X144124413Y-103424364D01*
X144063005Y-103235368D01*
X143972787Y-103058306D01*
X143855981Y-102897536D01*
X143715464Y-102757019D01*
X143715460Y-102757016D01*
X143554695Y-102640213D01*
X143459668Y-102591794D01*
X143383371Y-102531645D01*
X143335899Y-102446878D01*
X143324481Y-102350396D01*
X143350853Y-102256889D01*
X143411002Y-102180592D01*
X143426346Y-102168495D01*
X143461464Y-102142981D01*
X143601981Y-102002464D01*
X143718787Y-101841694D01*
X143809005Y-101664632D01*
X143870413Y-101475636D01*
X143901500Y-101279361D01*
X143901500Y-101080639D01*
X143870413Y-100884364D01*
X143809005Y-100695368D01*
X143718787Y-100518306D01*
X143601981Y-100357536D01*
X143461464Y-100217019D01*
X143449282Y-100208168D01*
X143426354Y-100191510D01*
X143360405Y-100120166D01*
X143326778Y-100029016D01*
X143330593Y-99931936D01*
X143371268Y-99843706D01*
X143442612Y-99777757D01*
X143459662Y-99768208D01*
X143554694Y-99719787D01*
X143715464Y-99602981D01*
X143855981Y-99462464D01*
X143972787Y-99301694D01*
X144063005Y-99124632D01*
X144124413Y-98935636D01*
X144155500Y-98739361D01*
X144155500Y-98540639D01*
X144124413Y-98344364D01*
X144063005Y-98155368D01*
X143972787Y-97978306D01*
X143855981Y-97817536D01*
X143715464Y-97677019D01*
X143702522Y-97667616D01*
X143554695Y-97560213D01*
X143459668Y-97511794D01*
X143383371Y-97451645D01*
X143335899Y-97366878D01*
X143324481Y-97270396D01*
X143350853Y-97176889D01*
X143411002Y-97100592D01*
X143426346Y-97088495D01*
X143461464Y-97062981D01*
X143601981Y-96922464D01*
X143718787Y-96761694D01*
X143809005Y-96584632D01*
X143870413Y-96395636D01*
X143901500Y-96199361D01*
X143901500Y-96000639D01*
X143870413Y-95804364D01*
X143809005Y-95615368D01*
X143718787Y-95438306D01*
X143601981Y-95277536D01*
X143461464Y-95137019D01*
X143438938Y-95120653D01*
X143426354Y-95111510D01*
X143360405Y-95040166D01*
X143326778Y-94949016D01*
X143330593Y-94851936D01*
X143371268Y-94763706D01*
X143442612Y-94697757D01*
X143459662Y-94688208D01*
X143554694Y-94639787D01*
X143715464Y-94522981D01*
X143855981Y-94382464D01*
X143972787Y-94221694D01*
X144063005Y-94044632D01*
X144124413Y-93855636D01*
X144155500Y-93659361D01*
X144155500Y-93460639D01*
X144124413Y-93264364D01*
X144063005Y-93075368D01*
X143972787Y-92898306D01*
X143855981Y-92737536D01*
X143715464Y-92597019D01*
X143675571Y-92568035D01*
X143554693Y-92480212D01*
X143377642Y-92390000D01*
X143377640Y-92389999D01*
X143377632Y-92389995D01*
X143377627Y-92389993D01*
X143377624Y-92389992D01*
X143219811Y-92338716D01*
X143135044Y-92291244D01*
X143074896Y-92214947D01*
X143048524Y-92121440D01*
X143059943Y-92024958D01*
X143107415Y-91940191D01*
X143158420Y-91894866D01*
X143286660Y-91809179D01*
X143428181Y-91667658D01*
X143539367Y-91501256D01*
X143539371Y-91501248D01*
X143615954Y-91316358D01*
X143615957Y-91316351D01*
X143624381Y-91274000D01*
X142316942Y-91274000D01*
X142350381Y-91216081D01*
X142385000Y-91086880D01*
X142385000Y-90953120D01*
X142350381Y-90823919D01*
X142316942Y-90766000D01*
X143624381Y-90766000D01*
X143615957Y-90723648D01*
X143615954Y-90723641D01*
X143539371Y-90538751D01*
X143539367Y-90538743D01*
X143428181Y-90372341D01*
X143286658Y-90230818D01*
X143158419Y-90145132D01*
X143137485Y-90124198D01*
X143113572Y-90106751D01*
X143103456Y-90090169D01*
X143089720Y-90076433D01*
X143078391Y-90049083D01*
X143062974Y-90023811D01*
X143059973Y-90004617D01*
X143052541Y-89986674D01*
X143052540Y-89957072D01*
X143047968Y-89927822D01*
X143052540Y-89908944D01*
X143052540Y-89889519D01*
X143063870Y-89862165D01*
X143070838Y-89833397D01*
X143082285Y-89817706D01*
X143089720Y-89799759D01*
X143110653Y-89778825D01*
X143128101Y-89754912D01*
X143143673Y-89745805D01*
X143158419Y-89731060D01*
X143211041Y-89704314D01*
X143215372Y-89702725D01*
X143377632Y-89650005D01*
X143425020Y-89625859D01*
X143439043Y-89620718D01*
X143472570Y-89615476D01*
X143505223Y-89606268D01*
X143524758Y-89605500D01*
X144410663Y-89605500D01*
X144505951Y-89624454D01*
G37*
G04 #@! TD.AperFunction*
G04 #@! TA.AperFunction,Conductor*
G36*
X92242943Y-97264454D02*
G01*
X92323725Y-97318430D01*
X92377701Y-97399212D01*
X92396655Y-97494500D01*
X92377701Y-97589788D01*
X92323725Y-97670570D01*
X92294018Y-97695942D01*
X92292540Y-97697015D01*
X92152016Y-97837539D01*
X92035212Y-97998306D01*
X91945000Y-98175357D01*
X91944991Y-98175378D01*
X91883589Y-98364357D01*
X91883584Y-98364376D01*
X91852501Y-98560628D01*
X91852500Y-98560643D01*
X91852500Y-98759356D01*
X91852501Y-98759371D01*
X91883584Y-98955623D01*
X91883589Y-98955642D01*
X91943246Y-99139251D01*
X91944995Y-99144632D01*
X91944999Y-99144640D01*
X91945000Y-99144642D01*
X92035212Y-99321693D01*
X92048876Y-99340500D01*
X92152019Y-99482464D01*
X92292536Y-99622981D01*
X92292539Y-99622983D01*
X92292542Y-99622986D01*
X92327644Y-99648489D01*
X92393593Y-99719832D01*
X92427220Y-99810982D01*
X92423406Y-99908062D01*
X92382731Y-99996292D01*
X92311388Y-100062241D01*
X92294332Y-100071793D01*
X92199307Y-100120211D01*
X92038539Y-100237016D01*
X91898016Y-100377539D01*
X91781212Y-100538306D01*
X91691000Y-100715357D01*
X91690991Y-100715378D01*
X91629589Y-100904357D01*
X91629584Y-100904376D01*
X91598501Y-101100628D01*
X91598500Y-101100643D01*
X91598500Y-101299356D01*
X91598501Y-101299371D01*
X91629584Y-101495623D01*
X91629589Y-101495642D01*
X91684496Y-101664632D01*
X91690995Y-101684632D01*
X91690999Y-101684640D01*
X91691000Y-101684642D01*
X91781212Y-101861693D01*
X91845008Y-101949501D01*
X91898019Y-102022464D01*
X92038536Y-102162981D01*
X92199306Y-102279787D01*
X92376368Y-102370005D01*
X92565364Y-102431413D01*
X92565375Y-102431414D01*
X92565376Y-102431415D01*
X92604635Y-102437633D01*
X92761639Y-102462500D01*
X93190663Y-102462500D01*
X93285951Y-102481454D01*
X93366733Y-102535430D01*
X96764517Y-105933214D01*
X96764516Y-105933214D01*
X96829380Y-105998077D01*
X96889786Y-106058483D01*
X96978059Y-106122617D01*
X97033108Y-106162613D01*
X97033110Y-106162614D01*
X97134814Y-106214435D01*
X97190958Y-106243042D01*
X97359444Y-106297786D01*
X97420984Y-106307533D01*
X97534411Y-106325499D01*
X97534418Y-106325499D01*
X97534421Y-106325500D01*
X97711578Y-106325500D01*
X98082703Y-106325500D01*
X98177991Y-106344454D01*
X98258773Y-106398430D01*
X98312749Y-106479212D01*
X98331703Y-106574500D01*
X98312749Y-106669788D01*
X98258773Y-106750570D01*
X95942740Y-109066601D01*
X95861958Y-109120577D01*
X95766670Y-109139531D01*
X95671382Y-109120577D01*
X95590600Y-109066601D01*
X95527999Y-109004000D01*
X94189942Y-109004000D01*
X94223381Y-108946081D01*
X94258000Y-108816880D01*
X94258000Y-108683120D01*
X94223381Y-108553919D01*
X94189942Y-108496000D01*
X95527998Y-108496000D01*
X95527999Y-108495999D01*
X95527999Y-107962988D01*
X95527998Y-107962979D01*
X95513262Y-107888892D01*
X95457126Y-107804879D01*
X95457121Y-107804874D01*
X95373107Y-107748737D01*
X95299014Y-107734000D01*
X94004001Y-107734000D01*
X94004000Y-107734001D01*
X94004000Y-108310058D01*
X93946081Y-108276619D01*
X93816880Y-108242000D01*
X93683120Y-108242000D01*
X93553919Y-108276619D01*
X93496000Y-108310058D01*
X93496000Y-107734001D01*
X93495999Y-107734000D01*
X92200988Y-107734000D01*
X92200978Y-107734001D01*
X92126892Y-107748737D01*
X92042879Y-107804873D01*
X92042874Y-107804878D01*
X91986737Y-107888892D01*
X91972000Y-107962985D01*
X91972000Y-108495999D01*
X91972001Y-108496000D01*
X93310058Y-108496000D01*
X93276619Y-108553919D01*
X93242000Y-108683120D01*
X93242000Y-108816880D01*
X93276619Y-108946081D01*
X93310058Y-109004000D01*
X91972002Y-109004000D01*
X91972001Y-109004001D01*
X91972001Y-109537020D01*
X91986737Y-109611107D01*
X92042873Y-109695120D01*
X92042878Y-109695125D01*
X92139738Y-109759845D01*
X92208437Y-109828544D01*
X92245617Y-109918304D01*
X92245617Y-110015459D01*
X92208437Y-110105218D01*
X92139738Y-110173917D01*
X92114447Y-110188741D01*
X92072302Y-110210215D01*
X91911539Y-110327016D01*
X91771016Y-110467539D01*
X91654212Y-110628306D01*
X91564000Y-110805357D01*
X91563991Y-110805378D01*
X91502589Y-110994357D01*
X91502584Y-110994376D01*
X91471501Y-111190628D01*
X91471500Y-111190643D01*
X91471500Y-111389356D01*
X91471501Y-111389371D01*
X91502584Y-111585623D01*
X91502589Y-111585642D01*
X91524209Y-111652184D01*
X91563995Y-111774632D01*
X91563999Y-111774640D01*
X91564000Y-111774642D01*
X91654212Y-111951693D01*
X91771016Y-112112460D01*
X91771019Y-112112464D01*
X91911536Y-112252981D01*
X92031996Y-112340500D01*
X92072306Y-112369787D01*
X92167330Y-112418205D01*
X92243627Y-112478353D01*
X92291099Y-112563120D01*
X92302518Y-112659602D01*
X92276146Y-112753109D01*
X92215998Y-112829406D01*
X92200647Y-112841508D01*
X92165542Y-112867013D01*
X92025016Y-113007539D01*
X91908212Y-113168306D01*
X91818000Y-113345357D01*
X91817990Y-113345379D01*
X91816781Y-113349102D01*
X91815506Y-113351377D01*
X91814252Y-113354406D01*
X91813893Y-113354257D01*
X91769302Y-113433865D01*
X91692999Y-113494007D01*
X91599490Y-113520371D01*
X91503009Y-113508944D01*
X91418246Y-113461465D01*
X91403904Y-113448207D01*
X89198430Y-111242733D01*
X89144454Y-111161951D01*
X89125500Y-111066663D01*
X89125500Y-97494500D01*
X89144454Y-97399212D01*
X89198430Y-97318430D01*
X89279212Y-97264454D01*
X89374500Y-97245500D01*
X92147655Y-97245500D01*
X92242943Y-97264454D01*
G37*
G04 #@! TD.AperFunction*
G04 #@! TA.AperFunction,Conductor*
G36*
X130401951Y-87919454D02*
G01*
X130482733Y-87973430D01*
X130536709Y-88054212D01*
X130555663Y-88149500D01*
X130536709Y-88244788D01*
X130482733Y-88325570D01*
X128740786Y-90067517D01*
X128740785Y-90067516D01*
X128615519Y-90192783D01*
X128615516Y-90192787D01*
X128511388Y-90336106D01*
X128511386Y-90336110D01*
X128450357Y-90455886D01*
X128430958Y-90493958D01*
X128376214Y-90662444D01*
X128354348Y-90800500D01*
X128351965Y-90815541D01*
X128351964Y-90815547D01*
X128348500Y-90837418D01*
X128348500Y-94945678D01*
X128376211Y-95120636D01*
X128376216Y-95120653D01*
X128388149Y-95157380D01*
X128388152Y-95157388D01*
X128428494Y-95281551D01*
X128430958Y-95289132D01*
X128430962Y-95289140D01*
X128430963Y-95289142D01*
X128511380Y-95446971D01*
X128511384Y-95446977D01*
X128511386Y-95446980D01*
X128580662Y-95542329D01*
X128583722Y-95546541D01*
X128583722Y-95546542D01*
X128615517Y-95590304D01*
X129858427Y-96833214D01*
X129858426Y-96833214D01*
X129928354Y-96903141D01*
X129983696Y-96958483D01*
X130051709Y-97007897D01*
X130127018Y-97062613D01*
X130127020Y-97062614D01*
X130217076Y-97108500D01*
X130284868Y-97143042D01*
X130453354Y-97197786D01*
X130514894Y-97207533D01*
X130628321Y-97225499D01*
X130628328Y-97225499D01*
X130628331Y-97225500D01*
X131369175Y-97225500D01*
X131464463Y-97244454D01*
X131545245Y-97298430D01*
X131599221Y-97379212D01*
X131618175Y-97474500D01*
X131599221Y-97569788D01*
X131545245Y-97650570D01*
X131403035Y-97792779D01*
X131282711Y-97958392D01*
X131189782Y-98140775D01*
X131189778Y-98140785D01*
X131126522Y-98335468D01*
X131094500Y-98537638D01*
X131094500Y-98742361D01*
X131126522Y-98944531D01*
X131189778Y-99139214D01*
X131189782Y-99139224D01*
X131282711Y-99321607D01*
X131282713Y-99321610D01*
X131403034Y-99487219D01*
X131547781Y-99631966D01*
X131713390Y-99752287D01*
X131767082Y-99779644D01*
X131843376Y-99839791D01*
X131890848Y-99924558D01*
X131902267Y-100021040D01*
X131884082Y-100096789D01*
X131837947Y-100208169D01*
X131799500Y-100401454D01*
X131799500Y-100598545D01*
X131837947Y-100791830D01*
X131837949Y-100791835D01*
X131913365Y-100973908D01*
X131913369Y-100973915D01*
X131998045Y-101100643D01*
X132022861Y-101137782D01*
X132162218Y-101277139D01*
X132162221Y-101277141D01*
X132261480Y-101343464D01*
X132330179Y-101412163D01*
X132367359Y-101501923D01*
X132367358Y-101599078D01*
X132330179Y-101688837D01*
X132261480Y-101757536D01*
X132171720Y-101794716D01*
X132123143Y-101799500D01*
X127343239Y-101799500D01*
X127247951Y-101780546D01*
X127167169Y-101726570D01*
X125554292Y-100113693D01*
X125500316Y-100032911D01*
X125481362Y-99937623D01*
X125500316Y-99842335D01*
X125554292Y-99761553D01*
X125635074Y-99707577D01*
X125681786Y-99693407D01*
X125882442Y-99653495D01*
X126074251Y-99574045D01*
X126074256Y-99574042D01*
X126246882Y-99458697D01*
X126393697Y-99311882D01*
X126509042Y-99139256D01*
X126509045Y-99139251D01*
X126588495Y-98947442D01*
X126599126Y-98894000D01*
X125486686Y-98894000D01*
X125495080Y-98885606D01*
X125547741Y-98794394D01*
X125575000Y-98692661D01*
X125575000Y-98587339D01*
X125547741Y-98485606D01*
X125495080Y-98394394D01*
X125486686Y-98386000D01*
X126599126Y-98386000D01*
X126588495Y-98332557D01*
X126509045Y-98140748D01*
X126509042Y-98140743D01*
X126393697Y-97968117D01*
X126246881Y-97821301D01*
X126087206Y-97714609D01*
X126018508Y-97645910D01*
X125981328Y-97556151D01*
X125981329Y-97458996D01*
X126018509Y-97369236D01*
X126087208Y-97300538D01*
X126112483Y-97285723D01*
X126256610Y-97212287D01*
X126422219Y-97091966D01*
X126566966Y-96947219D01*
X126687287Y-96781610D01*
X126780220Y-96599219D01*
X126843477Y-96404534D01*
X126875500Y-96202352D01*
X126875500Y-95997648D01*
X126875499Y-95997645D01*
X126875499Y-95997638D01*
X126852194Y-95850500D01*
X126843477Y-95795466D01*
X126799085Y-95658841D01*
X126787666Y-95562359D01*
X126814038Y-95468852D01*
X126859825Y-95405830D01*
X127544114Y-94721543D01*
X127620775Y-94606811D01*
X127673580Y-94479328D01*
X127700500Y-94343994D01*
X127700500Y-94206006D01*
X127700500Y-89931007D01*
X127699866Y-89927822D01*
X127694622Y-89901459D01*
X127694622Y-89901456D01*
X127680813Y-89832035D01*
X127680812Y-89734880D01*
X127717991Y-89645120D01*
X127717993Y-89645118D01*
X127748956Y-89607389D01*
X127780482Y-89575864D01*
X127889975Y-89411996D01*
X127965394Y-89229917D01*
X128003843Y-89036623D01*
X128003843Y-88839541D01*
X127986212Y-88750904D01*
X127965395Y-88646251D01*
X127965394Y-88646249D01*
X127965394Y-88646247D01*
X127935281Y-88573547D01*
X127916327Y-88478259D01*
X127935281Y-88382971D01*
X127989255Y-88302193D01*
X128318020Y-87973430D01*
X128398802Y-87919454D01*
X128411617Y-87916905D01*
X128494089Y-87900500D01*
X130306663Y-87900500D01*
X130401951Y-87919454D01*
G37*
G04 #@! TD.AperFunction*
G04 #@! TA.AperFunction,Conductor*
G36*
X89469788Y-87283233D02*
G01*
X89550566Y-87337206D01*
X90094474Y-87881114D01*
X90209206Y-87957775D01*
X90209631Y-87957951D01*
X90336689Y-88010580D01*
X90336692Y-88010581D01*
X90470222Y-88037141D01*
X90472023Y-88037500D01*
X90472024Y-88037500D01*
X91850000Y-88037500D01*
X91945288Y-88056454D01*
X92026070Y-88110430D01*
X92080046Y-88191212D01*
X92088943Y-88235942D01*
X92099001Y-88246000D01*
X93437058Y-88246000D01*
X93403619Y-88303919D01*
X93369000Y-88433120D01*
X93369000Y-88566880D01*
X93403619Y-88696081D01*
X93437058Y-88754000D01*
X92099002Y-88754000D01*
X92099001Y-88754001D01*
X92099001Y-89287020D01*
X92113737Y-89361107D01*
X92169873Y-89445120D01*
X92169878Y-89445125D01*
X92266738Y-89509845D01*
X92335437Y-89578544D01*
X92372617Y-89668304D01*
X92372617Y-89765459D01*
X92335437Y-89855218D01*
X92266738Y-89923917D01*
X92241447Y-89938741D01*
X92199302Y-89960215D01*
X92038539Y-90077016D01*
X91898016Y-90217539D01*
X91781212Y-90378306D01*
X91691000Y-90555357D01*
X91690991Y-90555378D01*
X91629589Y-90744357D01*
X91629584Y-90744376D01*
X91598501Y-90940628D01*
X91598500Y-90940643D01*
X91598500Y-91139356D01*
X91598501Y-91139371D01*
X91629584Y-91335623D01*
X91629589Y-91335642D01*
X91689237Y-91519224D01*
X91690995Y-91524632D01*
X91690997Y-91524637D01*
X91690998Y-91524638D01*
X91763023Y-91665996D01*
X91789394Y-91759503D01*
X91777975Y-91855985D01*
X91730503Y-91940752D01*
X91717232Y-91955108D01*
X90280887Y-93391455D01*
X90204224Y-93506191D01*
X90204221Y-93506197D01*
X90151421Y-93633668D01*
X90151420Y-93633671D01*
X90151420Y-93633672D01*
X90127886Y-93751987D01*
X90124500Y-93769007D01*
X90124500Y-93795280D01*
X90123180Y-93808048D01*
X90112565Y-93842435D01*
X90105546Y-93877727D01*
X90098347Y-93888501D01*
X90094526Y-93900881D01*
X90071570Y-93928577D01*
X90055484Y-93952652D01*
X90055620Y-93952764D01*
X90054491Y-93954139D01*
X90051577Y-93958501D01*
X90047864Y-93962213D01*
X90047860Y-93962219D01*
X89938369Y-94126084D01*
X89938365Y-94126091D01*
X89862949Y-94308164D01*
X89862947Y-94308169D01*
X89824500Y-94501454D01*
X89824500Y-94698540D01*
X89825699Y-94710714D01*
X89824176Y-94710863D01*
X89824181Y-94794066D01*
X89787005Y-94883828D01*
X89718309Y-94952530D01*
X89628552Y-94989713D01*
X89579963Y-94994500D01*
X89374500Y-94994500D01*
X89279212Y-94975546D01*
X89198430Y-94921570D01*
X89144454Y-94840788D01*
X89125500Y-94745500D01*
X89125500Y-87513279D01*
X89144454Y-87417991D01*
X89198430Y-87337209D01*
X89279212Y-87283233D01*
X89374500Y-87264279D01*
X89469788Y-87283233D01*
G37*
G04 #@! TD.AperFunction*
G04 #@! TA.AperFunction,Conductor*
G36*
X138596158Y-86588748D02*
G01*
X138684389Y-86629423D01*
X138714101Y-86654798D01*
X139394848Y-87335546D01*
X140062379Y-88003077D01*
X140116355Y-88083859D01*
X140135309Y-88179147D01*
X140132243Y-88218099D01*
X140106501Y-88380627D01*
X140106500Y-88380643D01*
X140106500Y-88579356D01*
X140106501Y-88579371D01*
X140137584Y-88775623D01*
X140137589Y-88775642D01*
X140198321Y-88962560D01*
X140198995Y-88964632D01*
X140198999Y-88964640D01*
X140199000Y-88964642D01*
X140289212Y-89141693D01*
X140388918Y-89278927D01*
X140406019Y-89302464D01*
X140546536Y-89442981D01*
X140684256Y-89543040D01*
X140707306Y-89559787D01*
X140799131Y-89606575D01*
X140875428Y-89666723D01*
X140922900Y-89751490D01*
X140934319Y-89847972D01*
X140907947Y-89941479D01*
X140847799Y-90017776D01*
X140781375Y-90058481D01*
X140633748Y-90119629D01*
X140633743Y-90119632D01*
X140467341Y-90230818D01*
X140325818Y-90372341D01*
X140214632Y-90538743D01*
X140214628Y-90538751D01*
X140138045Y-90723641D01*
X140138042Y-90723648D01*
X140129619Y-90766000D01*
X141437058Y-90766000D01*
X141403619Y-90823919D01*
X141369000Y-90953120D01*
X141369000Y-91086880D01*
X141403619Y-91216081D01*
X141437058Y-91274000D01*
X140129619Y-91274000D01*
X140138042Y-91316351D01*
X140138045Y-91316358D01*
X140214628Y-91501248D01*
X140214632Y-91501256D01*
X140325818Y-91667658D01*
X140467341Y-91809181D01*
X140633743Y-91920367D01*
X140633742Y-91920367D01*
X140781374Y-91981517D01*
X140862155Y-92035493D01*
X140916132Y-92116274D01*
X140935087Y-92211562D01*
X140916134Y-92306851D01*
X140862158Y-92387632D01*
X140830519Y-92414395D01*
X140815522Y-92425073D01*
X140707306Y-92480213D01*
X140546536Y-92597019D01*
X140478476Y-92665078D01*
X140461538Y-92677140D01*
X140435828Y-92688696D01*
X140412392Y-92704356D01*
X140391941Y-92708423D01*
X140372924Y-92716972D01*
X140344749Y-92717810D01*
X140317104Y-92723309D01*
X140296653Y-92719240D01*
X140275812Y-92719861D01*
X140249460Y-92709853D01*
X140221816Y-92704354D01*
X140204478Y-92692769D01*
X140184987Y-92685367D01*
X140164475Y-92666040D01*
X140141036Y-92650379D01*
X138643430Y-91152773D01*
X138589454Y-91071991D01*
X138570500Y-90976703D01*
X138570500Y-90917650D01*
X138570499Y-90917638D01*
X138543053Y-90744357D01*
X138538477Y-90715466D01*
X138475220Y-90520781D01*
X138382287Y-90338390D01*
X138261966Y-90172781D01*
X138117219Y-90028034D01*
X138011801Y-89951444D01*
X137945854Y-89880103D01*
X137912227Y-89788953D01*
X137916041Y-89691873D01*
X137956715Y-89603642D01*
X138011802Y-89548555D01*
X138117219Y-89471966D01*
X138261966Y-89327219D01*
X138382287Y-89161610D01*
X138475220Y-88979219D01*
X138538477Y-88784534D01*
X138566146Y-88609843D01*
X138570499Y-88582361D01*
X138570500Y-88582349D01*
X138570500Y-88377650D01*
X138570499Y-88377638D01*
X138548056Y-88235942D01*
X138538477Y-88175466D01*
X138475220Y-87980781D01*
X138471474Y-87973430D01*
X138382288Y-87798392D01*
X138377195Y-87791382D01*
X138261966Y-87632781D01*
X138117219Y-87488034D01*
X138011801Y-87411444D01*
X137945854Y-87340103D01*
X137912227Y-87248953D01*
X137916041Y-87151873D01*
X137956715Y-87063642D01*
X138011800Y-87008556D01*
X138117219Y-86931966D01*
X138261966Y-86787219D01*
X138336587Y-86684510D01*
X138407928Y-86618563D01*
X138499078Y-86584935D01*
X138596158Y-86588748D01*
G37*
G04 #@! TD.AperFunction*
G04 #@! TA.AperFunction,Conductor*
G36*
X120475788Y-80612250D02*
G01*
X120556570Y-80666226D01*
X120610546Y-80747008D01*
X120629500Y-80842296D01*
X120629500Y-80958545D01*
X120667947Y-81151830D01*
X120667949Y-81151835D01*
X120743365Y-81333908D01*
X120743366Y-81333911D01*
X120743368Y-81333914D01*
X120758346Y-81356330D01*
X120847587Y-81489890D01*
X120852861Y-81497782D01*
X120992218Y-81637139D01*
X121156086Y-81746632D01*
X121338165Y-81822051D01*
X121338167Y-81822051D01*
X121338169Y-81822052D01*
X121441090Y-81842524D01*
X121531459Y-81860500D01*
X121531461Y-81860500D01*
X121728541Y-81860500D01*
X121740714Y-81859301D01*
X121740862Y-81860813D01*
X121767329Y-81852785D01*
X121921830Y-81822052D01*
X121921830Y-81822051D01*
X121921835Y-81822051D01*
X122103914Y-81746632D01*
X122267782Y-81637139D01*
X122407139Y-81497782D01*
X122516632Y-81333914D01*
X122545918Y-81263210D01*
X122567573Y-81230800D01*
X122586617Y-81196794D01*
X122594390Y-81190665D01*
X122599889Y-81182436D01*
X122632299Y-81160779D01*
X122662913Y-81136644D01*
X122672439Y-81133957D01*
X122680669Y-81128458D01*
X122718903Y-81120852D01*
X122756420Y-81110271D01*
X122766248Y-81111434D01*
X122775957Y-81109503D01*
X122814196Y-81117108D01*
X122852902Y-81121689D01*
X122861535Y-81126523D01*
X122871246Y-81128455D01*
X122903663Y-81150115D01*
X122937670Y-81169159D01*
X122943798Y-81176932D01*
X122952028Y-81182431D01*
X122997819Y-81245454D01*
X123002185Y-81254022D01*
X123131758Y-81432365D01*
X123287635Y-81588242D01*
X123465978Y-81717815D01*
X123465980Y-81717816D01*
X123465981Y-81717817D01*
X123616803Y-81794665D01*
X123693100Y-81854813D01*
X123740571Y-81939581D01*
X123751990Y-82036062D01*
X123725618Y-82129570D01*
X123665470Y-82205867D01*
X123652982Y-82215857D01*
X123617458Y-82242450D01*
X123617453Y-82242455D01*
X123531204Y-82357669D01*
X123480908Y-82492518D01*
X123474500Y-82552123D01*
X123474500Y-82594119D01*
X123469715Y-82618171D01*
X123469716Y-82642692D01*
X123460331Y-82665350D01*
X123455546Y-82689407D01*
X123441921Y-82709797D01*
X123432538Y-82732453D01*
X123415196Y-82749794D01*
X123401570Y-82770189D01*
X123363840Y-82801153D01*
X123304448Y-82840838D01*
X123286568Y-82852786D01*
X123281927Y-82855887D01*
X123272468Y-82863650D01*
X123270648Y-82861432D01*
X123207118Y-82903864D01*
X123111827Y-82922800D01*
X123016542Y-82903828D01*
X122935771Y-82849836D01*
X122904839Y-82812138D01*
X122848698Y-82728118D01*
X122701882Y-82581302D01*
X122529256Y-82465957D01*
X122529251Y-82465954D01*
X122337443Y-82386504D01*
X122133807Y-82346000D01*
X121884000Y-82346000D01*
X121884000Y-82969297D01*
X121822993Y-82934075D01*
X121695826Y-82900000D01*
X121564174Y-82900000D01*
X121437007Y-82934075D01*
X121376000Y-82969297D01*
X121376000Y-82346001D01*
X121375999Y-82346000D01*
X121126193Y-82346000D01*
X120922556Y-82386504D01*
X120730748Y-82465954D01*
X120730743Y-82465957D01*
X120558117Y-82581302D01*
X120411302Y-82728117D01*
X120295957Y-82900743D01*
X120295954Y-82900748D01*
X120216504Y-83092557D01*
X120205874Y-83146000D01*
X121199297Y-83146000D01*
X121164075Y-83207007D01*
X121130000Y-83334174D01*
X121130000Y-83465826D01*
X121164075Y-83592993D01*
X121199297Y-83654000D01*
X120205874Y-83654000D01*
X120216505Y-83707445D01*
X120275535Y-83849957D01*
X120294489Y-83945245D01*
X120275535Y-84040533D01*
X120221559Y-84121314D01*
X118394239Y-85948634D01*
X118317578Y-86063367D01*
X118264774Y-86190846D01*
X118264774Y-86190848D01*
X118256880Y-86230536D01*
X118256880Y-86230537D01*
X118237854Y-86326182D01*
X118237854Y-86971292D01*
X118218900Y-87066580D01*
X118168838Y-87141505D01*
X118168974Y-87141617D01*
X118167845Y-87142992D01*
X118164931Y-87147354D01*
X118161218Y-87151066D01*
X118161214Y-87151072D01*
X118051723Y-87314937D01*
X118051719Y-87314944D01*
X117976303Y-87497017D01*
X117976301Y-87497022D01*
X117937854Y-87690307D01*
X117937854Y-87887398D01*
X117976301Y-88080683D01*
X117976303Y-88080688D01*
X118051719Y-88262761D01*
X118051720Y-88262764D01*
X118051722Y-88262767D01*
X118078064Y-88302190D01*
X118143225Y-88399712D01*
X118161215Y-88426635D01*
X118300572Y-88565992D01*
X118464440Y-88675485D01*
X118482035Y-88682773D01*
X118657820Y-88755585D01*
X118656792Y-88758064D01*
X118669251Y-88764722D01*
X118700912Y-88777051D01*
X118711741Y-88787427D01*
X118724971Y-88794497D01*
X118746529Y-88820760D01*
X118771062Y-88844267D01*
X118777096Y-88857998D01*
X118786613Y-88869592D01*
X118796479Y-88902105D01*
X118810150Y-88933212D01*
X118810470Y-88948207D01*
X118814826Y-88962560D01*
X118811499Y-88996375D01*
X118812225Y-89030345D01*
X118806782Y-89044321D01*
X118805314Y-89059249D01*
X118789299Y-89089217D01*
X118776971Y-89120878D01*
X118766863Y-89131203D01*
X118759525Y-89144937D01*
X118709755Y-89191028D01*
X118707527Y-89192586D01*
X118662218Y-89222861D01*
X118657491Y-89227587D01*
X118642648Y-89237971D01*
X118606766Y-89253739D01*
X118572198Y-89272216D01*
X118562564Y-89273164D01*
X118553703Y-89277059D01*
X118514523Y-89277895D01*
X118475511Y-89281738D01*
X118466245Y-89278927D01*
X118456570Y-89279134D01*
X118420052Y-89264913D01*
X118382540Y-89253534D01*
X118375056Y-89247392D01*
X118366037Y-89243880D01*
X118337738Y-89216764D01*
X118321635Y-89203549D01*
X118320138Y-89205047D01*
X118307548Y-89192457D01*
X118307546Y-89192454D01*
X118192331Y-89106204D01*
X118112117Y-89076286D01*
X118057481Y-89055908D01*
X117997876Y-89049500D01*
X117997873Y-89049500D01*
X116643297Y-89049500D01*
X116548009Y-89030546D01*
X116467227Y-88976570D01*
X116173430Y-88682773D01*
X116119454Y-88601991D01*
X116100500Y-88506703D01*
X116100500Y-84454934D01*
X116119454Y-84359646D01*
X116173430Y-84278864D01*
X116254212Y-84224888D01*
X116349500Y-84205934D01*
X116433434Y-84222629D01*
X116433896Y-84221208D01*
X116498488Y-84242195D01*
X116660340Y-84294784D01*
X116885843Y-84330500D01*
X116885847Y-84330500D01*
X117114153Y-84330500D01*
X117114157Y-84330500D01*
X117339660Y-84294784D01*
X117556799Y-84224231D01*
X117760228Y-84120579D01*
X117944937Y-83986379D01*
X118106379Y-83824937D01*
X118240579Y-83640228D01*
X118344231Y-83436799D01*
X118414784Y-83219660D01*
X118450500Y-82994157D01*
X118450500Y-82765843D01*
X118423082Y-82592731D01*
X118426896Y-82495651D01*
X118467571Y-82407421D01*
X118492939Y-82377716D01*
X120204431Y-80666224D01*
X120285212Y-80612250D01*
X120380500Y-80593296D01*
X120475788Y-80612250D01*
G37*
G04 #@! TD.AperFunction*
G04 #@! TA.AperFunction,Conductor*
G36*
X132524000Y-71244124D02*
G01*
X132577443Y-71233495D01*
X132769254Y-71154043D01*
X132769256Y-71154042D01*
X132941884Y-71038695D01*
X132941886Y-71038694D01*
X133084430Y-70896150D01*
X133165211Y-70842173D01*
X133260499Y-70823219D01*
X133355787Y-70842173D01*
X133436569Y-70896149D01*
X133490546Y-70976930D01*
X133509500Y-71072218D01*
X133509500Y-71321865D01*
X133509500Y-71321868D01*
X133509501Y-71321872D01*
X133510621Y-71332287D01*
X133515908Y-71381480D01*
X133515909Y-71381484D01*
X133563837Y-71509985D01*
X133579377Y-71605889D01*
X133557034Y-71700440D01*
X133500208Y-71779243D01*
X133417551Y-71830301D01*
X133330536Y-71846000D01*
X133229168Y-71846000D01*
X133049781Y-71874413D01*
X133049767Y-71874417D01*
X132877025Y-71930544D01*
X132877019Y-71930546D01*
X132715167Y-72013013D01*
X132568223Y-72119775D01*
X132439775Y-72248223D01*
X132333013Y-72395167D01*
X132250546Y-72557019D01*
X132250544Y-72557025D01*
X132194415Y-72729772D01*
X132191845Y-72745999D01*
X132191846Y-72746000D01*
X133371000Y-72746000D01*
X133466288Y-72764954D01*
X133547070Y-72818930D01*
X133601046Y-72899712D01*
X133620000Y-72995000D01*
X133620000Y-73005000D01*
X133601046Y-73100288D01*
X133547070Y-73181070D01*
X133466288Y-73235046D01*
X133371000Y-73254000D01*
X132191846Y-73254000D01*
X132194415Y-73270227D01*
X132250544Y-73442974D01*
X132250546Y-73442980D01*
X132333013Y-73604832D01*
X132439775Y-73751776D01*
X132568220Y-73880221D01*
X132590223Y-73896207D01*
X132656172Y-73967550D01*
X132689800Y-74058700D01*
X132685987Y-74155780D01*
X132645313Y-74244011D01*
X132590224Y-74299099D01*
X132407639Y-74431754D01*
X132407635Y-74431757D01*
X132251759Y-74587633D01*
X132122184Y-74765979D01*
X132122179Y-74765986D01*
X132022109Y-74962383D01*
X132022105Y-74962392D01*
X132022105Y-74962394D01*
X131953985Y-75172049D01*
X131953984Y-75172052D01*
X131953984Y-75172054D01*
X131953982Y-75172061D01*
X131919501Y-75389767D01*
X131919500Y-75389782D01*
X131919500Y-75610217D01*
X131919501Y-75610232D01*
X131953982Y-75827938D01*
X131953984Y-75827945D01*
X131953985Y-75827951D01*
X132022105Y-76037606D01*
X132022106Y-76037607D01*
X132022109Y-76037616D01*
X132122179Y-76234013D01*
X132122183Y-76234019D01*
X132122185Y-76234022D01*
X132241286Y-76397951D01*
X132251759Y-76412366D01*
X132407636Y-76568243D01*
X132409991Y-76569954D01*
X132580225Y-76693635D01*
X132646173Y-76764975D01*
X132679800Y-76856125D01*
X132675986Y-76953205D01*
X132635312Y-77041436D01*
X132580228Y-77096521D01*
X132548229Y-77119770D01*
X132548224Y-77119774D01*
X132419775Y-77248223D01*
X132313013Y-77395167D01*
X132230546Y-77557019D01*
X132230544Y-77557025D01*
X132174415Y-77729772D01*
X132171845Y-77745999D01*
X132171846Y-77746000D01*
X133688314Y-77746000D01*
X133679920Y-77754394D01*
X133627259Y-77845606D01*
X133600000Y-77947339D01*
X133600000Y-78052661D01*
X133627259Y-78154394D01*
X133679920Y-78245606D01*
X133688314Y-78254000D01*
X132171846Y-78254000D01*
X132174415Y-78270227D01*
X132230544Y-78442974D01*
X132230546Y-78442980D01*
X132313013Y-78604832D01*
X132419775Y-78751776D01*
X132548223Y-78880224D01*
X132695167Y-78986986D01*
X132857019Y-79069453D01*
X132857029Y-79069457D01*
X132944103Y-79097749D01*
X133028871Y-79145220D01*
X133089019Y-79221518D01*
X133115391Y-79315025D01*
X133103972Y-79411506D01*
X133056501Y-79496274D01*
X133043837Y-79510021D01*
X133031930Y-79522009D01*
X133031879Y-79522667D01*
X133650000Y-80140788D01*
X134268119Y-79522668D01*
X134268119Y-79522667D01*
X134255580Y-79513557D01*
X134189631Y-79442215D01*
X134156003Y-79351065D01*
X134159816Y-79253985D01*
X134200491Y-79165754D01*
X134271833Y-79099805D01*
X134324997Y-79075296D01*
X134342980Y-79069453D01*
X134504832Y-78986986D01*
X134651776Y-78880224D01*
X134780224Y-78751776D01*
X134886984Y-78604834D01*
X134960202Y-78461133D01*
X134995623Y-78362436D01*
X135025583Y-78270233D01*
X135028154Y-78254000D01*
X134311686Y-78254000D01*
X134320080Y-78245606D01*
X134372741Y-78154394D01*
X134400000Y-78052661D01*
X134400000Y-77947339D01*
X134372741Y-77845606D01*
X134320080Y-77754394D01*
X134311686Y-77746000D01*
X135027885Y-77746000D01*
X135028079Y-77745530D01*
X135025582Y-77729766D01*
X134969455Y-77557025D01*
X134969453Y-77557019D01*
X134886986Y-77395167D01*
X134780224Y-77248223D01*
X134651776Y-77119775D01*
X134639237Y-77110665D01*
X134573288Y-77039321D01*
X134539661Y-76948171D01*
X134543476Y-76851091D01*
X134584151Y-76762861D01*
X134646987Y-76704776D01*
X134646107Y-76703565D01*
X134654019Y-76697816D01*
X134654022Y-76697815D01*
X134688104Y-76673052D01*
X134776333Y-76632380D01*
X134834460Y-76625500D01*
X135373178Y-76625500D01*
X135407764Y-76632380D01*
X135468464Y-76644454D01*
X135468465Y-76644454D01*
X135468466Y-76644455D01*
X135469883Y-76645402D01*
X135549242Y-76698427D01*
X135549247Y-76698432D01*
X135622775Y-76771961D01*
X135622776Y-76771962D01*
X135622779Y-76771964D01*
X135622781Y-76771966D01*
X135788390Y-76892287D01*
X135932500Y-76965715D01*
X136008796Y-77025861D01*
X136056268Y-77110628D01*
X136067687Y-77207110D01*
X136041316Y-77300617D01*
X135981168Y-77376915D01*
X135957793Y-77394609D01*
X135798118Y-77501301D01*
X135651302Y-77648117D01*
X135535957Y-77820743D01*
X135535953Y-77820750D01*
X135515044Y-77871229D01*
X135515044Y-77871230D01*
X135472631Y-77973621D01*
X135472632Y-77973622D01*
X135456503Y-78012559D01*
X135456502Y-78012562D01*
X135445873Y-78066000D01*
X136439297Y-78066000D01*
X136404075Y-78127007D01*
X136370000Y-78254174D01*
X136370000Y-78385826D01*
X136404075Y-78512993D01*
X136439297Y-78574000D01*
X135448797Y-78574000D01*
X135446915Y-78579241D01*
X135456502Y-78627437D01*
X135456503Y-78627440D01*
X135535954Y-78819251D01*
X135535957Y-78819256D01*
X135651302Y-78991882D01*
X135798117Y-79138697D01*
X135970743Y-79254042D01*
X135970748Y-79254045D01*
X136162556Y-79333495D01*
X136366193Y-79374000D01*
X136615999Y-79374000D01*
X136616000Y-79373999D01*
X136616000Y-78750702D01*
X136677007Y-78785925D01*
X136804174Y-78820000D01*
X136935826Y-78820000D01*
X137062993Y-78785925D01*
X137124000Y-78750702D01*
X137124000Y-79373999D01*
X137188228Y-79438227D01*
X137242204Y-79519009D01*
X137261158Y-79614297D01*
X137242204Y-79709585D01*
X137188228Y-79790367D01*
X137107446Y-79844343D01*
X137012158Y-79863297D01*
X136980762Y-79860206D01*
X136980714Y-79860699D01*
X136968541Y-79859500D01*
X136771459Y-79859500D01*
X136771458Y-79859500D01*
X136771445Y-79859501D01*
X136732676Y-79867214D01*
X136732671Y-79867215D01*
X136578169Y-79897947D01*
X136578164Y-79897949D01*
X136396091Y-79973365D01*
X136396084Y-79973369D01*
X136232221Y-80082858D01*
X136092858Y-80222221D01*
X135983369Y-80386084D01*
X135983365Y-80386091D01*
X135907949Y-80568164D01*
X135907947Y-80568169D01*
X135869500Y-80761454D01*
X135869500Y-80958545D01*
X135907947Y-81151830D01*
X135907949Y-81151835D01*
X135983365Y-81333908D01*
X135983366Y-81333911D01*
X135983368Y-81333914D01*
X135998346Y-81356330D01*
X136087587Y-81489890D01*
X136092861Y-81497782D01*
X136232218Y-81637139D01*
X136232221Y-81637141D01*
X136288574Y-81674795D01*
X136357273Y-81743494D01*
X136394453Y-81833254D01*
X136394452Y-81930409D01*
X136357273Y-82020168D01*
X136288574Y-82088867D01*
X136235216Y-82115881D01*
X136212770Y-82124030D01*
X136165466Y-82131523D01*
X135970781Y-82194780D01*
X135853932Y-82254317D01*
X135839521Y-82259550D01*
X135806364Y-82264626D01*
X135774078Y-82273732D01*
X135754542Y-82274500D01*
X133910458Y-82274500D01*
X133815170Y-82255546D01*
X133797422Y-82247364D01*
X133694219Y-82194780D01*
X133694216Y-82194779D01*
X133694214Y-82194778D01*
X133525048Y-82139813D01*
X133440281Y-82092341D01*
X133380133Y-82016044D01*
X133353761Y-81922537D01*
X133365180Y-81826055D01*
X133412652Y-81741288D01*
X133488949Y-81681140D01*
X133582456Y-81654768D01*
X133601993Y-81654000D01*
X133740819Y-81654000D01*
X133740831Y-81653999D01*
X133920218Y-81625586D01*
X133920232Y-81625582D01*
X134092974Y-81569455D01*
X134092980Y-81569453D01*
X134254831Y-81486986D01*
X134254832Y-81486986D01*
X134268119Y-81477331D01*
X134268119Y-81477330D01*
X133640791Y-80850000D01*
X133696078Y-80850000D01*
X133785095Y-80826148D01*
X133864905Y-80780070D01*
X133930070Y-80714905D01*
X133976148Y-80635095D01*
X134000000Y-80546078D01*
X134000000Y-80499999D01*
X134009210Y-80499999D01*
X134627330Y-81118119D01*
X134627331Y-81118119D01*
X134636986Y-81104832D01*
X134636986Y-81104831D01*
X134719453Y-80942980D01*
X134719455Y-80942974D01*
X134775582Y-80770232D01*
X134775586Y-80770218D01*
X134803999Y-80590831D01*
X134804000Y-80590819D01*
X134804000Y-80409180D01*
X134803999Y-80409168D01*
X134775586Y-80229781D01*
X134775582Y-80229767D01*
X134719455Y-80057025D01*
X134719453Y-80057019D01*
X134636988Y-79895172D01*
X134627330Y-79881878D01*
X134009210Y-80499999D01*
X134000000Y-80499999D01*
X134000000Y-80453922D01*
X133976148Y-80364905D01*
X133930070Y-80285095D01*
X133864905Y-80219930D01*
X133785095Y-80173852D01*
X133696078Y-80150000D01*
X133603922Y-80150000D01*
X133514905Y-80173852D01*
X133435095Y-80219930D01*
X133369930Y-80285095D01*
X133323852Y-80364905D01*
X133300000Y-80453922D01*
X133300000Y-80509209D01*
X132672668Y-79881878D01*
X132582640Y-79888966D01*
X132573240Y-79887853D01*
X132563961Y-79889733D01*
X132525291Y-79882179D01*
X132486158Y-79877549D01*
X132477896Y-79872922D01*
X132468608Y-79871108D01*
X132435775Y-79849334D01*
X132401390Y-79830078D01*
X132394402Y-79821896D01*
X132387640Y-79817412D01*
X132376727Y-79801201D01*
X132350789Y-79770832D01*
X132347818Y-79765983D01*
X132347815Y-79765978D01*
X132218242Y-79587635D01*
X132062365Y-79431758D01*
X131884022Y-79302185D01*
X131884019Y-79302183D01*
X131884013Y-79302179D01*
X131687616Y-79202109D01*
X131687609Y-79202106D01*
X131687606Y-79202105D01*
X131477951Y-79133985D01*
X131477945Y-79133984D01*
X131477938Y-79133982D01*
X131260232Y-79099501D01*
X131260225Y-79099500D01*
X131260222Y-79099500D01*
X131039778Y-79099500D01*
X131039775Y-79099500D01*
X131039767Y-79099501D01*
X130822061Y-79133982D01*
X130822054Y-79133984D01*
X130822052Y-79133984D01*
X130822049Y-79133985D01*
X130612394Y-79202105D01*
X130612392Y-79202105D01*
X130612392Y-79202106D01*
X130612383Y-79202109D01*
X130415986Y-79302179D01*
X130415979Y-79302184D01*
X130237633Y-79431759D01*
X130081759Y-79587633D01*
X129952184Y-79765979D01*
X129952179Y-79765986D01*
X129852109Y-79962383D01*
X129852105Y-79962392D01*
X129852105Y-79962394D01*
X129783985Y-80172049D01*
X129783984Y-80172052D01*
X129783984Y-80172054D01*
X129783982Y-80172061D01*
X129749501Y-80389767D01*
X129749500Y-80389782D01*
X129749500Y-80610217D01*
X129749501Y-80610232D01*
X129783982Y-80827938D01*
X129783984Y-80827945D01*
X129783985Y-80827951D01*
X129852105Y-81037606D01*
X129852106Y-81037607D01*
X129852109Y-81037616D01*
X129952179Y-81234012D01*
X129952183Y-81234019D01*
X129952185Y-81234022D01*
X129976946Y-81268103D01*
X130017620Y-81356330D01*
X130024500Y-81414459D01*
X130024500Y-81843588D01*
X130052211Y-82018546D01*
X130052213Y-82018554D01*
X130052214Y-82018556D01*
X130081021Y-82107214D01*
X130106958Y-82187042D01*
X130187386Y-82344890D01*
X130266262Y-82453453D01*
X130276548Y-82467611D01*
X130276551Y-82467616D01*
X130291515Y-82488212D01*
X131021570Y-83218267D01*
X131043157Y-83250574D01*
X131067238Y-83281054D01*
X131069329Y-83289745D01*
X131075546Y-83299049D01*
X131093711Y-83374532D01*
X131094500Y-83384420D01*
X131094500Y-83502352D01*
X131113462Y-83622073D01*
X131114230Y-83631695D01*
X131109674Y-83670544D01*
X131108139Y-83709627D01*
X131104052Y-83718492D01*
X131102915Y-83728189D01*
X131083840Y-83762335D01*
X131067465Y-83797858D01*
X131060295Y-83804485D01*
X131055535Y-83813008D01*
X131024846Y-83837254D01*
X130996122Y-83863807D01*
X130986961Y-83867186D01*
X130979302Y-83873238D01*
X130941670Y-83883895D01*
X130904972Y-83897434D01*
X130889588Y-83898644D01*
X130885824Y-83899711D01*
X130881895Y-83899250D01*
X130866019Y-83900500D01*
X129244297Y-83900500D01*
X129149009Y-83881546D01*
X129068227Y-83827570D01*
X128523430Y-83282773D01*
X128469454Y-83201991D01*
X128450500Y-83106703D01*
X128450500Y-82681007D01*
X128450499Y-82681002D01*
X128423581Y-82545675D01*
X128423580Y-82545672D01*
X128420147Y-82537385D01*
X128370775Y-82418189D01*
X128321798Y-82344890D01*
X128294114Y-82303457D01*
X127153430Y-81162773D01*
X127099454Y-81081991D01*
X127080500Y-80986703D01*
X127080500Y-79630544D01*
X127099454Y-79535256D01*
X127153430Y-79454474D01*
X127234212Y-79400498D01*
X127290548Y-79384610D01*
X127407938Y-79366017D01*
X127407937Y-79366017D01*
X127407951Y-79366015D01*
X127617606Y-79297895D01*
X127617616Y-79297890D01*
X127814013Y-79197820D01*
X127814015Y-79197818D01*
X127814022Y-79197815D01*
X127992365Y-79068242D01*
X128148242Y-78912365D01*
X128277815Y-78734022D01*
X128283641Y-78722589D01*
X128377890Y-78537616D01*
X128377890Y-78537615D01*
X128377895Y-78537606D01*
X128446015Y-78327951D01*
X128480500Y-78110222D01*
X128480500Y-77889778D01*
X128446015Y-77672049D01*
X128377895Y-77462394D01*
X128377891Y-77462386D01*
X128377890Y-77462383D01*
X128277820Y-77265986D01*
X128277816Y-77265981D01*
X128277815Y-77265978D01*
X128148242Y-77087635D01*
X127995986Y-76935379D01*
X127942010Y-76854597D01*
X127923056Y-76759309D01*
X127942010Y-76664021D01*
X127995986Y-76583239D01*
X128010360Y-76569954D01*
X128012357Y-76568247D01*
X128012365Y-76568242D01*
X128168242Y-76412365D01*
X128297815Y-76234022D01*
X128301210Y-76227360D01*
X128397890Y-76037616D01*
X128397890Y-76037615D01*
X128397895Y-76037606D01*
X128466015Y-75827951D01*
X128500500Y-75610222D01*
X128500500Y-75389778D01*
X128466015Y-75172049D01*
X128397895Y-74962394D01*
X128397891Y-74962386D01*
X128397890Y-74962383D01*
X128297820Y-74765986D01*
X128297816Y-74765981D01*
X128297815Y-74765978D01*
X128168242Y-74587635D01*
X128012365Y-74431758D01*
X128012364Y-74431757D01*
X128006677Y-74426070D01*
X127952701Y-74345288D01*
X127933747Y-74250000D01*
X127952701Y-74154712D01*
X128006677Y-74073930D01*
X128052669Y-74027938D01*
X128168242Y-73912365D01*
X128297815Y-73734022D01*
X128307018Y-73715962D01*
X128397890Y-73537616D01*
X128397890Y-73537615D01*
X128397895Y-73537606D01*
X128466015Y-73327951D01*
X128500500Y-73110222D01*
X128500500Y-72889778D01*
X128470940Y-72703144D01*
X128466017Y-72672061D01*
X128466016Y-72672060D01*
X128466015Y-72672049D01*
X128397895Y-72462394D01*
X128397891Y-72462386D01*
X128397890Y-72462383D01*
X128297820Y-72265986D01*
X128297816Y-72265981D01*
X128297815Y-72265978D01*
X128168242Y-72087635D01*
X128012365Y-71931758D01*
X127834022Y-71802185D01*
X127834019Y-71802183D01*
X127834014Y-71802180D01*
X127827119Y-71798667D01*
X127750824Y-71738516D01*
X127703356Y-71653747D01*
X127691940Y-71557265D01*
X127718316Y-71463758D01*
X127778467Y-71387463D01*
X127827123Y-71354954D01*
X127871610Y-71332287D01*
X128037219Y-71211966D01*
X128181966Y-71067219D01*
X128181976Y-71067204D01*
X128184649Y-71064076D01*
X128186823Y-71062361D01*
X128188884Y-71060301D01*
X128189127Y-71060544D01*
X128260942Y-71003922D01*
X128354447Y-70977542D01*
X128450929Y-70988953D01*
X128535701Y-71036418D01*
X128595854Y-71112710D01*
X128617713Y-71155610D01*
X128738034Y-71321219D01*
X128882781Y-71465966D01*
X129048390Y-71586287D01*
X129230781Y-71679220D01*
X129425466Y-71742477D01*
X129496575Y-71753739D01*
X129627638Y-71774499D01*
X129627645Y-71774499D01*
X129627648Y-71774500D01*
X129627651Y-71774500D01*
X129832349Y-71774500D01*
X129832352Y-71774500D01*
X129832355Y-71774499D01*
X129832361Y-71774499D01*
X129927870Y-71759371D01*
X130034534Y-71742477D01*
X130229219Y-71679220D01*
X130411610Y-71586287D01*
X130577219Y-71465966D01*
X130721966Y-71321219D01*
X130842287Y-71155610D01*
X130935220Y-70973219D01*
X130963213Y-70887062D01*
X131010684Y-70802298D01*
X131086981Y-70742149D01*
X131180488Y-70715777D01*
X131276969Y-70727195D01*
X131361737Y-70774667D01*
X131407062Y-70825672D01*
X131451302Y-70891882D01*
X131598117Y-71038697D01*
X131770743Y-71154042D01*
X131770745Y-71154043D01*
X131962557Y-71233495D01*
X131962556Y-71233495D01*
X132016000Y-71244124D01*
X132016000Y-69935941D01*
X132073919Y-69969381D01*
X132203120Y-70004000D01*
X132336880Y-70004000D01*
X132466081Y-69969381D01*
X132524000Y-69935941D01*
X132524000Y-71244124D01*
G37*
G04 #@! TD.AperFunction*
G04 #@! TD*
D32*
X141100000Y-124530000D03*
X123600000Y-134700000D03*
X134750000Y-83400000D03*
X134500000Y-88500000D03*
X89500000Y-102900000D03*
X131100000Y-120900000D03*
X89500000Y-94600000D03*
X125200000Y-114600000D03*
X119100000Y-83400000D03*
X139300000Y-89700000D03*
X85800000Y-102900000D03*
X127700000Y-100900000D03*
X118938354Y-87788853D03*
X90825000Y-94600000D03*
X134135000Y-116765000D03*
X132800000Y-100500000D03*
X134165000Y-119735000D03*
X131000000Y-104000000D03*
X131000000Y-94225000D03*
X134500000Y-91020000D03*
X139200000Y-126200000D03*
X128075000Y-85900000D03*
X124931000Y-129600000D03*
X123600000Y-101300000D03*
X114660757Y-118960757D03*
X111500000Y-105000000D03*
X107800000Y-105200000D03*
X113085804Y-119985804D03*
X119300000Y-90000000D03*
X127003343Y-88938082D03*
X86600499Y-105199501D03*
X80166912Y-81300000D03*
X81066912Y-79400000D03*
X125900000Y-131100000D03*
X123500000Y-106260000D03*
X82000000Y-80400000D03*
X83000000Y-79400000D03*
X75700000Y-140944724D03*
X78200000Y-140944724D03*
X80700000Y-140944724D03*
X124200000Y-73000000D03*
X124200000Y-80620000D03*
X78150000Y-68450000D03*
X78150000Y-70990000D03*
X78150000Y-73530000D03*
X78150000Y-76070000D03*
X85770000Y-76070000D03*
X85770000Y-73530000D03*
X85770000Y-70990000D03*
X85770000Y-68450000D03*
X125175000Y-83400000D03*
X125175000Y-85940000D03*
X125175000Y-88480000D03*
X125175000Y-91020000D03*
X125175000Y-93560000D03*
X125175000Y-96100000D03*
X125175000Y-98640000D03*
X132795000Y-98640000D03*
X132795000Y-96100000D03*
X132795000Y-93560000D03*
X132795000Y-91020000D03*
X132795000Y-88480000D03*
X132795000Y-85940000D03*
X132795000Y-83400000D03*
X70628800Y-74502400D03*
X70628800Y-68000000D03*
X75150000Y-74502400D03*
X75150000Y-68000000D03*
X70600000Y-113550000D03*
X70600000Y-105930000D03*
X154530000Y-80870000D03*
X72400000Y-94550000D03*
X72400000Y-86930000D03*
X75800000Y-105000000D03*
X72400000Y-85000000D03*
X72400000Y-77380000D03*
X154530000Y-129130000D03*
X134000000Y-78000000D03*
X126380000Y-78000000D03*
X121630000Y-75780000D03*
X121630000Y-78320000D03*
X121630000Y-80860000D03*
X121630000Y-83400000D03*
X121630000Y-85940000D03*
X121630000Y-88480000D03*
X121630000Y-91020000D03*
X121630000Y-93560000D03*
X121630000Y-96100000D03*
X121630000Y-98640000D03*
X121630000Y-101180000D03*
X121630000Y-103720000D03*
X121630000Y-106260000D03*
X121630000Y-108800000D03*
X121630000Y-111340000D03*
X136870000Y-111340000D03*
X136870000Y-108800000D03*
X136870000Y-106260000D03*
X136870000Y-103720000D03*
X136870000Y-101180000D03*
X136870000Y-98640000D03*
X136870000Y-96100000D03*
X136870000Y-93560000D03*
X136870000Y-91020000D03*
X136870000Y-88480000D03*
X136870000Y-85940000D03*
X136870000Y-83400000D03*
X136870000Y-80860000D03*
X136870000Y-78320000D03*
X136870000Y-75780000D03*
X134810000Y-69750000D03*
X132270000Y-69496000D03*
X129730000Y-69750000D03*
X127190000Y-69496000D03*
X131150000Y-80500000D03*
X133650000Y-80500000D03*
X162100000Y-105000000D03*
X96000000Y-132275000D03*
X114000000Y-132275000D03*
X114000000Y-77800000D03*
X96000000Y-77800000D03*
X144370000Y-129130000D03*
X117000000Y-90500000D03*
X117000000Y-82880000D03*
X93877000Y-88500000D03*
X93623000Y-91040000D03*
X93877000Y-93580000D03*
X93623000Y-96120000D03*
X93877000Y-98660000D03*
X93623000Y-101200000D03*
X144370000Y-80870000D03*
X116800000Y-113000000D03*
X116800000Y-97760000D03*
X141877000Y-121500000D03*
X142131000Y-118960000D03*
X141877000Y-116420000D03*
X142131000Y-113880000D03*
X141877000Y-111340000D03*
X142131000Y-108800000D03*
X141877000Y-106260000D03*
X142131000Y-103720000D03*
X141877000Y-101180000D03*
X142131000Y-98640000D03*
X141877000Y-96100000D03*
X142131000Y-93560000D03*
X141877000Y-91020000D03*
X142131000Y-88480000D03*
X70600000Y-104050000D03*
X70600000Y-96430000D03*
X126400000Y-73000000D03*
X134020000Y-73000000D03*
X72400000Y-132550000D03*
X72400000Y-124930000D03*
X93750000Y-108750000D03*
X93496000Y-111290000D03*
X93750000Y-113830000D03*
X93496000Y-116370000D03*
X93750000Y-118910000D03*
X93496000Y-121450000D03*
X121580000Y-116910000D03*
X121580000Y-119450000D03*
X121580000Y-121990000D03*
X121580000Y-124530000D03*
X121580000Y-127070000D03*
X121580000Y-129610000D03*
X121580000Y-132150000D03*
X121580000Y-134690000D03*
X136820000Y-134690000D03*
X136820000Y-132150000D03*
X136820000Y-129610000D03*
X136820000Y-127070000D03*
X136820000Y-124530000D03*
X136820000Y-121990000D03*
X136820000Y-119450000D03*
X136820000Y-116910000D03*
X72400000Y-115400000D03*
X72400000Y-123020000D03*
X126400000Y-75500000D03*
X134020000Y-75500000D03*
X80800000Y-133850000D03*
X78260000Y-133850000D03*
M02*
