G04 #@! TF.GenerationSoftware,KiCad,Pcbnew,9.0.1*
G04 #@! TF.CreationDate,2025-07-23T10:34:01+02:00*
G04 #@! TF.ProjectId,mainboard,6d61696e-626f-4617-9264-2e6b69636164,rev?*
G04 #@! TF.SameCoordinates,Original*
G04 #@! TF.FileFunction,Profile,NP*
%FSLAX46Y46*%
G04 Gerber Fmt 4.6, Leading zero omitted, Abs format (unit mm)*
G04 Created by KiCad (PCBNEW 9.0.1) date 2025-07-23 10:34:01*
%MOMM*%
%LPD*%
G01*
G04 APERTURE LIST*
G04 #@! TA.AperFunction,Profile*
%ADD10C,0.200000*%
G04 #@! TD*
%ADD11C,0.350000*%
G04 APERTURE END LIST*
D10*
X88480000Y-138760000D02*
G75*
G02*
X90480000Y-136760000I2000000J0D01*
G01*
X167220000Y-132950000D02*
X167220000Y-77070000D01*
X88480000Y-64370000D02*
X70700000Y-64370000D01*
X88480000Y-145650000D02*
X88480000Y-138760000D01*
X68160000Y-66910000D02*
X68160000Y-143110000D01*
X121500000Y-71260000D02*
G75*
G02*
X119500000Y-73260000I-2000000J0D01*
G01*
X121500000Y-138760000D02*
X121500000Y-145650000D01*
X70700000Y-64370000D02*
X68160000Y-66910000D01*
X119500000Y-136760000D02*
G75*
G02*
X121500000Y-138760000I0J-2000000D01*
G01*
X167220000Y-77070000D02*
X154520000Y-64370000D01*
X90480000Y-73260000D02*
G75*
G02*
X88480000Y-71260000I0J2000000D01*
G01*
X121500000Y-145650000D02*
X154520000Y-145650000D01*
X70700000Y-145650000D02*
X88480000Y-145650000D01*
X119500000Y-73260000D02*
X90480000Y-73260000D01*
X121500000Y-64370000D02*
X121500000Y-71260000D01*
X88480000Y-71260000D02*
X88480000Y-64370000D01*
X154520000Y-145650000D02*
X167220000Y-132950000D01*
X90480000Y-136760000D02*
X119500000Y-136760000D01*
X68160000Y-143110000D02*
X70700000Y-145650000D01*
X154520000Y-64370000D02*
X121500000Y-64370000D01*
D11*
X75700000Y-140944724D03*
X78200000Y-140944724D03*
X80700000Y-140944724D03*
X124200000Y-73000000D03*
X124200000Y-80620000D03*
X78150000Y-68450000D03*
X78150000Y-70990000D03*
X78150000Y-73530000D03*
X78150000Y-76070000D03*
X85770000Y-76070000D03*
X85770000Y-73530000D03*
X85770000Y-70990000D03*
X85770000Y-68450000D03*
X125175000Y-83400000D03*
X125175000Y-85940000D03*
X125175000Y-88480000D03*
X125175000Y-91020000D03*
X125175000Y-93560000D03*
X125175000Y-96100000D03*
X125175000Y-98640000D03*
X132795000Y-98640000D03*
X132795000Y-96100000D03*
X132795000Y-93560000D03*
X132795000Y-91020000D03*
X132795000Y-88480000D03*
X132795000Y-85940000D03*
X132795000Y-83400000D03*
X70628800Y-74502400D03*
X70628800Y-68000000D03*
X75150000Y-74502400D03*
X75150000Y-68000000D03*
X70600000Y-113550000D03*
X70600000Y-105930000D03*
X154530000Y-80870000D03*
X72400000Y-94550000D03*
X72400000Y-86930000D03*
X75800000Y-105000000D03*
X72400000Y-85000000D03*
X72400000Y-77380000D03*
X154530000Y-129130000D03*
X134000000Y-78000000D03*
X126380000Y-78000000D03*
X121630000Y-75780000D03*
X121630000Y-78320000D03*
X121630000Y-80860000D03*
X121630000Y-83400000D03*
X121630000Y-85940000D03*
X121630000Y-88480000D03*
X121630000Y-91020000D03*
X121630000Y-93560000D03*
X121630000Y-96100000D03*
X121630000Y-98640000D03*
X121630000Y-101180000D03*
X121630000Y-103720000D03*
X121630000Y-106260000D03*
X121630000Y-108800000D03*
X121630000Y-111340000D03*
X136870000Y-111340000D03*
X136870000Y-108800000D03*
X136870000Y-106260000D03*
X136870000Y-103720000D03*
X136870000Y-101180000D03*
X136870000Y-98640000D03*
X136870000Y-96100000D03*
X136870000Y-93560000D03*
X136870000Y-91020000D03*
X136870000Y-88480000D03*
X136870000Y-85940000D03*
X136870000Y-83400000D03*
X136870000Y-80860000D03*
X136870000Y-78320000D03*
X136870000Y-75780000D03*
X134810000Y-69750000D03*
X132270000Y-69496000D03*
X129730000Y-69750000D03*
X127190000Y-69496000D03*
X131150000Y-80500000D03*
X133650000Y-80500000D03*
X162100000Y-105000000D03*
X96000000Y-132275000D03*
X114000000Y-132275000D03*
X114000000Y-77800000D03*
X96000000Y-77800000D03*
X144370000Y-129130000D03*
X117000000Y-90500000D03*
X117000000Y-82880000D03*
X93877000Y-88500000D03*
X93623000Y-91040000D03*
X93877000Y-93580000D03*
X93623000Y-96120000D03*
X93877000Y-98660000D03*
X93623000Y-101200000D03*
X144370000Y-80870000D03*
X116800000Y-113000000D03*
X116800000Y-97760000D03*
X141877000Y-121500000D03*
X142131000Y-118960000D03*
X141877000Y-116420000D03*
X142131000Y-113880000D03*
X141877000Y-111340000D03*
X142131000Y-108800000D03*
X141877000Y-106260000D03*
X142131000Y-103720000D03*
X141877000Y-101180000D03*
X142131000Y-98640000D03*
X141877000Y-96100000D03*
X142131000Y-93560000D03*
X141877000Y-91020000D03*
X142131000Y-88480000D03*
X70600000Y-104050000D03*
X70600000Y-96430000D03*
X126400000Y-73000000D03*
X134020000Y-73000000D03*
X72400000Y-132550000D03*
X72400000Y-124930000D03*
X93750000Y-108750000D03*
X93496000Y-111290000D03*
X93750000Y-113830000D03*
X93496000Y-116370000D03*
X93750000Y-118910000D03*
X93496000Y-121450000D03*
X121580000Y-116910000D03*
X121580000Y-119450000D03*
X121580000Y-121990000D03*
X121580000Y-124530000D03*
X121580000Y-127070000D03*
X121580000Y-129610000D03*
X121580000Y-132150000D03*
X121580000Y-134690000D03*
X136820000Y-134690000D03*
X136820000Y-132150000D03*
X136820000Y-129610000D03*
X136820000Y-127070000D03*
X136820000Y-124530000D03*
X136820000Y-121990000D03*
X136820000Y-119450000D03*
X136820000Y-116910000D03*
X72400000Y-115400000D03*
X72400000Y-123020000D03*
X126400000Y-75500000D03*
X134020000Y-75500000D03*
X80800000Y-133850000D03*
X78260000Y-133850000D03*
M02*
