%TF.GenerationSoftware,KiCad,Pcbnew,9.0.1*%
%TF.CreationDate,2025-07-21T13:37:36+02:00*%
%TF.ProjectId,mainboard,6d61696e-626f-4617-9264-2e6b69636164,rev?*%
%TF.SameCoordinates,Original*%
%TF.FileFunction,Plated,1,2,PTH,Mixed*%
%TF.FilePolarity,Positive*%
%FSLAX46Y46*%
G04 Gerber Fmt 4.6, Leading zero omitted, Abs format (unit mm)*
G04 Created by KiCad (PCBNEW 9.0.1) date 2025-07-21 13:37:36*
%MOMM*%
%LPD*%
G01*
G04 APERTURE LIST*
%TA.AperFunction,ViaDrill*%
%ADD10C,0.400000*%
%TD*%
%TA.AperFunction,ComponentDrill*%
%ADD11C,0.700000*%
%TD*%
%TA.AperFunction,ComponentDrill*%
%ADD12C,0.800000*%
%TD*%
%TA.AperFunction,ComponentDrill*%
%ADD13C,1.000000*%
%TD*%
%TA.AperFunction,ComponentDrill*%
%ADD14C,1.016000*%
%TD*%
G04 aperture for slot hole*
%TA.AperFunction,ComponentDrill*%
%ADD15C,1.100000*%
%TD*%
%TA.AperFunction,ComponentDrill*%
%ADD16C,1.190000*%
%TD*%
%TA.AperFunction,ComponentDrill*%
%ADD17C,1.600000*%
%TD*%
G04 APERTURE END LIST*
D10*
X79250000Y-83500000D03*
X80950000Y-73550000D03*
X82200000Y-74950000D03*
X82500000Y-83500000D03*
X89500000Y-103750000D03*
X89500000Y-106750000D03*
X111750000Y-120000000D03*
X112400000Y-103750000D03*
X112400000Y-107750000D03*
X112450000Y-123850000D03*
X114000000Y-103750000D03*
X114000000Y-107750000D03*
X119250000Y-82450000D03*
X125250000Y-132000002D03*
X126000000Y-129500000D03*
X127250000Y-87200000D03*
X127250000Y-89700000D03*
X127250000Y-116900000D03*
X127250000Y-121050000D03*
X127700000Y-85300000D03*
X127750000Y-83500000D03*
X128500000Y-104000000D03*
X128500000Y-107000000D03*
X128500000Y-110000000D03*
X128500000Y-113000000D03*
X130500000Y-129500000D03*
X130500000Y-132000000D03*
X130726500Y-87200000D03*
X130726500Y-89700000D03*
X130800000Y-83500000D03*
X132500000Y-104000000D03*
X132500000Y-107000000D03*
X132500000Y-110000000D03*
X132500000Y-113000000D03*
X138500000Y-123200000D03*
D11*
%TO.C,C1*%
X131150000Y-80500000D03*
X133650000Y-80500000D03*
D12*
%TO.C,R3*%
X70600000Y-96430000D03*
X70600000Y-104050000D03*
%TO.C,R4*%
X70600000Y-105930000D03*
X70600000Y-113550000D03*
%TO.C,R1*%
X72400000Y-77380000D03*
X72400000Y-85000000D03*
%TO.C,R2*%
X72400000Y-86930000D03*
X72400000Y-94550000D03*
%TO.C,R5*%
X72400000Y-115400000D03*
X72400000Y-123020000D03*
%TO.C,R6*%
X72400000Y-124930000D03*
X72400000Y-132550000D03*
%TO.C,D3*%
X117000000Y-85390000D03*
X117000000Y-93010000D03*
%TO.C,R11*%
X124200000Y-73000000D03*
X124200000Y-80620000D03*
%TO.C,C2*%
X124727651Y-140725000D03*
%TO.C,IC1*%
X125175000Y-83400000D03*
X125175000Y-85940000D03*
X125175000Y-88480000D03*
X125175000Y-91020000D03*
X125175000Y-93560000D03*
X125175000Y-96100000D03*
X125175000Y-98640000D03*
%TO.C,R8*%
X126380000Y-78000000D03*
%TO.C,R10*%
X126400000Y-73000000D03*
%TO.C,R7*%
X126400000Y-75500000D03*
%TO.C,C2*%
X127227651Y-140725000D03*
%TO.C,IC1*%
X132795000Y-83400000D03*
X132795000Y-85940000D03*
X132795000Y-88480000D03*
X132795000Y-91020000D03*
X132795000Y-93560000D03*
X132795000Y-96100000D03*
X132795000Y-98640000D03*
%TO.C,C3*%
X133527651Y-140725000D03*
%TO.C,R8*%
X134000000Y-78000000D03*
%TO.C,R10*%
X134020000Y-73000000D03*
%TO.C,R7*%
X134020000Y-75500000D03*
%TO.C,C3*%
X136027651Y-140725000D03*
%TO.C,U1*%
X136870000Y-75780000D03*
D13*
%TO.C,S2*%
X70628800Y-68000000D03*
X70628800Y-74502400D03*
X75150000Y-68000000D03*
X75150000Y-74502400D03*
%TO.C,S3*%
X78150000Y-68450000D03*
X78150000Y-70990000D03*
X78150000Y-73530000D03*
X78150000Y-76070000D03*
X85770000Y-68450000D03*
X85770000Y-70990000D03*
X85770000Y-73530000D03*
X85770000Y-76070000D03*
%TO.C,U2*%
X121580000Y-116910000D03*
X121580000Y-119450000D03*
X121580000Y-121990000D03*
X121580000Y-124530000D03*
X121580000Y-127070000D03*
X121580000Y-129610000D03*
X121580000Y-132150000D03*
X121580000Y-134690000D03*
%TO.C,U1*%
X121630000Y-75780000D03*
X121630000Y-78320000D03*
X121630000Y-80860000D03*
X121630000Y-83400000D03*
X121630000Y-85940000D03*
X121630000Y-88480000D03*
X121630000Y-91020000D03*
X121630000Y-93560000D03*
X121630000Y-96100000D03*
X121630000Y-98640000D03*
X121630000Y-101180000D03*
X121630000Y-103720000D03*
X121630000Y-106260000D03*
X121630000Y-108800000D03*
X121630000Y-111340000D03*
%TO.C,U2*%
X136820000Y-116910000D03*
X136820000Y-119450000D03*
X136820000Y-121990000D03*
X136820000Y-124530000D03*
X136820000Y-127070000D03*
X136820000Y-129610000D03*
X136820000Y-132150000D03*
X136820000Y-134690000D03*
%TO.C,U1*%
X136870000Y-78320000D03*
X136870000Y-80860000D03*
X136870000Y-83400000D03*
X136870000Y-85940000D03*
X136870000Y-88480000D03*
X136870000Y-91020000D03*
X136870000Y-93560000D03*
X136870000Y-96100000D03*
X136870000Y-98640000D03*
X136870000Y-101180000D03*
X136870000Y-103720000D03*
X136870000Y-106260000D03*
X136870000Y-108800000D03*
X136870000Y-111340000D03*
D14*
%TO.C,J2*%
X93496000Y-111290000D03*
X93496000Y-116370000D03*
X93496000Y-121450000D03*
%TO.C,J3*%
X93623000Y-91040000D03*
X93623000Y-96120000D03*
X93623000Y-101200000D03*
%TO.C,J2*%
X93750000Y-108750000D03*
X93750000Y-113830000D03*
X93750000Y-118910000D03*
%TO.C,J3*%
X93877000Y-88500000D03*
X93877000Y-93580000D03*
X93877000Y-98660000D03*
%TO.C,J5*%
X127190000Y-69496000D03*
X129730000Y-69750000D03*
X132270000Y-69496000D03*
X134810000Y-69750000D03*
%TO.C,J1*%
X141877000Y-91020000D03*
X141877000Y-96100000D03*
X141877000Y-101180000D03*
X141877000Y-106260000D03*
X141877000Y-111340000D03*
X141877000Y-116420000D03*
X141877000Y-121500000D03*
X142131000Y-88480000D03*
X142131000Y-93560000D03*
X142131000Y-98640000D03*
X142131000Y-103720000D03*
X142131000Y-108800000D03*
X142131000Y-113880000D03*
X142131000Y-118960000D03*
D15*
%TO.C,S1*%
X74200000Y-141444724D02*
X74200000Y-140444724D01*
X75700000Y-141444724D02*
X75700000Y-140444724D01*
X78200000Y-141444724D02*
X78200000Y-140444724D01*
X80700000Y-141444724D02*
X80700000Y-140444724D01*
X82200000Y-141444724D02*
X82200000Y-140444724D01*
D16*
%TO.C,J4*%
X78260000Y-133850000D03*
X80800000Y-133850000D03*
D17*
%TO.C,D1*%
X117000000Y-97380000D03*
X117000000Y-112620000D03*
M02*
