G04 #@! TF.GenerationSoftware,KiCad,Pcbnew,9.0.1*
G04 #@! TF.CreationDate,2025-07-21T13:33:18+02:00*
G04 #@! TF.ProjectId,ukmarsbot-wall-sensor-advanced,756b6d61-7273-4626-9f74-2d77616c6c2d,rev?*
G04 #@! TF.SameCoordinates,Original*
G04 #@! TF.FileFunction,Other,ECO1*
%FSLAX46Y46*%
G04 Gerber Fmt 4.6, Leading zero omitted, Abs format (unit mm)*
G04 Created by KiCad (PCBNEW 9.0.1) date 2025-07-21 13:33:18*
%MOMM*%
%LPD*%
G01*
G04 APERTURE LIST*
%ADD10C,0.750000*%
%ADD11C,0.350000*%
G04 APERTURE END LIST*
D10*
G04 #@! TO.C,FID3*
X155000000Y-67500000D03*
G04 #@! TD*
G04 #@! TO.C,FID2*
X140000000Y-68500000D03*
G04 #@! TD*
G04 #@! TO.C,FID1*
X141500000Y-143500000D03*
G04 #@! TD*
D11*
X144370000Y-129130000D03*
X159200000Y-93500000D03*
X157000295Y-92230000D03*
X144277127Y-74600000D03*
X143836061Y-72098588D03*
X162150000Y-106275000D03*
X162150000Y-103735000D03*
X146275000Y-92681000D03*
X153895000Y-92681000D03*
X163420000Y-112620000D03*
X160880000Y-112620000D03*
X158340000Y-112620000D03*
X157070000Y-80235000D03*
X154570000Y-80235000D03*
X157100000Y-117900000D03*
X159299705Y-116630000D03*
X146275000Y-89633000D03*
X153895000Y-89633000D03*
X143834325Y-137900000D03*
X144275391Y-135398588D03*
X146285000Y-95729000D03*
X153905000Y-95729000D03*
X146275000Y-107921000D03*
X153895000Y-107921000D03*
X146275000Y-101825000D03*
X153895000Y-101825000D03*
X146275000Y-110969000D03*
X153895000Y-110969000D03*
X146275000Y-123288000D03*
X153895000Y-123288000D03*
X146275000Y-104873000D03*
X153895000Y-104873000D03*
X163420000Y-97380000D03*
X160880000Y-97380000D03*
X158340000Y-97380000D03*
X144370000Y-80870000D03*
X153885000Y-86585000D03*
X146265000Y-86585000D03*
X146275000Y-98777000D03*
X153895000Y-98777000D03*
X158340000Y-101200000D03*
X158340000Y-108820000D03*
X146275000Y-120240000D03*
X153895000Y-120240000D03*
X146275000Y-114017000D03*
X153895000Y-114017000D03*
X146275000Y-117065000D03*
X153895000Y-117065000D03*
X157070000Y-129765000D03*
X154570000Y-129765000D03*
X147825391Y-136026588D03*
X147384325Y-138528000D03*
X158848000Y-88998000D03*
X161047705Y-90268000D03*
X147427127Y-71472000D03*
X147868193Y-73973412D03*
X161047705Y-119732000D03*
X158848000Y-121002000D03*
X141830000Y-121510000D03*
X141830000Y-118970000D03*
X141830000Y-116430000D03*
X141830000Y-113890000D03*
X141830000Y-111350000D03*
X141830000Y-108810000D03*
X141830000Y-106270000D03*
X141830000Y-103730000D03*
X141830000Y-101190000D03*
X141830000Y-98650000D03*
X141830000Y-96110000D03*
X141830000Y-93570000D03*
X141830000Y-91030000D03*
X141830000Y-88490000D03*
M02*
