%TF.GenerationSoftware,KiCad,Pcbnew,9.0.1*%
%TF.CreationDate,2025-07-21T13:33:18+02:00*%
%TF.ProjectId,ukmarsbot-wall-sensor-advanced,756b6d61-7273-4626-9f74-2d77616c6c2d,rev?*%
%TF.SameCoordinates,Original*%
%TF.FileFunction,Plated,1,2,PTH,Drill*%
%TF.FilePolarity,Positive*%
%FSLAX46Y46*%
G04 Gerber Fmt 4.6, Leading zero omitted, Abs format (unit mm)*
G04 Created by KiCad (PCBNEW 9.0.1) date 2025-07-21 13:33:18*
%MOMM*%
%LPD*%
G01*
G04 APERTURE LIST*
%TA.AperFunction,ViaDrill*%
%ADD10C,0.400000*%
%TD*%
%TA.AperFunction,ComponentDrill*%
%ADD11C,0.800000*%
%TD*%
%TA.AperFunction,ComponentDrill*%
%ADD12C,0.900000*%
%TD*%
%TA.AperFunction,ComponentDrill*%
%ADD13C,1.000000*%
%TD*%
%TA.AperFunction,ComponentDrill*%
%ADD14C,3.200000*%
%TD*%
G04 APERTURE END LIST*
D10*
X144700000Y-115500000D03*
X148050500Y-121802626D03*
X148100000Y-112450000D03*
X149900000Y-107950000D03*
X150750000Y-121819010D03*
X150800000Y-118700000D03*
X151600000Y-112500000D03*
X151600000Y-115500000D03*
X151649500Y-104873000D03*
X152625000Y-91157000D03*
X154000000Y-118700000D03*
X164886262Y-95184886D03*
D11*
%TO.C,R11*%
X146265000Y-86585000D03*
%TO.C,R1*%
X146275000Y-89633000D03*
%TO.C,R2*%
X146275000Y-92681000D03*
%TO.C,R4*%
X146275000Y-98777000D03*
%TO.C,R5*%
X146275000Y-101825000D03*
%TO.C,R6*%
X146275000Y-104873000D03*
%TO.C,R7*%
X146275000Y-107921000D03*
%TO.C,R8*%
X146275000Y-110969000D03*
%TO.C,R13*%
X146275000Y-114017000D03*
%TO.C,R14*%
X146275000Y-117065000D03*
%TO.C,R9*%
X146275000Y-120240000D03*
%TO.C,R10*%
X146275000Y-123288000D03*
%TO.C,R3*%
X146285000Y-95729000D03*
%TO.C,R11*%
X153885000Y-86585000D03*
%TO.C,R1*%
X153895000Y-89633000D03*
%TO.C,R2*%
X153895000Y-92681000D03*
%TO.C,R4*%
X153895000Y-98777000D03*
%TO.C,R5*%
X153895000Y-101825000D03*
%TO.C,R6*%
X153895000Y-104873000D03*
%TO.C,R7*%
X153895000Y-107921000D03*
%TO.C,R8*%
X153895000Y-110969000D03*
%TO.C,R13*%
X153895000Y-114017000D03*
%TO.C,R14*%
X153895000Y-117065000D03*
%TO.C,R9*%
X153895000Y-120240000D03*
%TO.C,R10*%
X153895000Y-123288000D03*
%TO.C,R3*%
X153905000Y-95729000D03*
%TO.C,C1*%
X154570000Y-80235000D03*
%TO.C,C2*%
X154570000Y-129765000D03*
%TO.C,C1*%
X157070000Y-80235000D03*
%TO.C,C2*%
X157070000Y-129765000D03*
%TO.C,Q5*%
X158340000Y-97380000D03*
%TO.C,R12*%
X158340000Y-101200000D03*
X158340000Y-108820000D03*
%TO.C,Q6*%
X158340000Y-112620000D03*
%TO.C,Q5*%
X160880000Y-97380000D03*
%TO.C,Q6*%
X160880000Y-112620000D03*
%TO.C,Q5*%
X163420000Y-97380000D03*
%TO.C,Q6*%
X163420000Y-112620000D03*
D12*
%TO.C,D4*%
X143834325Y-137900000D03*
%TO.C,D1*%
X143836061Y-72098588D03*
%TO.C,D4*%
X144275391Y-135398588D03*
%TO.C,D1*%
X144277127Y-74600000D03*
%TO.C,Q4*%
X147384325Y-138528000D03*
%TO.C,Q1*%
X147427127Y-71472000D03*
%TO.C,Q4*%
X147825391Y-136026588D03*
%TO.C,Q1*%
X147868193Y-73973412D03*
%TO.C,D2*%
X157000295Y-92230000D03*
%TO.C,D3*%
X157100000Y-117900000D03*
%TO.C,Q2*%
X158848000Y-88998000D03*
%TO.C,Q3*%
X158848000Y-121002000D03*
%TO.C,D2*%
X159200000Y-93500000D03*
%TO.C,D3*%
X159299705Y-116630000D03*
%TO.C,Q2*%
X161047705Y-90268000D03*
%TO.C,Q3*%
X161047705Y-119732000D03*
%TO.C,D5*%
X162150000Y-103735000D03*
X162150000Y-106275000D03*
D13*
%TO.C,J1*%
X141830000Y-88490000D03*
X141830000Y-91030000D03*
X141830000Y-93570000D03*
X141830000Y-96110000D03*
X141830000Y-98650000D03*
X141830000Y-101190000D03*
X141830000Y-103730000D03*
X141830000Y-106270000D03*
X141830000Y-108810000D03*
X141830000Y-111350000D03*
X141830000Y-113890000D03*
X141830000Y-116430000D03*
X141830000Y-118970000D03*
X141830000Y-121510000D03*
D14*
%TO.C,H1*%
X144370000Y-80870000D03*
%TO.C,H2*%
X144370000Y-129130000D03*
M02*
